<svg width="23" height="21" viewBox="0 0 23 21" fill="none" xmlns="http://www.w3.org/2000/svg">
<path d="M7.44092 19.865V5.86499C7.44092 4.93502 7.44092 4.47003 7.54314 4.08853C7.82054 3.05326 8.62918 2.24461 9.66446 1.96721C10.046 1.86499 10.5109 1.86499 11.4409 1.86499C12.3709 1.86499 12.8359 1.86499 13.2174 1.96721C14.2527 2.24461 15.0613 3.05326 15.3387 4.08853C15.4409 4.47003 15.4409 4.93502 15.4409 5.86499V19.865M4.64092 19.865H18.2409C19.361 19.865 19.9211 19.865 20.3489 19.647C20.7252 19.4553 21.0312 19.1493 21.2229 18.773C21.4409 18.3451 21.4409 17.7851 21.4409 16.665V9.06499C21.4409 7.94489 21.4409 7.38483 21.2229 6.95701C21.0312 6.58069 20.7252 6.27472 20.3489 6.08298C19.9211 5.86499 19.361 5.86499 18.2409 5.86499H4.64092C3.52081 5.86499 2.96076 5.86499 2.53294 6.08298C2.15661 6.27472 1.85065 6.58069 1.6589 6.95701C1.44092 7.38483 1.44092 7.94489 1.44092 9.06499V16.665C1.44092 17.7851 1.44092 18.3451 1.6589 18.773C1.85065 19.1493 2.15661 19.4553 2.53294 19.647C2.96076 19.865 3.52081 19.865 4.64092 19.865Z" stroke="#1183EC" stroke-width="2" stroke-linecap="round" stroke-linejoin="round"/>
</svg>
