<svg width="18" height="23" viewBox="0 0 18 23" fill="none" xmlns="http://www.w3.org/2000/svg">
<path d="M11.0005 2.13452V6.26506C11.0005 6.82511 11.0005 7.10514 11.1095 7.31905C11.2054 7.50721 11.3583 7.66019 11.5465 7.75607C11.7604 7.86506 12.0404 7.86506 12.6005 7.86506H16.731M5.00049 14.865V17.865M13.0005 12.865V17.865M9.00049 10.365V17.865M17.0005 9.85322V17.065C17.0005 18.7451 17.0005 19.5852 16.6735 20.227C16.3859 20.7914 15.9269 21.2504 15.3625 21.538C14.7207 21.865 13.8806 21.865 12.2005 21.865H5.80049C4.12033 21.865 3.28025 21.865 2.63852 21.538C2.07403 21.2504 1.61509 20.7914 1.32747 20.227C1.00049 19.5852 1.00049 18.7451 1.00049 17.065V6.66499C1.00049 4.98483 1.00049 4.14475 1.32747 3.50302C1.61509 2.93853 2.07403 2.47959 2.63852 2.19197C3.28025 1.86499 4.12033 1.86499 5.80049 1.86499H9.01226C9.74604 1.86499 10.1129 1.86499 10.4582 1.94788C10.7643 2.02137 11.0569 2.14258 11.3253 2.30707C11.6281 2.4926 11.8875 2.75202 12.4064 3.27088L15.5946 6.4591C16.1135 6.97796 16.3729 7.23739 16.5584 7.54014C16.7229 7.80855 16.8441 8.10119 16.9176 8.40729C17.0005 8.75256 17.0005 9.11944 17.0005 9.85322Z" stroke="#1183EC" stroke-width="2" stroke-linecap="round" stroke-linejoin="round"/>
</svg>
