<svg width="440" height="291" viewBox="0 0 440 291" fill="none" xmlns="http://www.w3.org/2000/svg">
<g filter="url(#filter0_ddddd_230_19691)">
<path d="M334.482 123.566C334.482 167.253 299.066 202.669 255.379 202.669C211.691 202.669 176.275 167.253 176.275 123.566C176.275 79.8786 211.691 44.4629 255.379 44.4629C299.066 44.4629 334.482 79.8786 334.482 123.566ZM205.575 123.566C205.575 151.072 227.873 173.37 255.379 173.37C282.884 173.37 305.182 151.072 305.182 123.566C305.182 96.0603 282.884 73.7625 255.379 73.7625C227.873 73.7625 205.575 96.0603 205.575 123.566Z" fill="#53B645"/>
<path d="M334.482 123.566C334.482 105.265 328.136 87.5303 316.526 73.3835C304.916 59.2367 288.76 49.5532 270.811 45.9828C252.862 42.4125 234.23 45.1763 218.09 53.8033C201.95 62.4303 189.3 76.3867 182.297 93.2946C175.293 110.202 174.369 129.016 179.682 146.528C184.994 164.041 196.215 179.17 211.431 189.338C226.648 199.505 244.919 204.082 263.132 202.288C281.345 200.494 298.372 192.441 311.313 179.5L290.595 158.782C282.447 166.93 271.727 172 260.26 173.13C248.793 174.259 237.29 171.378 227.709 164.976C218.129 158.575 211.064 149.049 207.72 138.023C204.375 126.997 204.957 115.152 209.366 104.507C213.775 93.8618 221.74 85.0748 231.901 79.6432C242.063 74.2117 253.794 72.4716 265.095 74.7195C276.396 76.9674 286.568 83.0641 293.877 91.971C301.187 100.878 305.182 112.044 305.182 123.566H334.482Z" fill="#85D842"/>
<path d="M334.482 123.566C334.482 109.145 330.539 94.9983 323.081 82.6557C315.623 70.313 304.933 60.244 292.166 53.5374C279.399 46.8309 265.042 43.7419 250.647 44.6045C236.252 45.4672 222.366 50.2486 210.492 58.4318C198.617 66.615 189.206 77.8886 183.275 91.0336C177.344 104.179 175.119 118.695 176.841 133.013C178.564 147.331 184.167 160.905 193.046 172.269C201.925 183.632 213.741 192.353 227.217 197.487L237.648 170.107C229.164 166.874 221.724 161.384 216.134 154.229C210.544 147.075 207.016 138.528 205.931 129.514C204.847 120.499 206.248 111.36 209.982 103.084C213.716 94.8074 219.641 87.7095 227.118 82.5574C234.594 77.4052 243.336 74.3948 252.399 73.8517C261.463 73.3086 270.502 75.2534 278.54 79.4759C286.578 83.6983 293.309 90.0378 298.004 97.8088C302.7 105.58 305.182 114.487 305.182 123.566H334.482Z" fill="#F7F752"/>
<path d="M334.482 123.566C334.482 111.964 331.93 100.504 327.006 89.9983C322.083 79.4926 314.909 70.1986 305.992 62.7751C297.076 55.3515 286.636 49.9802 275.412 47.0418C264.188 44.1035 252.456 43.67 241.046 45.7722C229.636 47.8745 218.828 52.4608 209.388 59.2063C199.948 65.9517 192.108 74.6911 186.423 84.8048C180.738 94.9186 177.347 106.159 176.491 117.73C175.635 129.3 177.335 140.917 181.469 151.757L208.845 141.315C206.242 134.49 205.172 127.176 205.711 119.891C206.25 112.607 208.385 105.53 211.964 99.1619C215.543 92.7942 220.48 87.2919 226.423 83.045C232.366 78.798 239.171 75.9104 246.354 74.5869C253.538 73.2633 260.925 73.5362 267.992 75.3862C275.058 77.2362 281.631 80.618 287.245 85.2919C292.859 89.9658 297.376 95.8173 300.475 102.432C303.575 109.046 305.182 116.261 305.182 123.566H334.482Z" fill="#ECAF3D"/>
<path d="M334.482 123.566C334.482 106.922 329.232 90.7018 319.479 77.2144C309.726 63.7271 295.967 53.6597 280.161 48.4452C264.355 43.2307 247.306 43.1348 231.443 48.1712C215.579 53.2076 201.708 63.1196 191.804 76.4965L215.352 93.9309C221.587 85.5088 230.32 79.2682 240.308 76.0973C250.296 72.9264 261.03 72.9867 270.982 76.2698C280.933 79.5528 289.596 85.8913 295.736 94.383C301.877 102.875 305.182 113.087 305.182 123.566H334.482Z" fill="#E7792E"/>
<path d="M334.482 123.566C334.482 105.234 328.114 87.4705 316.468 73.3129C304.822 59.1553 288.62 49.4822 270.631 45.9474L264.982 74.6971C276.307 76.9227 286.508 83.0128 293.841 91.9265C301.173 100.84 305.182 112.024 305.182 123.566H334.482Z" fill="#E23122"/>
<path d="M334.482 123.566C334.482 105.852 328.536 88.6515 317.598 74.7187L294.552 92.8116C301.439 101.584 305.182 112.414 305.182 123.566H334.482Z" fill="#306F1D"/>
<path d="M362.002 95L357.002 92.1132V97.8868L362.002 95ZM330.502 95.5H331.486V94.5H330.502V95.5ZM333.455 95.5H335.424V94.5H333.455V95.5ZM337.393 95.5H339.361V94.5H337.393V95.5ZM341.33 95.5H343.299V94.5H341.33V95.5ZM345.268 95.5H347.236V94.5H345.268V95.5ZM349.205 95.5H351.174V94.5H349.205V95.5ZM353.143 95.5H355.111V94.5H353.143V95.5ZM357.08 95.5H359.049V94.5H357.08V95.5Z" fill="#495057"/>
<path d="M361.502 154L356.502 151.113V156.887L361.502 154ZM330.002 154.5H330.986V153.5H330.002V154.5ZM332.955 154.5H334.924V153.5H332.955V154.5ZM336.893 154.5H338.861V153.5H336.893V154.5ZM340.83 154.5H342.799V153.5H340.83V154.5ZM344.768 154.5H346.736V153.5H344.768V154.5ZM348.705 154.5H350.674V153.5H348.705V154.5ZM352.643 154.5H354.611V153.5H352.643V154.5ZM356.58 154.5H358.549V153.5H356.58V154.5Z" fill="#495057"/>
<path d="M267.92 234.487L270.66 229.405L264.889 229.573L267.92 234.487ZM266.502 203.015L266.531 203.999L267.53 203.969L267.502 202.985L266.502 203.015ZM266.588 205.966L266.646 207.934L267.645 207.905L267.588 205.937L266.588 205.966ZM266.703 209.902L266.76 211.87L267.76 211.841L267.703 209.873L266.703 209.902ZM266.818 213.838L266.875 215.806L267.875 215.777L267.817 213.809L266.818 213.838ZM266.932 217.774L266.99 219.742L267.989 219.713L267.932 217.745L266.932 217.774ZM267.047 221.71L267.105 223.678L268.104 223.649L268.047 221.681L267.047 221.71ZM267.162 225.646L267.219 227.613L268.219 227.584L268.162 225.616L267.162 225.646ZM267.277 229.581L267.334 231.549L268.334 231.52L268.276 229.552L267.277 229.581Z" fill="#495057"/>
<path d="M170 195.55L175.761 195.162L172.544 190.367L170 195.55ZM195.88 177.585L195.062 178.133L195.619 178.964L196.437 178.415L195.88 177.585ZM193.427 179.23L191.792 180.327L192.35 181.157L193.984 180.061L193.427 179.23ZM190.158 181.424L188.523 182.521L189.08 183.351L190.715 182.254L190.158 181.424ZM186.888 183.618L185.253 184.715L185.81 185.545L187.445 184.448L186.888 183.618ZM183.618 185.811L181.983 186.908L182.54 187.739L184.175 186.642L183.618 185.811ZM180.348 188.005L178.713 189.102L179.271 189.933L180.905 188.836L180.348 188.005ZM177.079 190.199L175.444 191.296L176.001 192.126L177.636 191.029L177.079 190.199ZM173.809 192.393L172.174 193.49L172.731 194.32L174.366 193.223L173.809 192.393Z" fill="#495057"/>
<path d="M143.333 114.321L148.248 117.351L148.415 111.58L143.333 114.321ZM174.835 114.731L173.851 114.702L173.822 115.702L174.806 115.73L174.835 114.731ZM171.883 114.645L169.915 114.589L169.886 115.588L171.854 115.645L171.883 114.645ZM167.947 114.532L165.979 114.475L165.95 115.474L167.918 115.531L167.947 114.532ZM164.011 114.418L162.043 114.361L162.014 115.361L163.982 115.418L164.011 114.418ZM160.075 114.304L158.107 114.247L158.078 115.247L160.046 115.304L160.075 114.304ZM156.139 114.191L154.171 114.134L154.143 115.133L156.111 115.19L156.139 114.191ZM152.204 114.077L150.236 114.02L150.207 115.02L152.175 115.076L152.204 114.077ZM148.268 113.963L146.3 113.906L146.271 114.906L148.239 114.963L148.268 113.963Z" fill="#495057"/>
<path d="M199.179 26.7709L200.392 32.4155L204.674 28.5427L199.179 26.7709ZM220.679 49.7974L220.019 49.0674L219.277 49.7381L219.938 50.4682L220.679 49.7974ZM218.698 47.6072L217.378 46.1471L216.636 46.8179L217.957 48.278L218.698 47.6072ZM216.057 44.687L214.737 43.2269L213.995 43.8977L215.316 45.3578L216.057 44.687ZM213.416 41.7668L212.095 40.3066L211.354 40.9774L212.674 42.4375L213.416 41.7668ZM210.775 38.8465L209.454 37.3864L208.713 38.0572L210.033 39.5173L210.775 38.8465ZM208.134 35.9263L206.813 34.4662L206.071 35.137L207.392 36.5971L208.134 35.9263ZM205.492 33.006L204.172 31.5459L203.43 32.2167L204.751 33.6768L205.492 33.006ZM202.851 30.0858L201.53 28.6257L200.789 29.2965L202.109 30.7566L202.851 30.0858Z" fill="#495057"/>
<path d="M323.137 34.0009L317.451 35.0015L321.161 39.4255L323.137 34.0009ZM299.321 54.6234L300.076 53.9909L299.433 53.2246L298.679 53.8571L299.321 54.6234ZM301.584 52.7259L303.093 51.461L302.45 50.6947L300.942 51.9597L301.584 52.7259ZM304.601 50.196L306.11 48.9311L305.467 48.1648L303.959 49.4297L304.601 50.196ZM307.619 47.6661L309.127 46.4011L308.485 45.6349L306.976 46.8998L307.619 47.6661ZM310.636 45.1362L312.144 43.8712L311.502 43.1049L309.993 44.3699L310.636 45.1362ZM313.653 42.6063L315.161 41.3413L314.519 40.575L313.01 41.84L313.653 42.6063ZM316.67 40.0763L318.179 38.8114L317.536 38.0451L316.028 39.3101L316.67 40.0763ZM319.687 37.5464L321.196 36.2815L320.553 35.5152L319.045 36.7801L319.687 37.5464Z" fill="#495057"/>
</g>
<g filter="url(#filter1_d_230_19691)">
<circle cx="255.136" cy="123.564" r="36.6736" fill="white"/>
</g>
<defs>
<filter id="filter0_ddddd_230_19691" x="0.947357" y="0.403286" width="503.44" height="731.115" filterUnits="userSpaceOnUse" color-interpolation-filters="sRGB">
<feFlood flood-opacity="0" result="BackgroundImageFix"/>
<feColorMatrix in="SourceAlpha" type="matrix" values="0 0 0 0 0 0 0 0 0 0 0 0 0 0 0 0 0 0 127 0" result="hardAlpha"/>
<feOffset/>
<feColorMatrix type="matrix" values="0 0 0 0 0 0 0 0 0 0 0 0 0 0 0 0 0 0 0.1 0"/>
<feBlend mode="normal" in2="BackgroundImageFix" result="effect1_dropShadow_230_19691"/>
<feColorMatrix in="SourceAlpha" type="matrix" values="0 0 0 0 0 0 0 0 0 0 0 0 0 0 0 0 0 0 127 0" result="hardAlpha"/>
<feOffset dy="22.4126"/>
<feGaussianBlur stdDeviation="24.3901"/>
<feColorMatrix type="matrix" values="0 0 0 0 0 0 0 0 0 0 0 0 0 0 0 0 0 0 0.1 0"/>
<feBlend mode="normal" in2="effect1_dropShadow_230_19691" result="effect2_dropShadow_230_19691"/>
<feColorMatrix in="SourceAlpha" type="matrix" values="0 0 0 0 0 0 0 0 0 0 0 0 0 0 0 0 0 0 127 0" result="hardAlpha"/>
<feOffset dy="88.3318"/>
<feGaussianBlur stdDeviation="44.1659"/>
<feColorMatrix type="matrix" values="0 0 0 0 0 0 0 0 0 0 0 0 0 0 0 0 0 0 0.09 0"/>
<feBlend mode="normal" in2="effect2_dropShadow_230_19691" result="effect3_dropShadow_230_19691"/>
<feColorMatrix in="SourceAlpha" type="matrix" values="0 0 0 0 0 0 0 0 0 0 0 0 0 0 0 0 0 0 127 0" result="hardAlpha"/>
<feOffset dy="200.395"/>
<feGaussianBlur stdDeviation="59.9865"/>
<feColorMatrix type="matrix" values="0 0 0 0 0 0 0 0 0 0 0 0 0 0 0 0 0 0 0.05 0"/>
<feBlend mode="normal" in2="effect3_dropShadow_230_19691" result="effect4_dropShadow_230_19691"/>
<feColorMatrix in="SourceAlpha" type="matrix" values="0 0 0 0 0 0 0 0 0 0 0 0 0 0 0 0 0 0 127 0" result="hardAlpha"/>
<feOffset dy="354.646"/>
<feGaussianBlur stdDeviation="71.1928"/>
<feColorMatrix type="matrix" values="0 0 0 0 0 0 0 0 0 0 0 0 0 0 0 0 0 0 0.01 0"/>
<feBlend mode="normal" in2="effect4_dropShadow_230_19691" result="effect5_dropShadow_230_19691"/>
<feBlend mode="normal" in="SourceGraphic" in2="effect5_dropShadow_230_19691" result="shape"/>
</filter>
<filter id="filter1_d_230_19691" x="213.189" y="86.8906" width="83.8947" height="83.8943" filterUnits="userSpaceOnUse" color-interpolation-filters="sRGB">
<feFlood flood-opacity="0" result="BackgroundImageFix"/>
<feColorMatrix in="SourceAlpha" type="matrix" values="0 0 0 0 0 0 0 0 0 0 0 0 0 0 0 0 0 0 127 0" result="hardAlpha"/>
<feOffset dy="5.27354"/>
<feGaussianBlur stdDeviation="2.63677"/>
<feComposite in2="hardAlpha" operator="out"/>
<feColorMatrix type="matrix" values="0 0 0 0 0 0 0 0 0 0 0 0 0 0 0 0 0 0 0.25 0"/>
<feBlend mode="normal" in2="BackgroundImageFix" result="effect1_dropShadow_230_19691"/>
<feBlend mode="normal" in="SourceGraphic" in2="effect1_dropShadow_230_19691" result="shape"/>
</filter>
</defs>
</svg>
