<svg width="185" height="48" viewBox="0 0 185 48" fill="none" xmlns="http://www.w3.org/2000/svg">
<g opacity="0.2">
<rect opacity="0.0344828" x="25.1283" y="221.47" width="180.724" height="218.046" transform="rotate(-84 25.1283 221.47)" stroke="#139EEC" stroke-width="2"/>
<rect opacity="0.0689655" x="21.1832" y="215.194" width="180.724" height="218.046" transform="rotate(-81 21.1832 215.194)" stroke="#139EEC" stroke-width="2"/>
<rect opacity="0.103448" x="17.5718" y="208.72" width="180.724" height="218.046" transform="rotate(-78 17.5718 208.72)" stroke="#139EEC" stroke-width="2"/>
<rect opacity="0.137931" x="14.3038" y="202.066" width="180.724" height="218.046" transform="rotate(-75 14.3038 202.066)" stroke="#139EEC" stroke-width="2"/>
<rect opacity="0.172414" x="11.389" y="195.249" width="180.724" height="218.046" transform="rotate(-72 11.389 195.249)" stroke="#139EEC" stroke-width="2"/>
<rect opacity="0.206897" x="8.83492" y="188.29" width="180.724" height="218.046" transform="rotate(-69 8.83492 188.29)" stroke="#139EEC" stroke-width="2"/>
<rect opacity="0.241379" x="6.64938" y="181.206" width="180.724" height="218.046" transform="rotate(-66 6.64938 181.206)" stroke="#139EEC" stroke-width="2"/>
<rect opacity="0.275862" x="4.83621" y="174.018" width="180.724" height="218.046" transform="rotate(-63 4.83621 174.018)" stroke="#139EEC" stroke-width="2"/>
<rect opacity="0.310345" x="3.40216" y="166.744" width="180.724" height="218.046" transform="rotate(-60 3.40216 166.744)" stroke="#139EEC" stroke-width="2"/>
<rect opacity="0.344828" x="2.35108" y="159.405" width="180.724" height="218.046" transform="rotate(-57 2.35108 159.405)" stroke="#139EEC" stroke-width="2"/>
<rect opacity="0.37931" x="1.68489" y="152.021" width="180.724" height="218.046" transform="rotate(-54 1.68489 152.021)" stroke="#139EEC" stroke-width="2"/>
<rect opacity="0.413793" x="1.40647" y="144.613" width="180.724" height="218.046" transform="rotate(-51 1.40647 144.613)" stroke="#139EEC" stroke-width="2"/>
<rect opacity="0.448276" x="1.51579" y="137.201" width="180.724" height="218.046" transform="rotate(-48 1.51579 137.201)" stroke="#139EEC" stroke-width="2"/>
<rect opacity="0.482759" x="2.01285" y="129.804" width="180.724" height="218.046" transform="rotate(-45 2.01285 129.804)" stroke="#139EEC" stroke-width="2"/>
<rect opacity="0.517241" x="2.89763" y="122.443" width="180.724" height="218.046" transform="rotate(-42 2.89763 122.443)" stroke="#139EEC" stroke-width="2"/>
<rect opacity="0.551724" x="4.16526" y="115.14" width="180.724" height="218.046" transform="rotate(-39 4.16526 115.14)" stroke="#139EEC" stroke-width="2"/>
<rect opacity="0.586207" x="5.81379" y="107.911" width="180.724" height="218.046" transform="rotate(-36 5.81379 107.911)" stroke="#139EEC" stroke-width="2"/>
<rect opacity="0.62069" x="7.83741" y="100.78" width="180.724" height="218.046" transform="rotate(-33 7.83741 100.78)" stroke="#139EEC" stroke-width="2"/>
<rect opacity="0.655172" x="10.2332" y="93.7642" width="180.724" height="218.046" transform="rotate(-30 10.2332 93.7642)" stroke="#139EEC" stroke-width="2"/>
<rect opacity="0.689655" x="12.9915" y="86.8828" width="180.724" height="218.046" transform="rotate(-27 12.9915 86.8828)" stroke="#139EEC" stroke-width="2"/>
<rect opacity="0.724138" x="16.1064" y="80.1552" width="180.724" height="218.046" transform="rotate(-24 16.1064 80.1552)" stroke="#139EEC" stroke-width="2"/>
<rect opacity="0.758621" x="19.5693" y="73.6006" width="180.724" height="218.046" transform="rotate(-21 19.5693 73.6006)" stroke="#139EEC" stroke-width="2"/>
<rect opacity="0.793103" x="23.3704" y="67.236" width="180.724" height="218.046" transform="rotate(-18 23.3704 67.236)" stroke="#139EEC" stroke-width="2"/>
<rect opacity="0.827586" x="27.5001" y="61.0792" width="180.724" height="218.046" transform="rotate(-15 27.5001 61.0792)" stroke="#139EEC" stroke-width="2"/>
<rect opacity="0.862069" x="31.9458" y="55.1467" width="180.724" height="218.046" transform="rotate(-12 31.9458 55.1467)" stroke="#139EEC" stroke-width="2"/>
<rect opacity="0.896552" x="36.6959" y="49.4543" width="180.724" height="218.046" transform="rotate(-9 36.6959 49.4543)" stroke="#139EEC" stroke-width="2"/>
<rect opacity="0.931035" x="41.7367" y="44.0194" width="180.724" height="218.046" transform="rotate(-6 41.7367 44.0194)" stroke="#139EEC" stroke-width="2"/>
<rect opacity="0.965517" x="47.0558" y="38.8545" width="180.724" height="218.046" transform="rotate(-3 47.0558 38.8545)" stroke="#139EEC" stroke-width="2"/>
<rect x="52.6377" y="33.9763" width="180.724" height="218.046" stroke="#139EEC" stroke-width="2"/>
</g>
</svg>
