<svg width="305" height="78" viewBox="0 0 305 78" fill="none" xmlns="http://www.w3.org/2000/svg">
<g opacity="0.2">
<rect opacity="0.0344828" x="-171.127" y="404.179" width="330.864" height="398.854" transform="rotate(-84 -171.127 404.179)" stroke="#139EEC" stroke-width="2"/>
<rect opacity="0.0689655" x="-178.351" y="392.698" width="330.864" height="398.854" transform="rotate(-81 -178.351 392.698)" stroke="#139EEC" stroke-width="2"/>
<rect opacity="0.103448" x="-184.964" y="380.853" width="330.864" height="398.854" transform="rotate(-78 -184.964 380.853)" stroke="#139EEC" stroke-width="2"/>
<rect opacity="0.137931" x="-190.949" y="368.68" width="330.864" height="398.854" transform="rotate(-75 -190.949 368.68)" stroke="#139EEC" stroke-width="2"/>
<rect opacity="0.172414" x="-196.288" y="356.209" width="330.864" height="398.854" transform="rotate(-72 -196.288 356.209)" stroke="#139EEC" stroke-width="2"/>
<rect opacity="0.206897" x="-200.966" y="343.476" width="330.864" height="398.854" transform="rotate(-69 -200.966 343.476)" stroke="#139EEC" stroke-width="2"/>
<rect opacity="0.241379" x="-204.973" y="330.514" width="330.864" height="398.854" transform="rotate(-66 -204.973 330.514)" stroke="#139EEC" stroke-width="2"/>
<rect opacity="0.275862" x="-208.296" y="317.363" width="330.864" height="398.854" transform="rotate(-63 -208.296 317.363)" stroke="#139EEC" stroke-width="2"/>
<rect opacity="0.310345" x="-210.925" y="304.054" width="330.864" height="398.854" transform="rotate(-60 -210.925 304.054)" stroke="#139EEC" stroke-width="2"/>
<rect opacity="0.344828" x="-212.854" y="290.627" width="330.864" height="398.854" transform="rotate(-57 -212.854 290.627)" stroke="#139EEC" stroke-width="2"/>
<rect opacity="0.37931" x="-214.079" y="277.116" width="330.864" height="398.854" transform="rotate(-54 -214.079 277.116)" stroke="#139EEC" stroke-width="2"/>
<rect opacity="0.413793" x="-214.594" y="263.56" width="330.864" height="398.854" transform="rotate(-51 -214.594 263.56)" stroke="#139EEC" stroke-width="2"/>
<rect opacity="0.448276" x="-214.399" y="249.997" width="330.864" height="398.854" transform="rotate(-48 -214.399 249.997)" stroke="#139EEC" stroke-width="2"/>
<rect opacity="0.482759" x="-213.494" y="236.461" width="330.864" height="398.854" transform="rotate(-45 -213.494 236.461)" stroke="#139EEC" stroke-width="2"/>
<rect opacity="0.517241" x="-211.883" y="222.992" width="330.864" height="398.854" transform="rotate(-42 -211.883 222.992)" stroke="#139EEC" stroke-width="2"/>
<rect opacity="0.551724" x="-209.568" y="209.626" width="330.864" height="398.854" transform="rotate(-39 -209.568 209.626)" stroke="#139EEC" stroke-width="2"/>
<rect opacity="0.586207" x="-206.557" y="196.398" width="330.864" height="398.854" transform="rotate(-36 -206.557 196.398)" stroke="#139EEC" stroke-width="2"/>
<rect opacity="0.62069" x="-202.859" y="183.347" width="330.864" height="398.854" transform="rotate(-33 -202.859 183.347)" stroke="#139EEC" stroke-width="2"/>
<rect opacity="0.655172" x="-198.482" y="170.508" width="330.864" height="398.854" transform="rotate(-30 -198.482 170.508)" stroke="#139EEC" stroke-width="2"/>
<rect opacity="0.689655" x="-193.439" y="157.914" width="330.864" height="398.854" transform="rotate(-27 -193.439 157.914)" stroke="#139EEC" stroke-width="2"/>
<rect opacity="0.724138" x="-187.744" y="145.601" width="330.864" height="398.854" transform="rotate(-24 -187.744 145.601)" stroke="#139EEC" stroke-width="2"/>
<rect opacity="0.758621" x="-181.412" y="133.604" width="330.864" height="398.854" transform="rotate(-21 -181.412 133.604)" stroke="#139EEC" stroke-width="2"/>
<rect opacity="0.793103" x="-174.462" y="121.955" width="330.864" height="398.854" transform="rotate(-18 -174.462 121.955)" stroke="#139EEC" stroke-width="2"/>
<rect opacity="0.827586" x="-166.911" y="110.686" width="330.864" height="398.854" transform="rotate(-15 -166.911 110.686)" stroke="#139EEC" stroke-width="2"/>
<rect opacity="0.862069" x="-158.781" y="99.8266" width="330.864" height="398.854" transform="rotate(-12 -158.781 99.8266)" stroke="#139EEC" stroke-width="2"/>
<rect opacity="0.896552" x="-150.092" y="89.4069" width="330.864" height="398.854" transform="rotate(-9 -150.092 89.4069)" stroke="#139EEC" stroke-width="2"/>
<rect opacity="0.931035" x="-140.872" y="79.4579" width="330.864" height="398.854" transform="rotate(-6 -140.872 79.4579)" stroke="#139EEC" stroke-width="2"/>
<rect opacity="0.965517" x="-131.142" y="70.0029" width="330.864" height="398.854" transform="rotate(-3 -131.142 70.0029)" stroke="#139EEC" stroke-width="2"/>
<rect x="-120.932" y="61.0723" width="330.864" height="398.854" stroke="#139EEC" stroke-width="2"/>
</g>
</svg>
