<svg width="31" height="25" viewBox="0 0 31 25" fill="none" xmlns="http://www.w3.org/2000/svg">
<g clip-path="url(#clip0_1191_48907)">
<path d="M29.3063 3.48348C27.488 2.72082 25.6684 2.43066 23.8496 2.43066C18.076 2.4302 12.3029 5.35285 6.5293 5.35285C5.08133 5.35285 3.6343 5.1691 2.18633 4.70973C2.02367 4.65816 1.86055 4.63379 1.70117 4.63379C0.894453 4.63379 0.189453 5.25816 0.189453 6.12488V20.9964C0.189453 21.5885 0.528359 22.1496 1.07258 22.3774C2.89086 23.1405 4.71055 23.4307 6.5293 23.4307C12.3029 23.4307 18.0765 20.508 23.8501 20.508C25.298 20.508 26.7451 20.6918 28.193 21.1511C28.3557 21.2027 28.5188 21.2271 28.6782 21.2271C29.4849 21.2271 30.1899 20.6027 30.1899 19.736V4.86488C30.1895 4.27238 29.8505 3.71176 29.3063 3.48348ZM2.43945 7.12848C3.38258 7.36473 4.36695 7.48332 5.37945 7.54707C5.10383 8.92473 3.89258 9.96301 2.43945 9.96301V7.12848ZM2.43945 20.4879V18.2482C4.05055 18.2482 5.35414 19.5264 5.42586 21.1263C4.36977 21.0414 3.38258 20.8305 2.43945 20.4879ZM15.1895 17.4307C13.118 17.4307 11.4395 15.4155 11.4395 12.9307C11.4395 10.4454 13.1185 8.43066 15.1895 8.43066C17.2604 8.43066 18.9395 10.4454 18.9395 12.9307C18.9395 15.4164 17.2599 17.4307 15.1895 17.4307ZM27.9395 18.7329C27.1182 18.5271 26.2655 18.4118 25.3932 18.3372C25.6684 17.1147 26.6823 16.1866 27.9395 16.0272V18.7329ZM27.9395 7.6652C26.4915 7.48191 25.3679 6.27301 25.3234 4.78004C26.2393 4.88176 27.1088 5.07207 27.9395 5.37348V7.6652Z" fill="#1183EC"/>
</g>
<defs>
<clipPath id="clip0_1191_48907">
<rect width="30" height="24" fill="white" transform="translate(0.189453 0.930664)"/>
</clipPath>
</defs>
</svg>
