<svg width="68" height="68" viewBox="0 0 68 68" fill="none" xmlns="http://www.w3.org/2000/svg">
<path d="M34.0001 55.667C35.389 55.667 36.5701 55.1814 37.5434 54.2103C38.5168 53.2392 39.0023 52.0581 39.0001 50.667H29.0001C29.0001 52.0559 29.4867 53.237 30.4601 54.2103C31.4334 55.1837 32.6134 55.6692 34.0001 55.667ZM17.3334 47.3337H50.6668V40.667H47.3334V32.0003C47.3334 28.6114 46.4579 25.5148 44.7067 22.7103C42.9556 19.9059 40.4979 18.1137 37.3334 17.3337V15.667C37.3334 14.7225 37.0134 13.9314 36.3734 13.2937C35.7334 12.6559 34.9423 12.3359 34.0001 12.3337C33.0579 12.3314 32.2668 12.6514 31.6268 13.2937C30.9868 13.9359 30.6667 14.727 30.6667 15.667V17.3337C27.5001 18.1114 25.0423 19.9037 23.2934 22.7103C21.5445 25.517 20.669 28.6137 20.6668 32.0003V40.667H17.3334V47.3337ZM34.0001 67.3337C29.389 67.3337 25.0556 66.4581 21.0001 64.707C16.9445 62.9559 13.4168 60.5814 10.4168 57.5837C7.41675 54.5859 5.04231 51.0581 3.29342 47.0003C1.54453 42.9425 0.668974 38.6092 0.666752 34.0003C0.66453 29.3914 1.54009 25.0581 3.29342 21.0003C5.04675 16.9426 7.4212 13.4148 10.4168 10.417C13.4123 7.41922 16.9401 5.04477 21.0001 3.29366C25.0601 1.54255 29.3934 0.666992 34.0001 0.666992C38.6068 0.666992 42.9401 1.54255 47.0001 3.29366C51.0601 5.04477 54.5879 7.41922 57.5834 10.417C60.579 13.4148 62.9545 16.9426 64.7101 21.0003C66.4656 25.0581 67.3401 29.3914 67.3334 34.0003C67.3268 38.6092 66.4512 42.9425 64.7067 47.0003C62.9623 51.0581 60.5879 54.5859 57.5834 57.5837C54.579 60.5814 51.0512 62.957 47.0001 64.7103C42.949 66.4637 38.6156 67.3381 34.0001 67.3337Z" fill="#277BC7"/>
</svg>
