<svg width="403" height="212" viewBox="0 0 403 212" fill="none" xmlns="http://www.w3.org/2000/svg">
<g clip-path="url(#clip0_230_19476)">
<rect width="403" height="212" rx="10" fill="#0B1E51"/>
<g style="mix-blend-mode:overlay">
<g style="mix-blend-mode:overlay" opacity="0.57">
<path d="M490.215 187C423.955 204.018 289.97 227.577 284.11 185.666C276.785 133.276 360.917 127.839 365.02 128.119M365.02 128.119C369.122 128.399 441.698 127.437 464.331 114.199L482.158 150.495C426.877 161.722 313.207 176.84 300.782 147.502C293.844 131.123 294.703 118.293 307.598 109.23M365.02 128.119C319.553 130.799 307.795 116.643 307.598 109.23M307.598 109.23C317.801 102.06 330.467 97.2489 339.673 94.904L307.598 109.23Z" stroke="white" stroke-width="2"/>
</g>
<g style="mix-blend-mode:overlay" opacity="0.57">
<path d="M539.215 84.9996C472.955 102.018 338.97 125.577 333.11 83.6657C325.785 31.2759 409.917 25.8388 414.02 26.119M414.02 26.119C418.122 26.3992 490.698 25.4369 513.331 12.199L531.158 48.4951C475.877 59.7216 362.207 74.8401 349.782 45.5022C342.844 29.1231 343.703 16.293 356.598 7.23048M414.02 26.119C368.553 28.7989 356.795 14.6433 356.598 7.23048M356.598 7.23048C366.801 0.0604589 379.467 -4.75114 388.673 -7.096L356.598 7.23048Z" stroke="white" stroke-width="2"/>
</g>
</g>
<g style="mix-blend-mode:overlay">
<g style="mix-blend-mode:overlay" opacity="0.57">
<path d="M523.215 161C456.955 178.018 322.97 201.577 317.11 159.666C309.785 107.276 393.917 101.839 398.02 102.119M398.02 102.119C402.122 102.399 474.698 101.437 497.331 88.199L515.158 124.495C459.877 135.722 346.207 150.84 333.782 121.502C326.844 105.123 327.703 92.293 340.598 83.2305M398.02 102.119C352.553 104.799 340.795 90.6433 340.598 83.2305M340.598 83.2305C350.801 76.0605 363.467 71.2489 372.673 68.904L340.598 83.2305Z" stroke="white" stroke-width="2"/>
</g>
<g style="mix-blend-mode:overlay">
<path d="M572.215 58.9996C505.955 76.0182 371.97 99.5775 366.11 57.6657C358.785 5.27593 442.917 -0.16119 447.02 0.118983M447.02 0.118983C451.122 0.399156 523.698 -0.563104 546.331 -13.801L564.158 22.4951C508.877 33.7216 395.207 48.8401 382.782 19.5022C375.844 3.12311 376.703 -9.70705 389.598 -18.7695M447.02 0.118983C401.553 2.79893 389.795 -11.3567 389.598 -18.7695M389.598 -18.7695C399.801 -25.9395 412.467 -30.7511 421.673 -33.096L389.598 -18.7695Z" stroke="white" stroke-width="2"/>
</g>
</g>
</g>
<defs>
<clipPath id="clip0_230_19476">
<rect width="403" height="212" fill="white"/>
</clipPath>
</defs>
</svg>
