<svg width="249" height="220" viewBox="0 0 249 220" fill="none" xmlns="http://www.w3.org/2000/svg">
<path d="M158.819 2.78895H158.819H184.473C195.733 2.78896 204.96 2.27556 212.545 1.85352C215.52 1.68796 218.243 1.53646 220.736 1.43552C225.153 1.25674 228.862 1.23639 231.966 1.58638C235.071 1.93656 237.606 2.66085 239.654 3.9967C243.776 6.68405 245.754 11.7238 246.737 20.4854C247.721 29.2569 247.721 41.9337 247.721 60.0997V60.143V160.097V160.147C247.721 178.323 247.721 191.019 246.574 199.809C245.427 208.605 243.112 213.656 238.333 216.342C235.966 217.672 233.035 218.398 229.431 218.751C225.828 219.104 221.517 219.087 216.373 218.912C213.446 218.812 210.246 218.66 206.746 218.494C197.926 218.076 187.2 217.567 174.121 217.567H74.3045C61.1805 217.567 50.4298 218.077 41.6015 218.495C38.1088 218.66 34.917 218.812 31.9982 218.912C26.8574 219.087 22.5549 219.104 18.9627 218.751C15.3708 218.398 12.4541 217.672 10.1027 216.341C5.35573 213.654 3.0815 208.602 1.96516 199.807C0.871216 191.189 0.871552 178.814 0.871994 161.198L0.872025 160.1V160.097L0.512863 96.4752V96.4725V96.4416C0.512863 78.9213 0.512863 65.742 1.49951 55.848C2.48596 45.956 4.46582 39.2422 8.51146 34.7345C12.567 30.2158 18.6178 28.0013 27.5149 26.8998C36.4029 25.7995 48.2379 25.7995 63.9535 25.7995H63.9919H100.291C106.288 25.7912 111.029 25.7937 116.248 25.7965L118.181 25.7975C122.579 25.7997 126.77 23.9252 129.701 20.6465L135.046 14.667C140.655 7.1853 149.464 2.80196 158.819 2.78895Z" stroke="#DDDDDD" stroke-width="0.974583"/>
</svg>
