<svg width="23" height="24" viewBox="0 0 23 24" fill="none" xmlns="http://www.w3.org/2000/svg">
<path d="M10.8755 0.849487L10.162 2.47839C9.79274 2.50093 9.42529 2.54743 9.06202 2.61761L7.97068 1.20836L6.7944 1.6083L6.78854 3.40127C6.29026 3.65739 5.81274 3.96705 5.36166 4.32846L3.69924 3.57996L2.84813 4.48525L3.6992 6.09949C3.42767 6.48657 3.18905 6.89572 2.98585 7.32264L1.16063 7.37242L0.790039 8.55742L2.2637 9.64295C2.19315 10.0826 2.1587 10.5269 2.15673 10.9716L0.520508 11.8007L0.691883 13.0311L2.4878 13.3827C2.59517 13.7586 2.72829 14.1266 2.88624 14.4843L1.7027 15.9535L2.3633 17.0052L4.20315 16.5746C4.31957 16.7116 4.44022 16.8449 4.56493 16.9744C4.8254 17.2439 5.10284 17.4963 5.39555 17.7303L5.03813 19.5731L6.11335 20.1942L7.5181 18.971C7.92006 19.1326 8.3339 19.2629 8.75593 19.3607L9.21446 21.1609L10.4522 21.262L11.1963 19.5642C11.7106 19.5333 12.2231 19.4564 12.7271 19.3328L13.9093 20.7025L15.0621 20.241L15.0283 19.5467L12.3374 17.5062C11.554 17.7042 10.7417 17.7573 9.94384 17.6673C8.45537 17.4994 7.02493 16.8273 5.90237 15.6663C3.33652 13.0126 3.40988 8.79119 6.06352 6.22544C7.34884 4.98264 9.00212 4.35217 10.6573 4.33432C12.4193 4.31528 14.1829 4.99038 15.5059 6.35871C17.6591 8.58583 17.9526 11.9361 16.4229 14.4725L17.9215 15.6093C18.1078 15.3171 18.2761 15.0138 18.4254 14.701L20.2374 14.6512L20.6079 13.4662L19.1446 12.3881C19.2152 11.9448 19.251 11.4966 19.2515 11.0478L20.8775 10.2216L20.7062 8.99111L18.9118 8.63955C18.7608 8.11977 18.5607 7.61554 18.3142 7.13369L19.3834 5.65272L18.6685 4.63755L16.9079 5.14877C16.8858 5.12533 16.8643 5.10157 16.8419 5.07846C16.5648 4.79171 16.2682 4.52445 15.9542 4.27858L16.2912 2.53835L15.2158 1.9173L13.8799 3.08046C13.4474 2.90641 13.0032 2.77094 12.5527 2.6703L12.1148 0.95055L10.8755 0.849487ZM8.14941 8.0448C7.66454 8.05033 7.18393 8.16939 6.74316 8.38605L8.86285 9.99452C9.50391 10.4809 9.68574 11.4052 9.19379 12.0541C8.7017 12.7033 7.75679 12.8009 7.10645 12.3076L4.98826 10.7006C4.77137 11.8628 5.18209 13.0942 6.18798 13.8573C7.09009 14.5416 8.24785 14.6697 9.24516 14.3115L9.46923 14.2308L9.65813 14.3744L15.9952 19.1821L16.1841 19.3256L16.1679 19.563C16.0912 20.62 16.5237 21.7009 17.4263 22.3856C18.4322 23.1488 19.7299 23.212 20.7909 22.6903L18.6729 21.0835C18.0225 20.59 17.8628 19.6535 18.355 19.0048C18.8472 18.3561 19.7865 18.2827 20.4277 18.769L22.5459 20.376C22.7623 19.2142 22.3532 17.9822 21.3476 17.2192C20.4423 16.5321 19.2937 16.396 18.3023 16.7489L18.0796 16.828L17.8907 16.6845L11.5537 11.8769L11.3648 11.7333L11.3809 11.4975C11.4535 10.4481 11.0129 9.37905 10.1079 8.69228C9.5199 8.24622 8.83187 8.03707 8.14946 8.04485L8.14941 8.0448ZM10.1914 12.2753L17.8731 18.1039L17.3442 18.8026L9.66113 12.9725L10.1914 12.2753Z" fill="#1183EC"/>
</svg>
