<svg width="129" height="125" viewBox="0 0 129 125" fill="none" xmlns="http://www.w3.org/2000/svg">
<g style="mix-blend-mode:overlay">
<path d="M127.738 128.279L111.828 112.369M0.459049 1.00006L28.7671 29.3081M64.0987 64.6397L-0.269484 65.3682M64.0987 64.6397L47.733 48.2741M64.0987 64.6397L47.5995 81.1388M64.0987 64.6397L62.3784 95.3308M64.0987 64.6397L95.9185 96.4595M-0.889436 129.628L-31.3607 160.099L-17.7086 146.447M-0.889436 129.628L-17.9142 112.82M-0.889436 129.628L-34.6247 129.531M-0.889436 129.628L-2.79507 158.302M-0.889436 129.628L13.4874 144.222M-64.6376 66.0967L-17.9142 112.82M-64.6376 66.0967L-0.269484 65.3682M-64.6376 66.0967L-49.1834 81.5509M31.1004 97.638L-1.31445 97.3216M31.1004 97.638L-0.269484 65.3682M31.1004 97.638L47.5995 81.1388M31.1004 97.638L30.4471 127.262M31.1004 97.638L15.9297 112.809M-90.163 96.4542L-64.966 96.7002M-33.7293 97.0051L-1.31445 97.3216M-33.7293 97.0051L-17.9142 112.82M-33.7293 97.0051L-64.966 96.7002M-33.7293 97.0051L-49.1834 81.5509M-61.1975 130.262L-34.6247 129.531M28.7671 29.3081L-3.23891 29.7134M28.7671 29.3081L31.3674 31.9084L47.733 48.2741M28.7671 29.3081L-0.269484 65.3682M-28.5752 30.0343L-3.23891 29.7134M-3.23891 29.7134L-15.7466 17.2057M-3.23891 29.7134L-32.5724 64.3066L-1.31445 97.3216M-1.31445 97.3216L-17.9142 112.82M47.733 48.2741L31.5274 64.4797L47.5995 81.1388M-34.6247 129.531L-64.966 96.7002M-34.6247 129.531L-48.2769 143.183M-64.966 96.7002L-49.1834 81.5509M-2.79507 158.302L-3.49101 187.969L-3.51851 187.041M-2.79507 158.302L13.4874 144.222M-2.79507 158.302L-17.7086 146.447M-2.79507 158.302L-3.51851 187.041M13.4874 144.222L26.8717 157.606L29.7153 160.45M-17.7086 146.447L15.9297 112.809M29.7153 160.45L29.2274 195.617M29.7153 160.45L29.6543 216.272L29.2274 195.617M29.7153 160.45L30.4471 127.262M29.7153 160.45L46.1785 176.913M29.7153 160.45L62.4683 128.809M29.7153 160.45L-0.647383 190.812L-3.51851 187.041M29.2274 195.617L44.8139 211.204M29.2274 195.617L16.6924 208.152M30.4471 127.262L15.9297 112.809M30.4471 127.262L62.3784 95.3308M62.3784 95.3308L62.4683 128.809M62.3784 95.3308L95.9937 127.99M62.5582 162.286L62.6416 193.376L46.1785 176.913M62.5582 162.286L46.1785 176.913M62.5582 162.286L62.4683 128.809M62.5582 162.286L78.1447 177.873M62.4683 128.809L96.0689 159.521L95.9937 127.99M95.9185 96.4595L111.828 112.369M95.9185 96.4595L95.9937 127.99M111.828 112.369L95.9937 127.99" stroke="#EFFCFF" stroke-width="2"/>
</g>
</svg>
