<svg width="25" height="25" viewBox="0 0 25 25" fill="none" xmlns="http://www.w3.org/2000/svg">
<g clip-path="url(#clip0_1191_48953)">
<path d="M1.06689 9.16271L2.58939 7.6402L4.1118 9.16271L2.58935 10.6852L1.06689 9.16271ZM5.61283 4.61686L7.13529 3.09436L8.65774 4.61686L7.13524 6.13931L5.61283 4.61686ZM5.63393 10.6856L4.11143 12.2081L6.72879 14.8254L15.8425 5.71172L11.7031 1.57153L10.1806 3.09399L11.7028 4.61663L10.1801 6.13931L11.7026 7.66181L10.1803 9.18413L7.13566 6.13894L5.61316 7.66139L8.65788 10.7066L7.15638 12.208L5.63393 10.6856ZM17.7458 15.4069L22.5394 10.6133C23.104 10.0486 23.104 9.12985 22.5394 8.5651L20.7728 6.79852C20.0366 6.1201 19.1098 6.27094 18.5147 7.00847L17.8878 6.38156C17.308 5.81981 16.4611 5.89392 15.985 6.38156L7.39961 14.9671C6.90096 15.4758 6.81663 16.2229 7.39961 16.8698L9.38093 18.851C9.96827 19.4198 10.8069 19.3367 11.2836 18.851L19.869 10.2656C20.3935 9.74096 20.3935 8.88736 19.869 8.36278L19.2421 7.73588C19.4842 7.46686 19.7054 7.25128 20.0455 7.52597L21.812 9.2925C21.9756 9.45619 21.9756 9.72249 21.812 9.88608L17.0185 14.6797C16.4717 15.2235 16.4152 16.1152 17.0185 16.7278L18.1161 17.8254C17.625 18.3523 17.6347 19.1797 18.1479 19.6929L22.1103 23.6553C22.6883 24.1941 23.4778 24.1763 24.013 23.6554L24.6735 22.995C25.198 22.4704 25.198 21.6169 24.6735 21.0923L20.7109 17.1298C20.1977 16.6166 19.3704 16.6069 18.8434 17.0981L17.7456 16.0003C17.5634 15.8034 17.5994 15.5642 17.7457 15.4069" fill="#1183EC"/>
</g>
<defs>
<clipPath id="clip0_1191_48953">
<rect width="24" height="24" fill="white" transform="translate(0.930176 0.930664)"/>
</clipPath>
</defs>
</svg>
