<svg width="21" height="21" viewBox="0 0 21 21" fill="none" xmlns="http://www.w3.org/2000/svg">
<path d="M3.55957 7.86501V15.865M8.05957 7.86501V15.865M13.0596 7.86501V15.865M17.5596 7.86501V15.865M1.55957 17.465L1.55957 18.265C1.55957 18.8251 1.55957 19.1051 1.66856 19.319C1.76444 19.5072 1.91742 19.6601 2.10558 19.756C2.31949 19.865 2.59952 19.865 3.15957 19.865H17.9596C18.5196 19.865 18.7996 19.865 19.0136 19.756C19.2017 19.6601 19.3547 19.5072 19.4506 19.319C19.5596 19.1051 19.5596 18.8251 19.5596 18.265V17.465C19.5596 16.905 19.5596 16.6249 19.4506 16.411C19.3547 16.2229 19.2017 16.0699 19.0136 15.974C18.7996 15.865 18.5196 15.865 17.9596 15.865H3.15957C2.59952 15.865 2.31949 15.865 2.10558 15.974C1.91742 16.0699 1.76444 16.2229 1.66856 16.411C1.55957 16.6249 1.55957 16.905 1.55957 17.465ZM10.2125 1.94214L2.81248 3.58659C2.36542 3.68593 2.14189 3.73561 1.97504 3.85581C1.82786 3.96184 1.7123 4.10591 1.64072 4.27258C1.55957 4.46153 1.55957 4.69052 1.55957 5.14848L1.55957 6.26501C1.55957 6.82506 1.55957 7.10509 1.66856 7.319C1.76444 7.50716 1.91742 7.66014 2.10558 7.75602C2.31949 7.86501 2.59952 7.86501 3.15957 7.86501H17.9596C18.5196 7.86501 18.7996 7.86501 19.0136 7.75602C19.2017 7.66014 19.3547 7.50716 19.4506 7.319C19.5596 7.10509 19.5596 6.82506 19.5596 6.26501V5.14849C19.5596 4.69052 19.5596 4.46154 19.4784 4.27258C19.4068 4.10591 19.2913 3.96184 19.1441 3.85581C18.9773 3.73561 18.7537 3.68593 18.3067 3.58659L10.9067 1.94214C10.7771 1.91336 10.7124 1.89897 10.6469 1.89323C10.5888 1.88813 10.5303 1.88813 10.4722 1.89323C10.4068 1.89897 10.342 1.91336 10.2125 1.94214Z" stroke="#1183EC" stroke-width="2" stroke-linecap="round" stroke-linejoin="round"/>
</svg>
