<svg width="23" height="24" viewBox="0 0 23 24" fill="none" xmlns="http://www.w3.org/2000/svg">
<path d="M1.55862 18.3466L5.74834 21.8386C6.36447 22.3516 7.14089 22.6325 7.94262 22.6323H18.9878C19.7763 22.6323 20.4158 21.9929 20.4158 21.2043C20.4158 19.6272 19.1369 18.3466 17.5581 18.3466H9.87977M14.8135 1.63233C14.5862 1.63233 14.3681 1.72264 14.2074 1.88338C14.0466 2.04413 13.9563 2.26214 13.9563 2.48947V4.90147H11.5461C11.3187 4.90147 11.1007 4.99178 10.94 5.15252C10.7792 5.31327 10.6889 5.53129 10.6889 5.75862V8.54433C10.6889 8.77166 10.7792 8.98968 10.94 9.15042C11.1007 9.31117 11.3187 9.40147 11.5461 9.40147H13.9563V11.8118C13.9563 12.0391 14.0466 12.2571 14.2074 12.4178C14.3681 12.5786 14.5862 12.6689 14.8135 12.6689H17.5992C17.8265 12.6689 18.0445 12.5786 18.2053 12.4178C18.366 12.2571 18.4563 12.0391 18.4563 11.8118V9.40147H20.8666C21.094 9.40147 21.312 9.31117 21.4727 9.15042C21.6335 8.98968 21.7238 8.77166 21.7238 8.54433V5.75862C21.7238 5.53129 21.6335 5.31327 21.4727 5.15252C21.312 4.99178 21.094 4.90147 20.8666 4.90147H18.4563V2.48776C18.4563 2.26043 18.366 2.04241 18.2053 1.88167C18.0445 1.72092 17.8265 1.63062 17.5992 1.63062L14.8135 1.63233Z" stroke="#1183EC" stroke-width="1.71429" stroke-linecap="round" stroke-linejoin="round"/>
<path d="M6.70148 16.6324L7.9872 17.9181C8.15604 18.087 8.35648 18.2209 8.57709 18.3123C8.79769 18.4036 9.03413 18.4507 9.27291 18.4507C9.51169 18.4507 9.74813 18.4036 9.96873 18.3123C10.1893 18.2209 10.3898 18.087 10.5586 17.9181C10.7275 17.7493 10.8614 17.5488 10.9528 17.3282C11.0442 17.1076 11.0912 16.8712 11.0912 16.6324C11.0912 16.3936 11.0442 16.1572 10.9528 15.9366C10.8614 15.716 10.7275 15.5155 10.5586 15.3467L8.5632 13.3513C7.92036 12.7082 7.04844 12.3469 6.1392 12.3467H1.55862" stroke="#1183EC" stroke-width="1.71429" stroke-linecap="round" stroke-linejoin="round"/>
</svg>
