<svg width="243" height="265" viewBox="0 0 243 265" fill="none" xmlns="http://www.w3.org/2000/svg">
<path d="M88.021 -35.6207C90.0511 -37.8937 93.0066 -39.1186 96.051 -38.9486L223.763 -31.8198C226.807 -31.6499 229.609 -30.1034 231.376 -27.6181L305.463 76.6229C307.23 79.1083 307.768 82.262 306.926 85.1912L271.601 208.049C270.759 210.978 268.628 213.364 265.812 214.531L147.674 263.492C144.858 264.659 141.663 264.48 138.993 263.007L27.0031 201.201C24.333 199.728 22.4791 197.119 21.9662 194.114L0.454293 68.0839C-0.0585837 65.0792 0.825239 62.0051 2.85556 59.7319L88.021 -35.6207Z" fill="url(#paint0_linear_1619_26551)" fill-opacity="0.74"/>
<defs>
<linearGradient id="paint0_linear_1619_26551" x1="91.2335" y1="-39.2176" x2="212.579" y2="253.581" gradientUnits="userSpaceOnUse">
<stop stop-color="#E1E1E1"/>
<stop offset="1" stop-color="#EEEEEE" stop-opacity="0"/>
</linearGradient>
</defs>
</svg>
