<svg width="28" height="25" viewBox="0 0 28 25" fill="none" xmlns="http://www.w3.org/2000/svg">
<g clip-path="url(#clip0_1191_48976)">
<path d="M12.9404 2.43066C12.1107 2.43066 11.4404 3.10098 11.4404 3.93066V8.70723C11.4404 8.96973 11.2295 9.18066 10.967 9.18066C10.7982 9.18066 10.6389 9.0916 10.5545 8.9416L8.30449 5.00879C4.83106 6.71973 2.44043 10.2963 2.44043 14.4307V17.4307H26.4404V14.3182C26.3982 10.2307 24.017 6.70566 20.5764 5.00879L18.3264 8.9416C18.242 9.0916 18.0826 9.18066 17.9139 9.18066C17.6514 9.18066 17.4404 8.96973 17.4404 8.70723V3.93066C17.4404 3.10098 16.7701 2.43066 15.9404 2.43066H12.9404ZM1.71855 18.9307C1.2873 18.9307 0.94043 19.2775 0.94043 19.7088C0.94043 19.9291 1.03418 20.14 1.2123 20.2666C2.22949 21.0119 6.18106 23.4307 14.4404 23.4307C22.6998 23.4307 26.6514 21.0119 27.6686 20.2666C27.8467 20.1354 27.9404 19.9291 27.9404 19.7088C27.9404 19.2775 27.5936 18.9307 27.1623 18.9307H1.71855Z" fill="#1183EC"/>
</g>
<defs>
<clipPath id="clip0_1191_48976">
<rect width="27" height="24" fill="white" transform="translate(0.94043 0.930664)"/>
</clipPath>
</defs>
</svg>
