<svg width="55" height="55" viewBox="0 0 55 55" fill="none" xmlns="http://www.w3.org/2000/svg">
<g clip-path="url(#clip0_482_88213)">
<path d="M27.5 55C42.6878 55 55 42.6878 55 27.5C55 12.3122 42.6878 0 27.5 0C12.3122 0 0 12.3122 0 27.5C0 42.6878 12.3122 55 27.5 55Z" fill="#50B748"/>
<path d="M33.2861 54.3512C33.8134 54.2489 34.3377 54.1312 34.8582 53.9983C35.7407 53.7516 36.6103 53.461 37.4638 53.1274C38.3184 52.7967 39.1559 52.4235 39.9732 52.0091C40.7907 51.5931 41.5869 51.1365 42.3588 50.641C43.1298 50.1454 43.8755 49.6115 44.5932 49.0414C45.3121 48.4705 46.002 47.864 46.6602 47.2241C47.3174 46.5858 47.9423 45.915 48.5325 45.2143C49.1233 44.513 49.6785 43.7826 50.1963 43.0258C50.7139 42.2703 51.1935 41.4894 51.6332 40.686C52.0729 39.8814 52.4722 39.0554 52.8294 38.211C53.187 37.3664 53.5021 36.5044 53.7736 35.6283C54.006 34.8612 54.2048 34.0844 54.3694 33.2999L38.0298 16.9627C36.6499 15.5767 35.0096 14.4772 33.2032 13.7276C31.3968 12.978 29.46 12.593 27.5042 12.5947C25.5467 12.5926 23.608 12.9774 21.7997 13.727C19.9914 14.4766 18.3491 15.5762 16.9671 16.9627C15.5817 18.345 14.4826 19.987 13.7326 21.7948C12.9827 23.6025 12.5967 25.5403 12.5967 27.4974C12.5967 29.4545 12.9827 31.3924 13.7326 33.2001C14.4826 35.0078 15.5817 36.6499 16.9671 38.0322L33.2861 54.3512Z" fill="#10A711"/>
<path d="M27.5023 12.5972C31.311 12.5972 35.1198 14.0524 38.0348 16.9651C39.4202 18.3474 40.5193 19.9895 41.2692 21.7972C42.0192 23.6049 42.4052 25.5428 42.4052 27.4999C42.4052 29.457 42.0192 31.3949 41.2692 33.2026C40.5193 35.0103 39.4202 36.6523 38.0348 38.0347C36.6524 39.4201 35.0104 40.5192 33.2027 41.2692C31.3949 42.0191 29.4571 42.4051 27.5 42.4051C25.5429 42.4051 23.605 42.0191 21.7973 41.2692C19.9896 40.5192 18.3475 39.4201 16.9652 38.0347C15.5798 36.6523 14.4806 35.0103 13.7307 33.2026C12.9807 31.3949 12.5947 29.457 12.5947 27.4999C12.5947 25.5428 12.9807 23.6049 13.7307 21.7972C14.4806 19.9895 15.5798 18.3474 16.9652 16.9651C18.3471 15.5787 19.9894 14.479 21.7978 13.7294C23.6061 12.9798 25.5447 12.595 27.5023 12.5972ZM34.2856 22.9143C34.0687 22.935 33.8621 23.0169 33.6898 23.1503L25.316 29.4295L21.4362 25.552C20.5952 24.6766 18.9383 26.3311 19.816 27.1722L24.3993 31.7555C24.598 31.9434 24.8556 32.0568 25.1283 32.0764C25.4011 32.096 25.6722 32.0207 25.8958 31.8632L35.0625 24.9882C35.8325 24.4268 35.3581 22.9303 34.4048 22.9166C34.3658 22.9146 34.3268 22.9146 34.2879 22.9166L34.2856 22.9143Z" fill="white"/>
</g>
<defs>
<clipPath id="clip0_482_88213">
<rect width="55" height="55" fill="white"/>
</clipPath>
</defs>
</svg>
