<svg width="56" height="56" viewBox="0 0 56 56" fill="none" xmlns="http://www.w3.org/2000/svg">
<path d="M52.5402 28.0036C52.5402 41.8236 41.3352 53.0286 27.5152 53.0286C13.6952 53.0286 2.49023 41.8236 2.49023 28.0036C2.49023 14.1836 13.6952 2.97864 27.5152 2.97864C41.3352 2.97864 52.5402 14.1836 52.5402 28.0036Z" fill="#ABD7EF"/>
<path d="M39.3906 17.9237V43.7337C39.3906 44.5238 38.7506 45.1637 37.9606 45.1637H17.0706C16.2806 45.1637 15.6406 44.5238 15.6406 43.7337V12.2738C15.6406 11.4838 16.2806 10.8438 17.0706 10.8438H32.3106L39.3906 17.9237Z" fill="white"/>
<path d="M29.5502 17.2286H18.4102V18.6586H29.5502V17.2286Z" fill="#E1E1E1"/>
<path d="M29.5502 13.7032H18.4102V15.1332H29.5502V13.7032Z" fill="#E1E1E1"/>
<path d="M36.8455 20.754H18.1855V22.184H36.8455V20.754Z" fill="#E1E1E1"/>
<path d="M39.3905 17.9237H33.7405C32.9505 17.9237 32.3105 17.2837 32.3105 16.4937V10.8438L39.3905 17.9237Z" fill="#A8B6C2"/>
<path d="M33.5853 31.3143H30.5053V42.3043H24.5203V31.3143H21.4453L27.5153 25.2443L33.5853 31.3143Z" fill="#E1E1E1"/>
</svg>
