<svg width="15" height="16" viewBox="0 0 15 16" fill="none" xmlns="http://www.w3.org/2000/svg">
<path d="M8.61133 1V1.625C10.8926 2.09375 12.6113 4.09375 12.6113 6.5V7.09375C12.6113 8.5625 13.1426 10 14.1113 11.0938L14.3301 11.3438C14.6113 11.6562 14.6738 12.0625 14.5176 12.4375C14.3613 12.7812 13.9863 13 13.6113 13H1.61133C1.20508 13 0.830078 12.7812 0.673828 12.4375C0.517578 12.0625 0.580078 11.6562 0.861328 11.3438L1.08008 11.0938C2.04883 10 2.61133 8.5625 2.61133 7.09375V6.5C2.61133 4.09375 4.29883 2.09375 6.61133 1.625V1C6.61133 0.46875 7.04883 0 7.61133 0C8.14258 0 8.61133 0.46875 8.61133 1ZM7.61133 16C7.08008 16 6.54883 15.8125 6.17383 15.4375C5.79883 15.0625 5.61133 14.5312 5.61133 14H9.61133C9.61133 14.5312 9.39258 15.0625 9.01758 15.4375C8.64258 15.8125 8.11133 16 7.61133 16Z" fill="#373737"/>
</svg>
