<svg width="17" height="17" viewBox="0 0 17 17" fill="none" xmlns="http://www.w3.org/2000/svg">
<path d="M11.4238 4.71875L15.8926 5.375C16.2676 5.4375 16.5801 5.6875 16.7051 6.0625C16.8301 6.40625 16.7363 6.8125 16.4551 7.0625L13.2051 10.2812L13.9863 14.8438C14.0488 15.2188 13.8926 15.5938 13.5801 15.8125C13.2676 16.0625 12.8613 16.0625 12.5176 15.9062L8.51758 13.75L4.48633 15.9062C4.17383 16.0625 3.73633 16.0625 3.45508 15.8125C3.14258 15.5938 2.98633 15.2188 3.04883 14.8438L3.79883 10.2812L0.548828 7.0625C0.267578 6.8125 0.173828 6.40625 0.298828 6.0625C0.423828 5.6875 0.736328 5.4375 1.11133 5.375L5.61133 4.71875L7.61133 0.5625C7.76758 0.21875 8.11133 0 8.51758 0C8.89258 0 9.23633 0.21875 9.39258 0.5625L11.4238 4.71875Z" fill="#373737"/>
</svg>
