<svg width="17" height="18" viewBox="0 0 17 18" fill="none" xmlns="http://www.w3.org/2000/svg">
<path d="M8.84375 6C10.5 6 11.8125 7.375 11.8125 9C11.8125 10.6562 10.5 12 8.84375 12C7.15625 12 5.84375 10.5938 5.84375 8.96875C5.84375 7.34375 7.15625 6 8.84375 6ZM16.75 11.8438C16.9375 12.1562 16.7812 12.5312 16.4375 12.5938L13.0312 13.2188L12.4062 16.625C12.3438 16.9688 11.9688 17.125 11.6875 16.9375L8.84375 14.9688L5.96875 16.9375C5.6875 17.125 5.3125 16.9688 5.25 16.625L4.625 13.2188L1.21875 12.5938C0.875 12.5312 0.71875 12.1562 0.90625 11.875L2.875 9L0.90625 6.15625C0.71875 5.875 0.875 5.5 1.21875 5.4375L4.625 4.8125L5.21875 1.40625C5.28125 1.0625 5.65625 0.90625 5.96875 1.09375L8.84375 3.0625L11.6875 1.0625C11.9688 0.875 12.3438 1.03125 12.4062 1.375L13.0312 4.78125L16.4375 5.40625C16.7812 5.46875 16.9375 5.84375 16.75 6.15625L14.7812 9L16.75 11.8438ZM8.84375 13C11.0312 13 12.8125 11.2188 12.8125 9C12.8125 6.84375 11 5.03125 8.84375 5.03125C6.65625 5.03125 4.84375 6.8125 4.84375 9C4.84375 11.1875 6.625 13 8.84375 13Z" fill="#373737"/>
</svg>