<svg width="19" height="18" viewBox="0 0 19 18" fill="none" xmlns="http://www.w3.org/2000/svg">
<path fill-rule="evenodd" clip-rule="evenodd" d="M18.0078 7.03125C17.9375 7.03125 17.9023 7.03125 17.832 6.96094L16.4961 5.94141V17.7539C16.4609 17.8945 16.3554 18 16.2148 18H2.82027C2.67965 18 2.53902 17.8945 2.53902 17.7539V5.90625L1.16793 6.96094C1.0273 7.06641 0.886678 7.03125 0.78121 6.92578C0.710897 6.82031 0.746053 6.64453 0.851522 6.57422L2.60933 5.20312C2.64449 5.16797 2.67965 5.16797 2.67965 5.13281L9.35933 0.0703125C9.42965 -0.0351562 9.57027 -0.0351562 9.64058 0.0703125C12.4882 2.25 15.3359 4.39453 18.1484 6.57422C18.289 6.67969 18.289 6.82031 18.1836 6.96094C18.1484 6.99609 18.0781 7.03125 18.0078 7.03125ZM8.23433 7.48828H6.37105C6.23043 7.48828 6.12496 7.34766 6.12496 7.20703V5.37891C6.12496 5.23828 6.23043 5.09766 6.37105 5.09766H8.23433C8.37496 5.09766 8.48043 5.23828 8.48043 5.37891V7.20703C8.48043 7.34766 8.37496 7.48828 8.23433 7.48828ZM6.6523 6.96094H7.95308V5.625H6.6523V6.96094ZM12.6289 7.48828H10.7656C10.625 7.48828 10.5195 7.34766 10.5195 7.20703V5.37891C10.5195 5.23828 10.625 5.09766 10.7656 5.09766H12.6289C12.7695 5.09766 12.875 5.23828 12.875 5.37891V7.20703C12.875 7.34766 12.7695 7.48828 12.6289 7.48828ZM11.0468 6.96094H12.3828V5.625H11.0468V6.96094ZM7.24996 13.1133C7.2148 13.1133 7.14449 13.0781 7.07418 13.043C7.00386 12.9375 7.00386 12.7617 7.07418 12.6562C7.70699 12.0234 8.62105 11.6719 9.53511 11.6719C10.4492 11.6719 11.2929 12.0234 11.9609 12.6562C12.0664 12.7617 12.0664 12.9375 11.9609 13.043C11.8554 13.1484 11.6796 13.1484 11.5742 13.043C11.0117 12.4805 10.3086 12.1641 9.49996 12.1641C8.72652 12.1641 7.98824 12.4805 7.42574 13.043C7.39058 13.0781 7.32027 13.1133 7.24996 13.1133ZM12.7695 12.0938C12.6992 12.0938 12.6289 12.0586 12.5937 12.0234C11.75 11.2148 10.6601 10.7578 9.49996 10.7578C8.3398 10.7578 7.24996 11.2148 6.44137 12.0234C6.3359 12.1289 6.16012 12.1289 6.05465 12.0234C5.94918 11.918 5.94918 11.7773 6.05465 11.6719C7.00386 10.7227 8.19918 10.2305 9.49996 10.2305C10.8007 10.2305 12.0312 10.7578 12.9453 11.6719C13.0507 11.7773 13.0507 11.918 12.9453 12.0234C12.875 12.0586 12.8398 12.0938 12.7695 12.0938ZM13.9296 10.9336C13.8593 10.9336 13.789 10.8984 13.7539 10.8633C12.6289 9.73828 11.1171 9.10547 9.49996 9.10547C7.91793 9.10547 6.40621 9.73828 5.24605 10.8633C5.14058 10.9688 4.99996 10.9688 4.89449 10.8633C4.78902 10.7578 4.78902 10.582 4.89449 10.4766C6.12496 9.24609 7.7773 8.57812 9.49996 8.57812C11.2578 8.57812 12.875 9.24609 14.1054 10.4766C14.2109 10.582 14.2109 10.7578 14.1054 10.8633C14.0703 10.8984 14 10.9336 13.9296 10.9336ZM9.49996 15.75C8.83199 15.75 8.26949 15.1875 8.26949 14.5195C8.26949 13.8516 8.83199 13.2891 9.49996 13.2891C10.2031 13.2891 10.7656 13.8516 10.7656 14.5195C10.7656 15.2227 10.2031 15.75 9.49996 15.75ZM9.49996 13.8164C9.11324 13.8164 8.79683 14.1328 8.79683 14.5195C8.79683 14.9414 9.11324 15.2578 9.49996 15.2578C9.92183 15.2578 10.2382 14.9414 10.2382 14.5195C10.2382 14.1328 9.92183 13.8164 9.49996 13.8164ZM2.53902 4.64062V1.30078C2.53902 1.16016 2.67965 1.05469 2.82027 1.05469H5.17574C5.31637 1.05469 5.42183 1.16016 5.42183 1.30078V2.42578L2.53902 4.64062Z" fill="#4AD991"/>
</svg>
