<svg width="16" height="12" viewBox="0 0 16 12" fill="none" xmlns="http://www.w3.org/2000/svg">
<path d="M14.7298 8.8125H1.27025C1.06269 5.93419 2.46388 3.237 4.7195 1.87181L5.19481 6.12488C5.20126 6.19966 5.22261 6.2724 5.25761 6.3388C5.29261 6.40521 5.34054 6.46394 5.39859 6.51153C5.45664 6.55912 5.52362 6.59462 5.5956 6.61592C5.66758 6.63722 5.74309 6.6439 5.81769 6.63557C5.89229 6.62723 5.96446 6.60405 6.02997 6.56739C6.09547 6.53073 6.15297 6.48132 6.19908 6.42209C6.24519 6.36287 6.27898 6.29501 6.29846 6.22251C6.31794 6.15002 6.32271 6.07437 6.3125 6L5.75337 0.99825C5.74527 0.920455 5.75355 0.841825 5.77767 0.767422C5.80179 0.693019 5.84123 0.624491 5.89344 0.56625C6.00369 0.44475 6.16119 0.375 6.32769 0.375H9.67231C9.83825 0.375 9.99631 0.44475 10.106 0.56625C10.1577 0.62291 10.197 0.689769 10.2213 0.762524C10.2456 0.835279 10.2544 0.91232 10.2472 0.988688L9.6875 6C9.67921 6.07341 9.6855 6.14773 9.70599 6.21871C9.72649 6.28968 9.76079 6.35591 9.80693 6.4136C9.85308 6.4713 9.91015 6.51931 9.97489 6.5549C10.0396 6.59049 10.1108 6.61295 10.1842 6.621C10.2576 6.62929 10.3319 6.623 10.4029 6.60251C10.4739 6.58201 10.5401 6.54771 10.5978 6.50157C10.6555 6.45542 10.7035 6.39835 10.7391 6.33361C10.7747 6.26887 10.7971 6.19775 10.8052 6.12431L11.2805 1.87125C13.5361 3.237 14.9373 5.93419 14.7298 8.8125ZM15.875 10.7812C15.875 11.2464 15.4964 11.625 15.0312 11.625H0.96875C0.503562 11.625 0.125 11.2464 0.125 10.7812C0.125 10.3161 0.503562 9.9375 0.96875 9.9375H15.0312C15.4964 9.9375 15.875 10.3161 15.875 10.7812Z" fill="#2A5EA4"/>
</svg>
