<svg width="15" height="16" viewBox="0 0 15 16" fill="none" xmlns="http://www.w3.org/2000/svg">
<path fill-rule="evenodd" clip-rule="evenodd" d="M8.46469 0.349721C7.87088 -0.00654765 7.12913 -0.00654765 6.53531 0.349721L1.53532 3.34972C1.44298 3.40513 1.3565 3.46779 1.27643 3.53673L7.5 7.2709L13.7236 3.53675C13.6435 3.4678 13.557 3.40513 13.4647 3.34972L8.46469 0.349721ZM14.3447 4.62177L8.125 8.35365V15.8099C8.242 15.7685 8.35581 15.7151 8.46469 15.6498L13.4647 12.6498C14.0294 12.311 14.375 11.7006 14.375 11.042V4.95752C14.375 4.84377 14.3647 4.73152 14.3447 4.62177ZM6.875 15.8099V8.35358L0.655269 4.62177C0.635306 4.73146 0.625 4.84377 0.625 4.95752V11.042C0.625 11.7006 0.970563 12.311 1.53532 12.6498L6.53531 15.6498C6.64419 15.7151 6.758 15.7685 6.875 15.8099Z" fill="#5233FF"/>
</svg>
