<svg width="14" height="16" viewBox="0 0 14 16" fill="none" xmlns="http://www.w3.org/2000/svg">
<path d="M13.5015 13.735L10.706 13.0837L10.1123 15.892L7.7226 12.2559C8.32303 12.1871 8.90726 12.034 9.46674 11.7974C10.2012 11.4868 10.8627 11.046 11.4347 10.4876L13.5015 13.735ZM2.60325 10.5481L0.474121 13.735L3.26961 13.0837L3.86332 15.892L6.25303 12.2559C5.6526 12.1871 5.06838 12.034 4.5089 11.7974C3.80113 11.4981 3.16083 11.0781 2.60325 10.5481ZM6.98784 11.7707C3.76211 11.7707 1.14715 9.15577 1.14715 5.93004C1.14715 2.70431 3.76211 0.0893555 6.98784 0.0893555C10.2136 0.0893555 12.8285 2.70431 12.8285 5.93004C12.8285 9.15577 10.2136 11.7707 6.98784 11.7707ZM5.31542 2.16952C5.44845 2.11024 5.50821 1.95439 5.44898 1.8214C5.38974 1.6884 5.23382 1.62846 5.10086 1.68784C3.83801 2.25038 2.89786 3.33396 2.52152 4.66072C2.48175 4.80082 2.56314 4.94661 2.7032 4.98634C2.72729 4.99316 2.75147 4.99643 2.77531 4.99643C2.89027 4.99643 2.99591 4.9207 3.02882 4.80465C3.36238 3.62875 4.19583 2.66828 5.31542 2.16952ZM8.4844 7.52209C9.49497 6.74109 10.0074 5.40625 10.0074 3.5546C10.0074 3.42182 9.90862 3.30974 9.77689 3.29304C9.74567 3.28907 9.00116 3.19706 8.07757 3.2949C6.82914 3.4272 5.85384 3.8502 5.25706 4.51813C4.58913 5.26573 4.37759 6.30431 4.62569 7.60847C5.07098 6.84881 5.88737 5.88033 7.37593 5.01896C7.502 4.94605 7.66326 4.98901 7.73621 5.11508C7.80916 5.24115 7.76613 5.40245 7.64009 5.47536C6.20027 6.30853 5.44166 7.24214 5.0457 7.94087C4.60171 8.68277 4.51716 9.22682 4.51094 9.27122C4.49062 9.41539 4.59102 9.54878 4.73527 9.56906C4.74694 9.57072 4.75854 9.57156 4.77004 9.57166C4.90033 9.57282 5.01448 9.47727 5.03311 9.34473C5.03445 9.33545 5.10469 8.88566 5.47904 8.24888C5.64364 8.26635 5.83569 8.27904 6.04632 8.27904C6.76389 8.27907 7.69588 8.13149 8.4844 7.52209ZM11.23 7.81705C11.2893 7.68402 11.2294 7.52814 11.0964 7.46893C10.9634 7.40959 10.8076 7.46946 10.7483 7.60249C10.2496 8.72211 9.28916 9.55553 8.11322 9.88906C7.97316 9.92882 7.89177 10.0746 7.9315 10.2147C7.96444 10.3308 8.07009 10.4065 8.18505 10.4065C8.20888 10.4065 8.23307 10.4032 8.25715 10.3964C9.58395 10.02 10.6675 9.0799 11.23 7.81705Z" fill="#07D734"/>
</svg>
