<svg width="211" height="179" viewBox="0 0 211 179" fill="none" xmlns="http://www.w3.org/2000/svg">
<g style="mix-blend-mode:overlay">
<g style="mix-blend-mode:overlay">
<path d="M-85.8759 -37.3237C-70.0759 27.0494 -28.8577 152.25 9.61516 138.068C57.7063 120.339 23.8351 46.0069 21.7176 42.6317M21.7176 42.6317C19.6002 39.2564 -12.8024 -23.16 -11.859 -48.5473L-51.0146 -47.1545C-35.2944 5.19201 3.83146 109.18 34.5727 106.361C51.7353 104.786 62.2984 98.1798 64.1339 83.0191M21.7176 42.6317C40.2428 82.6839 57.714 86.2451 64.1339 83.0191M64.1339 83.0191C65.5861 71.0243 63.8965 58.0054 61.6845 49.0706L64.1339 83.0191Z" stroke="white" stroke-width="2"/>
</g>
<g style="mix-blend-mode:overlay">
<path d="M-21.2053 -125.861C-5.40528 -61.4877 35.8129 63.713 74.2858 49.5305C122.377 31.8023 88.5057 -42.5302 86.3883 -45.9054M86.3883 -45.9054C84.2709 -49.2807 51.8682 -111.697 52.8116 -137.084L13.656 -135.692C29.3763 -83.3451 68.5021 20.6431 99.2433 17.8235C116.406 16.2494 126.969 9.64271 128.805 -5.518M86.3883 -45.9054C104.913 -5.85318 122.385 -2.29204 128.805 -5.518M128.805 -5.518C130.257 -17.5128 128.567 -30.5317 126.355 -39.4665L128.805 -5.518Z" stroke="white" stroke-width="2"/>
</g>
</g>
</svg>
