<svg width="211" height="214" viewBox="0 0 211 214" fill="none" xmlns="http://www.w3.org/2000/svg">
<g style="mix-blend-mode:overlay">
<g style="mix-blend-mode:overlay">
<path d="M266.832 246.179C187.47 234.243 31.9588 198.384 44.8065 150.43C60.8662 90.4861 154.233 123.109 158.537 125.289M158.537 125.289C162.841 127.469 241.678 159.639 272.184 155.695L274.832 203.059C209.98 189.891 80.2757 154.21 80.2775 116.834C80.2785 95.9664 87.0767 82.5001 105.153 78.6114M158.537 125.289C108.198 107.38 101.973 86.7085 105.153 78.6114M105.153 78.6114C119.455 75.5347 135.339 76.1329 146.356 77.8124L105.153 78.6114Z" stroke="white" stroke-width="2"/>
</g>
<g style="mix-blend-mode:overlay">
<path d="M366.435 158.419C287.073 146.484 131.561 110.625 144.409 62.6698C160.469 2.72637 253.836 35.3495 258.14 37.5294M258.14 37.5294C262.443 39.7094 341.281 71.8789 371.786 67.9354L374.435 115.3C309.582 102.131 179.878 66.4504 179.88 29.0737C179.881 8.20665 186.679 -5.25969 204.756 -9.14839M258.14 37.5294C207.801 19.6203 201.576 -1.05126 204.756 -9.14839M204.756 -9.14839C219.058 -12.225 234.941 -11.6268 245.959 -9.94737L204.756 -9.14839Z" stroke="white" stroke-width="2"/>
</g>
</g>
</svg>
