<svg width="32" height="32" viewBox="0 0 32 32" fill="none" xmlns="http://www.w3.org/2000/svg">
<path d="M16.265 20.0875C16.3088 20.0919 16.3542 20.0978 16.4006 20.1046V18.1412H15.4359V20.1049C15.4774 20.099 15.5181 20.0938 15.5574 20.0896C15.7928 20.0684 16.0295 20.0677 16.265 20.0875ZM23.1397 14.8087C23.1222 14.8273 23.1062 14.8473 23.0881 14.8655L22.4576 15.4975C24.0303 16.6821 25.1441 18.375 25.6095 20.2881C25.8662 20.1856 26.1358 20.1188 26.4108 20.0896C26.4504 20.0851 26.4986 20.0816 26.5511 20.0787C26.0463 17.9852 24.843 16.1264 23.1397 14.8087ZM6.22682 20.2884C6.69225 18.3754 7.80584 16.6828 9.37824 15.4981L8.74796 14.8673C8.72935 14.8489 8.71335 14.8287 8.69542 14.8097C6.99298 16.1273 5.79024 17.9857 5.2854 20.0785C5.33062 20.0806 5.37398 20.0835 5.41164 20.0875C5.69138 20.1162 5.96575 20.1839 6.22682 20.2884ZM2.66579 26.3827L1.99595 26.7017C1.73946 26.7881 0.556601 27.2417 0.483599 28.2621C0.482904 28.2734 0.482422 30.6777 0.482422 30.6777C0.482422 30.8056 0.533243 30.9283 0.623705 31.0188C0.714167 31.1093 0.83686 31.1601 0.964792 31.1601C1.09272 31.1601 1.21542 31.1093 1.30588 31.0188C1.39634 30.9283 1.44716 30.8056 1.44716 30.6777V28.3177C1.48532 27.9835 2.04988 27.6972 2.32003 27.6106C2.34148 27.6037 3.3154 27.1419 3.3154 27.1419C3.05729 26.9276 2.83761 26.6709 2.66579 26.3827ZM8.13346 26.7014L7.47136 26.3882C7.3004 26.6773 7.08016 26.9343 6.8206 27.1475C6.8206 27.1475 7.78886 27.604 7.81006 27.6106C8.07032 27.6923 8.6448 27.982 8.68272 28.3174V30.6777C8.68272 30.8056 8.73354 30.9283 8.824 31.0188C8.91446 31.1093 9.03716 31.1601 9.16509 31.1601C9.29302 31.1601 9.41572 31.1093 9.50618 31.0188C9.59664 30.9283 9.64746 30.8056 9.64746 30.6777C9.64746 30.6777 9.64698 28.2739 9.64627 28.2625C9.57421 27.241 8.38899 26.7874 8.13346 26.7014ZM7.16236 24.0199C7.25115 23.3724 7.35149 22.6385 6.86205 21.975C6.68652 21.7164 6.45705 21.4988 6.18943 21.3373C5.92181 21.1758 5.62239 21.0742 5.31176 21.0395C5.14323 21.0275 4.97404 21.0283 4.80562 21.0416C4.4971 21.0773 4.19994 21.1793 3.93445 21.3405C3.66897 21.5016 3.44142 21.7183 3.26736 21.9755C2.77815 22.6385 2.87871 23.3727 2.96752 24.0201C2.98001 24.1113 2.99247 24.2022 3.00309 24.2922C3.0681 24.8509 3.26643 26.5504 4.87698 26.8032C5.00698 26.8237 5.13946 26.8227 5.26915 26.8004C6.86394 26.5368 7.05496 24.9062 7.12678 24.2929C7.13739 24.2022 7.14986 24.111 7.16236 24.0199ZM24.3725 26.3827L23.7026 26.7017C23.4461 26.7881 22.2633 27.2417 22.1903 28.2621C22.1896 28.2734 22.1891 30.6777 22.1891 30.6777C22.1891 30.8056 22.2399 30.9283 22.3304 31.0188C22.4208 31.1093 22.5435 31.1601 22.6715 31.1601C22.7994 31.1601 22.9221 31.1093 23.0125 31.0188C23.103 30.9283 23.1538 30.8056 23.1538 30.6777V28.3177C23.192 27.9835 23.7565 27.6972 24.0267 27.6106C24.0481 27.6037 25.0221 27.1419 25.0221 27.1419C24.764 26.9276 24.5443 26.6709 24.3725 26.3827ZM31.3529 28.2625C31.2809 27.241 30.0957 26.7874 29.8401 26.7014L29.178 26.3882C29.0071 26.6773 28.7868 26.9343 28.5273 27.1475C28.5273 27.1475 29.4955 27.604 29.5167 27.6106C29.777 27.6923 30.3515 27.982 30.3894 28.3174V30.6777C30.3894 30.741 30.4019 30.8038 30.4261 30.8623C30.4503 30.9208 30.4859 30.974 30.5307 31.0188C30.5755 31.0636 30.6286 31.0991 30.6872 31.1233C30.7457 31.1476 30.8084 31.1601 30.8718 31.1601C30.9351 31.1601 30.9978 31.1476 31.0563 31.1233C31.1149 31.0991 31.168 31.0636 31.2128 31.0188C31.2576 30.974 31.2932 30.9208 31.3174 30.8623C31.3416 30.8038 31.3541 30.741 31.3541 30.6777C31.3541 30.6777 31.3536 28.2739 31.3529 28.2625ZM28.869 24.0199C28.9578 23.3724 29.0582 22.6385 28.5687 21.975C28.3932 21.7164 28.1637 21.4988 27.8961 21.3373C27.6285 21.1758 27.3291 21.0742 27.0184 21.0395C26.8499 21.0275 26.6807 21.0283 26.5123 21.0416C26.2038 21.0773 25.9066 21.1793 25.6411 21.3405C25.3756 21.5016 25.1481 21.7183 24.974 21.9755C24.4848 22.6385 24.5854 23.3727 24.6742 24.0201C24.6867 24.1113 24.6991 24.2022 24.7098 24.2922C24.7748 24.8509 24.9731 26.5504 26.5836 26.8032C26.7136 26.8237 26.8461 26.8227 26.9758 26.8004C28.5706 26.5368 28.7616 24.9062 28.8334 24.2929C28.8441 24.2022 28.8565 24.111 28.869 24.0199ZM13.5191 26.3827L12.8493 26.7017C12.5928 26.7881 11.4099 27.2417 11.3369 28.2621C11.3362 28.2734 11.3358 30.6777 11.3358 30.6777C11.3358 30.8056 11.3866 30.9283 11.477 31.0188C11.5675 31.1093 11.6902 31.1601 11.8181 31.1601C11.9461 31.1601 12.0688 31.1093 12.1592 31.0188C12.2497 30.9283 12.3005 30.8056 12.3005 30.6777V28.3177C12.3386 27.9835 12.9032 27.6972 13.1734 27.6106C13.1948 27.6037 14.1687 27.1419 14.1687 27.1419C13.9106 26.9276 13.6909 26.6709 13.5191 26.3827ZM18.9868 26.7014L18.3247 26.3882C18.1537 26.6773 17.9335 26.9343 17.6739 27.1475C17.6739 27.1475 18.6422 27.604 18.6634 27.6106C18.9237 27.6923 19.4981 27.982 19.5361 28.3174V30.6777C19.5361 30.8056 19.5869 30.9283 19.6773 31.0188C19.7678 31.1093 19.8905 31.1601 20.0184 31.1601C20.1464 31.1601 20.269 31.1093 20.3595 31.0188C20.45 30.9283 20.5008 30.8056 20.5008 30.6777C20.5008 30.6777 20.5003 28.2739 20.4996 28.2625C20.4275 27.241 19.2423 26.7874 18.9868 26.7014ZM18.0157 24.0199C18.1045 23.3724 18.2048 22.6385 17.7154 21.975C17.5398 21.7164 17.3104 21.4988 17.0428 21.3373C16.7751 21.1758 16.4757 21.0742 16.1651 21.0395C15.9966 21.0275 15.8274 21.0283 15.6589 21.0416C15.3504 21.0773 15.0533 21.1793 14.7878 21.3405C14.5223 21.5016 14.2947 21.7183 14.1207 21.9755C13.6315 22.6385 13.732 23.3727 13.8209 24.0201C13.8333 24.1113 13.8458 24.2022 13.8564 24.2922C13.9214 24.8509 14.1198 26.5504 15.7303 26.8032C15.8603 26.8237 15.9928 26.8227 16.1225 26.8004C17.7173 26.5368 17.9083 24.9062 17.9801 24.2929C17.9907 24.2022 18.0032 24.111 18.0157 24.0199ZM22.4036 12.1268L22.0544 11.7761C22.1909 11.501 22.3087 11.217 22.4069 10.9261H22.9046C23.2903 10.9258 23.6601 10.7726 23.9329 10.5C24.2057 10.2274 24.3592 9.85776 24.3598 9.47212V8.00239C24.3592 7.61675 24.2057 7.24709 23.9329 6.97451C23.6601 6.70193 23.2903 6.5487 22.9046 6.54845H22.4074C22.3094 6.25734 22.1915 5.97329 22.0546 5.69831L22.4074 5.34395C22.6773 5.06901 22.828 4.69889 22.827 4.31367C22.8261 3.92844 22.6735 3.55909 22.4022 3.28551L21.368 2.24915C21.0932 1.97925 20.7235 1.82798 20.3383 1.82788C19.9531 1.82777 19.5833 1.97883 19.3083 2.24858L18.9564 2.60035C18.6816 2.46444 18.3981 2.34692 18.1078 2.24858V1.75077C18.1073 1.36499 17.9538 0.995152 17.6809 0.722405C17.4081 0.449658 17.0382 0.296272 16.6524 0.295898L15.1829 0.295898C14.7971 0.296169 14.427 0.449498 14.1541 0.722246C13.8811 0.994995 13.7275 1.36489 13.7269 1.75077V2.2487C13.4365 2.34716 13.1529 2.46472 12.878 2.60059L12.5266 2.2487C12.2524 1.9796 11.8837 1.8286 11.4995 1.82803C11.1153 1.82746 10.7461 1.97736 10.4711 2.24564C10.4711 2.24564 9.4289 3.2887 9.42793 3.28952C9.1587 3.56398 9.00792 3.93313 9.00801 4.31759C9.0081 4.70206 9.15906 5.07113 9.42841 5.34547L9.78054 5.69772C9.64405 5.97306 9.52624 6.25728 9.42793 6.54845H8.93145C8.54589 6.5488 8.1762 6.70207 7.90349 6.97464C7.63079 7.24721 7.47733 7.61682 7.47679 8.00239V9.47212C7.47733 9.85769 7.63079 10.2273 7.90349 10.4999C8.1762 10.7724 8.54589 10.9257 8.93145 10.9261H9.42793C9.52621 11.2173 9.64402 11.5015 9.78054 11.7769L9.42817 12.1293C9.15867 12.4039 9.00778 12.7733 9.00795 13.1581C9.00813 13.5429 9.15937 13.9122 9.42911 14.1865L10.4683 15.2263C10.7426 15.4954 11.1115 15.6464 11.4958 15.6468C11.8801 15.6472 12.2493 15.4971 12.5242 15.2285L12.8783 14.874C13.153 15.01 13.4365 15.1275 13.7269 15.2259V15.7249C13.7276 16.1107 13.8813 16.4804 14.1543 16.753C14.4272 17.0256 14.7972 17.1787 15.1829 17.1789H16.6524C17.0381 17.1786 17.4079 17.0254 17.6807 16.7528C17.9536 16.4803 18.1071 16.1106 18.1078 15.7249V15.2262C18.3982 15.128 18.6817 15.0105 18.9564 14.8745L19.3085 15.2267C19.5831 15.4957 19.9521 15.6466 20.3366 15.647C20.721 15.6473 21.0904 15.4971 21.3654 15.2285C21.3654 15.2285 22.4053 14.1863 22.4069 14.1847C22.6766 13.9099 22.8274 13.5401 22.8268 13.155C22.8262 12.77 22.6742 12.4007 22.4036 12.1268ZM15.3285 4.63723C15.3285 4.5093 15.3793 4.38661 15.4698 4.29614C15.5602 4.20568 15.6829 4.15486 15.8109 4.15486C15.9388 4.15486 16.0615 4.20568 16.152 4.29614C16.2424 4.38661 16.2932 4.5093 16.2932 4.63723V5.12123C16.2932 5.24917 16.2424 5.37186 16.152 5.46232C16.0615 5.55278 15.9388 5.6036 15.8109 5.6036C15.6829 5.6036 15.5602 5.55278 15.4698 5.46232C15.3793 5.37186 15.3285 5.24917 15.3285 5.12123V4.63723ZM12.8714 6.81602C12.8046 6.92468 12.6977 7.00273 12.5739 7.03335C12.45 7.06397 12.3191 7.04471 12.2093 6.97972L11.8101 6.73877C11.7015 6.67225 11.6236 6.56546 11.5934 6.4417C11.5632 6.31795 11.5832 6.18728 11.649 6.07821C11.7148 5.96914 11.8211 5.89054 11.9447 5.85954C12.0682 5.82854 12.199 5.84768 12.3085 5.91276L12.7077 6.15371C12.762 6.18643 12.8093 6.22952 12.8469 6.28052C12.8845 6.33152 12.9116 6.38943 12.9268 6.45094C12.942 6.51245 12.945 6.57635 12.9355 6.639C12.926 6.70164 12.9042 6.76179 12.8714 6.81602ZM13.4925 4.6244C13.5471 4.59227 13.6075 4.57122 13.6703 4.56247C13.733 4.55371 13.7969 4.55741 13.8582 4.57336C13.9195 4.5893 13.9771 4.61719 14.0277 4.65541C14.0782 4.69363 14.1207 4.74144 14.1527 4.7961L14.4335 5.27423C14.4656 5.32885 14.4866 5.38926 14.4953 5.452C14.504 5.51474 14.5003 5.57858 14.4844 5.63988C14.4684 5.70119 14.4405 5.75875 14.4024 5.80929C14.3642 5.85982 14.3164 5.90234 14.2618 5.93441C14.1511 5.99785 14.0201 6.01541 13.8966 5.98331C13.7732 5.95122 13.6673 5.87202 13.6016 5.76272L13.3208 5.28459C13.2888 5.22997 13.2677 5.16956 13.259 5.10682C13.2503 5.04408 13.254 4.98024 13.2699 4.91893C13.2859 4.85763 13.3137 4.80006 13.3519 4.74953C13.3901 4.69899 13.4379 4.65647 13.4925 4.6244ZM18.2726 10.7712C17.8473 11.6204 17.1157 12.2347 16.8611 13.1821C16.8343 13.2853 16.7757 13.3775 16.6935 13.4455C16.6114 13.5136 16.5099 13.554 16.4035 13.5611H15.4701C15.3637 13.5539 15.2623 13.5134 15.1803 13.4454C15.0982 13.3774 15.0396 13.2853 15.0129 13.1821C14.6516 11.8373 13.2652 10.9975 13.2652 9.50885C13.2547 8.80315 13.525 8.12217 14.0165 7.61566C14.508 7.10916 15.1805 6.81861 15.8862 6.8079H15.9875C17.9834 6.8079 19.1571 9.01189 18.2726 10.7712ZM18.5157 5.28447L18.2352 5.7626C18.2031 5.81722 18.1606 5.865 18.1101 5.9032C18.0596 5.94139 18.002 5.96927 17.9407 5.98522C17.8794 6.00118 17.8156 6.0049 17.7529 5.99619C17.6901 5.98747 17.6297 5.96649 17.5751 5.93443C17.5205 5.90237 17.4727 5.85987 17.4345 5.80935C17.3963 5.75882 17.3685 5.70127 17.3525 5.63998C17.3365 5.57869 17.3328 5.51485 17.3415 5.45212C17.3502 5.38938 17.3712 5.32898 17.4033 5.27436L17.6838 4.79623C17.7159 4.74161 17.7584 4.69383 17.8089 4.65564C17.8594 4.61744 17.917 4.58957 17.9783 4.57362C18.0396 4.55766 18.1034 4.55394 18.1661 4.56265C18.2289 4.57137 18.2893 4.59235 18.3439 4.62441C18.3985 4.65647 18.4463 4.69898 18.4845 4.7495C18.5227 4.80002 18.5506 4.85757 18.5665 4.91887C18.5825 4.98016 18.5862 5.04399 18.5775 5.10673C18.5688 5.16946 18.5478 5.22984 18.5157 5.28447ZM20.0264 6.73876L19.6272 6.97971C19.5173 7.04445 19.3865 7.06356 19.2627 7.03296C19.139 7.00236 19.0321 6.92448 18.9651 6.81601C18.9323 6.76178 18.9106 6.70163 18.9011 6.63899C18.8916 6.57634 18.8945 6.51244 18.9097 6.45093C18.9249 6.38942 18.9521 6.33151 18.9897 6.28051C19.0273 6.22951 19.0745 6.18642 19.1288 6.1537L19.528 5.91275C19.6375 5.84766 19.7683 5.82853 19.8919 5.85953C20.0154 5.89052 20.1217 5.96913 20.1875 6.0782C20.2533 6.18727 20.2733 6.31794 20.2431 6.44169C20.213 6.56544 20.1351 6.67224 20.0264 6.73876ZM5.80827 27.6644C5.68277 27.7009 5.5553 27.7302 5.42648 27.7521C5.30583 27.7723 5.18372 27.7825 5.0614 27.7825C4.94788 27.7826 4.83454 27.7736 4.72247 27.7554C4.58486 27.734 4.44875 27.7038 4.315 27.665L3.87738 29.2344C3.85451 29.3359 3.85833 29.4416 3.88846 29.5412C3.91859 29.6408 3.97401 29.7309 4.04932 29.8027L4.95989 30.6615C4.99417 30.6764 5.03117 30.6841 5.06858 30.6841C5.10599 30.6841 5.14299 30.6764 5.17727 30.6615L6.0876 29.8027C6.1621 29.7337 6.21637 29.6457 6.24455 29.5482C6.27273 29.4507 6.27376 29.3473 6.24753 29.2492L5.80827 27.6644ZM27.5149 27.6644C27.3894 27.7009 27.262 27.7302 27.1331 27.7521C27.0125 27.7723 26.8904 27.7825 26.7681 27.7825C26.6545 27.7826 26.5412 27.7736 26.4291 27.7554C26.2915 27.734 26.1554 27.7038 26.0217 27.665L25.584 29.2344C25.5612 29.3359 25.565 29.4416 25.5951 29.5412C25.6253 29.6408 25.6807 29.7309 25.756 29.8027L26.6666 30.6615C26.7008 30.6764 26.7378 30.6841 26.7752 30.6841C26.8127 30.6841 26.8497 30.6764 26.8839 30.6615L27.7943 29.8027C27.8688 29.7337 27.923 29.6457 27.9512 29.5482C27.9794 29.4507 27.9804 29.3473 27.9542 29.2492L27.5149 27.6644ZM16.6616 27.6644C16.5361 27.7009 16.4086 27.7302 16.2798 27.7521C16.1592 27.7723 16.0371 27.7825 15.9147 27.7825C15.8012 27.7826 15.6879 27.7736 15.5758 27.7554C15.4382 27.734 15.3021 27.7038 15.1683 27.665L14.7307 29.2344C14.7078 29.3359 14.7117 29.4416 14.7418 29.5412C14.7719 29.6408 14.8273 29.7309 14.9027 29.8027L15.8132 30.6615C15.8475 30.6764 15.8845 30.6841 15.9219 30.6841C15.9593 30.6841 15.9963 30.6764 16.0306 30.6615L16.9409 29.8027C17.0154 29.7337 17.0697 29.6457 17.0979 29.5482C17.1261 29.4507 17.1271 29.3473 17.1009 29.2492L16.6616 27.6644Z" fill="#149DEB"/>
</svg>
