<svg width="18" height="22" viewBox="0 0 18 22" fill="none" xmlns="http://www.w3.org/2000/svg">
<path d="M11 9.99951H5M7 13.9995H5M13 5.99951H5M17 5.79951V16.1995C17 17.8797 17 18.7197 16.673 19.3615C16.3854 19.926 15.9265 20.3849 15.362 20.6725C14.7202 20.9995 13.8802 20.9995 12.2 20.9995H5.8C4.11984 20.9995 3.27976 20.9995 2.63803 20.6725C2.07354 20.3849 1.6146 19.926 1.32698 19.3615C1 18.7197 1 17.8797 1 16.1995V5.79951C1 4.11935 1 3.27928 1.32698 2.63754C1.6146 2.07305 2.07354 1.61411 2.63803 1.32649C3.27976 0.999512 4.11984 0.999512 5.8 0.999512H12.2C13.8802 0.999512 14.7202 0.999512 15.362 1.32649C15.9265 1.61411 16.3854 2.07305 16.673 2.63754C17 3.27928 17 4.11935 17 5.79951Z" stroke="#575757" stroke-width="2" stroke-linecap="round" stroke-linejoin="round"/>
</svg>
