<svg width="15" height="16" viewBox="0 0 15 16" fill="none" xmlns="http://www.w3.org/2000/svg">
<path d="M8.86816 1V1.625C11.1494 2.09375 12.8682 4.09375 12.8682 6.5V7.09375C12.8682 8.5625 13.3994 10 14.3682 11.0938L14.5869 11.3438C14.8682 11.6562 14.9307 12.0625 14.7744 12.4375C14.6182 12.7812 14.2432 13 13.8682 13H1.86816C1.46191 13 1.08691 12.7812 0.930664 12.4375C0.774414 12.0625 0.836914 11.6562 1.11816 11.3438L1.33691 11.0938C2.30566 10 2.86816 8.5625 2.86816 7.09375V6.5C2.86816 4.09375 4.55566 2.09375 6.86816 1.625V1C6.86816 0.46875 7.30566 0 7.86816 0C8.39941 0 8.86816 0.46875 8.86816 1ZM7.86816 16C7.33691 16 6.80566 15.8125 6.43066 15.4375C6.05566 15.0625 5.86816 14.5312 5.86816 14H9.86816C9.86816 14.5312 9.64941 15.0625 9.27441 15.4375C8.89941 15.8125 8.36816 16 7.86816 16Z" fill="#272425"/>
</svg>
