<svg width="22" height="22" viewBox="0 0 22 22" fill="none" xmlns="http://www.w3.org/2000/svg">
<path d="M10 3.99951V4.99951M13 3.99951V4.99951" stroke="#575757" stroke-width="2" stroke-linecap="round" stroke-linejoin="round"/>
<path d="M10 15.9995V17.9995M13 15.9995V17.9995" stroke="#575757" stroke-width="2" stroke-linecap="round" stroke-linejoin="round"/>
<path d="M11.3355 15.9995C10.2386 15.9995 9.29074 15.7716 8.49201 15.3158C7.70394 14.8499 7.09159 14.2067 6.65495 13.3863C6.21832 12.5557 6 11.5934 6 10.4995C6 9.41572 6.21832 8.4636 6.65495 7.64316C7.09159 6.81259 7.70394 6.16434 8.49201 5.69841C9.29074 5.23248 10.2386 4.99951 11.3355 4.99951C12.6134 4.99951 13.6518 5.29325 14.4505 5.88073C15.2599 6.45808 15.7764 7.26839 16 8.31167H14.5144C14.344 7.65329 13.9925 7.12658 13.4601 6.73156C12.9382 6.3264 12.23 6.12382 11.3355 6.12382C10.5367 6.12382 9.83919 6.30108 9.24281 6.65559C8.64643 6.99997 8.18317 7.50135 7.85304 8.15973C7.53355 8.80798 7.3738 9.58791 7.3738 10.4995C7.3738 11.4111 7.53355 12.1961 7.85304 12.8545C8.18317 13.5027 8.64643 14.0041 9.24281 14.3586C9.83919 14.703 10.5367 14.8752 11.3355 14.8752C12.23 14.8752 12.9382 14.6828 13.4601 14.2979C13.9925 13.9028 14.344 13.3812 14.5144 12.7329H16C15.7764 13.756 15.2599 14.5561 14.4505 15.1335C13.6518 15.7108 12.6134 15.9995 11.3355 15.9995Z" fill="#575757" stroke="#575757" stroke-width="0.4"/>
<rect x="0.8" y="0.799512" width="20.4" height="20.4" rx="4.2" stroke="#575757" stroke-width="1.6"/>
</svg>
