<svg width="16" height="16" viewBox="0 0 16 16" fill="none" xmlns="http://www.w3.org/2000/svg">
<path d="M14.3524 12.2352V7.99991C14.3524 4.49125 11.5081 1.64697 7.99943 1.64697C4.49077 1.64697 1.64648 4.49125 1.64648 7.99991V12.2352M3.41119 14.3529C2.43657 14.3529 1.64648 13.5628 1.64648 12.5881V11.1764C1.64648 10.2018 2.43657 9.41168 3.41119 9.41168C4.3858 9.41168 5.1759 10.2018 5.1759 11.1764V12.5881C5.1759 13.5628 4.3858 14.3529 3.41119 14.3529ZM12.5877 14.3529C11.613 14.3529 10.823 13.5628 10.823 12.5881V11.1764C10.823 10.2018 11.613 9.41168 12.5877 9.41168C13.5623 9.41168 14.3524 10.2018 14.3524 11.1764V12.5881C14.3524 13.5628 13.5623 14.3529 12.5877 14.3529Z" stroke="#575757" stroke-width="2" stroke-linecap="round" stroke-linejoin="round"/>
</svg>
