<svg width="57" height="58" viewBox="0 0 57 58" fill="none" xmlns="http://www.w3.org/2000/svg">
<g clip-path="url(#clip0_285_20731)">
<path d="M44.8863 16.6727C44.8863 12.3264 43.1598 8.1582 40.0865 5.08494C37.0133 2.01169 32.8451 0.285156 28.4988 0.285156C24.1526 0.285156 19.9844 2.01169 16.9111 5.08494C13.8379 8.1582 12.1113 12.3264 12.1113 16.6727C12.1113 25.7214 28.4988 48.6016 28.4988 48.6016C28.4988 48.6016 44.8863 25.7214 44.8863 16.6727ZM17.8113 16.6727C17.8113 14.5589 18.4381 12.4925 19.6125 10.735C20.7869 8.97745 22.456 7.60761 24.4089 6.79869C26.3618 5.98978 28.5107 5.77813 30.5839 6.19051C32.657 6.60289 34.5614 7.62078 36.056 9.11545C37.5507 10.6101 38.5686 12.5145 38.981 14.5876C39.3933 16.6608 39.1817 18.8097 38.3728 20.7626C37.5639 22.7155 36.194 24.3846 34.4365 25.559C32.6789 26.7333 30.6126 27.3602 28.4988 27.3602C25.6643 27.3602 22.9459 26.2342 20.9416 24.2299C18.9373 22.2256 17.8113 19.5072 17.8113 16.6727Z" fill="#139EEC"/>
<path d="M36.7473 38.5753C35.5182 40.5792 34.3248 42.4317 33.2738 44.017C37.727 44.6227 40.8441 46.0477 40.8441 47.722C40.8441 49.9308 35.3223 51.7298 28.5001 51.7298C21.6779 51.7298 16.156 49.9486 16.156 47.722C16.156 46.0387 19.291 44.6137 23.7352 44.017C22.6843 42.4317 21.4909 40.5703 20.2618 38.5664C9.48523 39.7866 1.70117 43.4025 1.70117 47.6864C1.70117 52.9856 13.6979 57.2784 28.5001 57.2784C43.3023 57.2784 55.299 52.9856 55.299 47.6864C55.299 43.4025 47.5149 39.7866 36.7473 38.5753Z" fill="#139EEC"/>
</g>
<defs>
<clipPath id="clip0_285_20731">
<rect width="57" height="57" fill="white" transform="translate(0 0.277344)"/>
</clipPath>
</defs>
</svg>
