<svg width="60" height="61" viewBox="0 0 60 61" fill="none" xmlns="http://www.w3.org/2000/svg">
<path d="M55.167 17.6643L48.0293 22.8008L50.2197 25.8446L57.3574 20.7081L55.167 17.6643Z" fill="#139EEC"/>
<path d="M35.042 32.0955L33.4648 33.2422L35.6701 36.2752L37.2473 35.1285L35.042 32.0955Z" fill="#139EEC"/>
<path d="M24.949 32.1048L22.7422 35.1367L23.9853 36.0415L26.1921 33.0096L24.949 32.1048Z" fill="#139EEC"/>
<path d="M4.8479 17.6379L2.66016 20.6836L10.518 26.328L12.7058 23.2823L4.8479 17.6379Z" fill="#139EEC"/>
<path d="M55.7613 55.2352L52.9863 57.7477L36.3926 39.4664L29.9988 32.4164L23.6051 39.4664L7.01133 57.7477L4.23633 55.2352L18.5426 39.4664L23.8488 33.6164L27.4676 29.6227L29.9988 26.8477L32.5301 29.6227L36.1488 33.6164L41.4551 39.4664L55.7613 55.2352Z" fill="#139EEC"/>
<path d="M45.5063 10.8727H14.4937L30 2.00391L45.5063 10.8727ZM28.6313 7.12266H31.3687L30 6.33516L28.6313 7.12266ZM51.2438 58.5539H8.75625C6.93123 58.5539 5.18096 57.8289 3.89047 56.5384C2.59999 55.2479 1.875 53.4977 1.875 51.6727V18.0914L13.4812 11.5289V23.9227L23.5875 31.1789L30 24.0539L36.4125 31.1039L47.2313 23.3414V11.8477L58.125 18.0914V51.6727C58.125 52.5763 57.947 53.4711 57.6012 54.306C57.2554 55.1409 56.7485 55.8994 56.1095 56.5384C55.4705 57.1774 54.712 57.6843 53.8771 58.0301C53.0422 58.3759 52.1474 58.5539 51.2438 58.5539ZM5.625 20.2664V51.6727C5.625 52.5031 5.9549 53.2996 6.54212 53.8868C7.12935 54.474 7.92579 54.8039 8.75625 54.8039H51.2438C52.0742 54.8039 52.8707 54.474 53.4579 53.8868C54.0451 53.2996 54.375 52.5031 54.375 51.6727V20.2664L50.9813 18.3914V25.3477L35.8875 36.1852L30 29.6227L24.1125 36.1102L9.73125 25.7789V17.9227L5.625 20.2664Z" fill="#139EEC"/>
<path d="M37.8574 17.9219H22.8574C21.8219 17.9219 20.9824 18.7613 20.9824 19.7969C20.9824 20.8324 21.8219 21.6719 22.8574 21.6719H37.8574C38.893 21.6719 39.7324 20.8324 39.7324 19.7969C39.7324 18.7613 38.893 17.9219 37.8574 17.9219Z" fill="#139EEC"/>
<path d="M24.1137 36.1125L9.73242 25.7812V7.03125H50.9824V25.1813L35.8887 36.0187L30.0012 29.625L24.1137 36.1125ZM30.0012 24.0562L36.4137 31.1063L47.2324 23.3438V10.875H13.4824V23.8687L23.5887 31.125L30.0012 24.0562Z" fill="#139EEC"/>
</svg>
