<svg width="20" height="18" viewBox="0 0 20 18" fill="none" xmlns="http://www.w3.org/2000/svg">
<path d="M16 6.99951C16.9319 6.99951 17.3978 6.99951 17.7654 6.84727C18.2554 6.64428 18.6448 6.25493 18.8478 5.76488C19 5.39734 19 4.93139 19 3.99951C19 3.06763 19 2.60169 18.8478 2.23415C18.6448 1.74409 18.2554 1.35474 17.7654 1.15175C17.3978 0.999512 16.9319 0.999512 16 0.999512L8 0.999512C7.06812 0.999512 6.60218 0.999512 6.23463 1.15175C5.74458 1.35474 5.35523 1.74409 5.15224 2.23414C5 2.60169 5 3.06763 5 3.99951C5 4.93139 5 5.39734 5.15224 5.76488C5.35523 6.25493 5.74458 6.64428 6.23463 6.84727C6.60218 6.99951 7.06812 6.99951 8 6.99951L16 6.99951Z" stroke="#575757" stroke-width="2" stroke-linecap="round" stroke-linejoin="round"/>
<path d="M16 16.9995C16.9319 16.9995 17.3978 16.9995 17.7654 16.8473C18.2554 16.6443 18.6448 16.2549 18.8478 15.7649C19 15.3973 19 14.9314 19 13.9995C19 13.0676 19 12.6017 18.8478 12.2341C18.6448 11.7441 18.2554 11.3547 17.7654 11.1518C17.3978 10.9995 16.9319 10.9995 16 10.9995H4C3.06812 10.9995 2.60218 10.9995 2.23463 11.1518C1.74458 11.3547 1.35523 11.7441 1.15224 12.2341C1 12.6017 1 13.0676 1 13.9995C1 14.9314 1 15.3973 1.15224 15.7649C1.35523 16.2549 1.74458 16.6443 2.23463 16.8473C2.60218 16.9995 3.06812 16.9995 4 16.9995L16 16.9995Z" stroke="#575757" stroke-width="2" stroke-linecap="round" stroke-linejoin="round"/>
</svg>
