<svg width="24" height="24" viewBox="0 0 24 24" fill="none" xmlns="http://www.w3.org/2000/svg">
<path d="M5 16.9995H4C3.46957 16.9995 2.96086 16.7888 2.58579 16.4137C2.21071 16.0387 2 15.5299 2 14.9995V4.99951C2 4.46908 2.21071 3.96037 2.58579 3.5853C2.96086 3.21023 3.46957 2.99951 4 2.99951H20C20.5304 2.99951 21.0391 3.21023 21.4142 3.5853C21.7893 3.96037 22 4.46908 22 4.99951V14.9995C22 15.5299 21.7893 16.0387 21.4142 16.4137C21.0391 16.7888 20.5304 16.9995 20 16.9995H19" stroke="#575757" stroke-width="2" stroke-linecap="round" stroke-linejoin="round"/>
<path d="M12 14.9995L17 20.9995H7L12 14.9995Z" stroke="#575757" stroke-width="2" stroke-linecap="round" stroke-linejoin="round"/>
</svg>
