<svg width="22" height="20" viewBox="0 0 22 20" fill="none" xmlns="http://www.w3.org/2000/svg">
<path d="M21 15.4995L20.3083 5.46926C20.1997 3.89455 20.1454 3.10719 19.8041 2.51033C19.5036 1.98484 19.0512 1.56255 18.5062 1.29893C17.8873 0.999512 17.0981 0.999512 15.5196 0.999512H6.48037C4.90191 0.999512 4.11268 0.999512 3.49376 1.29893C2.94884 1.56255 2.49642 1.98484 2.19594 2.51033C1.85464 3.10719 1.80034 3.89455 1.69174 5.46926L1 15.4995M21 15.4995C21 17.4325 19.433 18.9995 17.5 18.9995H4.5C2.567 18.9995 1 17.4325 1 15.4995M21 15.4995C21 13.5665 19.433 11.9995 17.5 11.9995H4.5C2.567 11.9995 1 13.5665 1 15.4995M5 15.4995H5.01M11 15.4995H17" stroke="#575757" stroke-width="2" stroke-linecap="round" stroke-linejoin="round"/>
</svg>
