<svg width="32" height="32" viewBox="0 0 32 32" fill="none" xmlns="http://www.w3.org/2000/svg">
<g clip-path="url(#clip0_1619_9304)">
<path d="M30.4435 15.4036C29.7026 14.6627 28.5294 14.6627 27.8503 15.4036L26.9858 16.2063L22.1081 21.084V6.14208C22.1081 5.15419 21.3055 4.35153 20.3176 4.35153H19.5766V2.93143C19.5766 1.94353 18.774 1.14087 17.7861 1.14087H4.88171C4.75822 1.14087 4.63473 1.20261 4.51124 1.26436L0.930127 4.84547C0.868384 4.90722 0.868384 4.90722 0.806641 4.96896V5.0307C0.806641 5.09245 0.806641 5.09245 0.806641 5.15419V25.7765C0.806641 26.2704 0.991871 26.7026 1.36233 27.0731C1.73279 27.3818 2.165 27.567 2.65894 27.567H3.33812V28.9254C3.33812 29.4193 3.52335 29.8515 3.89381 30.222C4.14078 30.5925 4.57299 30.7777 5.06694 30.7777H20.2558C21.2437 30.7777 22.0464 29.975 22.0464 28.9871V26.3322L29.5791 18.7995L30.3817 17.9968C30.7522 17.6264 30.9374 17.1942 30.9374 16.7002C30.9374 16.2063 30.7522 15.7123 30.4435 15.4036ZM3.39986 8.05613C3.33812 8.11787 3.33812 8.17962 3.33812 8.17962V8.24136V8.3031V8.36485V26.6409H2.5972C2.35023 26.6409 2.10325 26.5174 1.97977 26.3939C1.79454 26.2087 1.73279 26.0235 1.73279 25.7765V5.64814H4.88171C5.12868 5.64814 5.37565 5.46291 5.37565 5.15419V2.06702H17.8478C18.3418 2.06702 18.7122 2.43748 18.7122 2.93143V4.28978H7.35144C7.2897 4.28978 7.22795 4.28978 7.22795 4.28978C7.16621 4.28978 7.10447 4.35153 7.10447 4.41327L3.39986 8.05613ZM6.91924 5.89511V7.93264H4.88171L6.91924 5.89511ZM4.94345 21.6397C4.94345 21.3927 5.12868 21.1457 5.4374 21.1457H5.93134V12.9956H5.37565C5.19042 12.9956 5.00519 12.8721 4.94345 12.6869C4.88171 12.5017 4.94345 12.3164 5.12868 12.1929L12.4144 6.57429C12.5996 6.4508 12.7849 6.4508 12.9701 6.57429L20.2558 12.1929C20.441 12.3164 20.5028 12.5017 20.441 12.6869C20.3793 12.8721 20.1941 12.9956 20.0088 12.9956H19.5149V21.2075H20.0088C20.2558 21.2075 20.5028 21.3927 20.5028 21.7014C20.5028 21.9484 20.3176 22.1954 20.0088 22.1954H5.37565C5.12868 22.0719 4.94345 21.8867 4.94345 21.6397ZM14.8841 28.6167H5.93134C5.68437 28.6167 5.4374 28.4315 5.4374 28.1227C5.4374 27.8758 5.62263 27.6288 5.93134 27.6288H14.9459C15.1929 27.6288 15.4398 27.814 15.4398 28.1227C15.3781 28.3697 15.1311 28.6167 14.8841 28.6167ZM14.8841 26.7026H5.93134C5.68437 26.7026 5.4374 26.5174 5.4374 26.2087C5.4374 25.9617 5.62263 25.7147 5.93134 25.7147H14.9459C15.1929 25.7147 15.4398 25.9 15.4398 26.2087C15.3781 26.4557 15.1311 26.7026 14.8841 26.7026ZM14.8841 24.7886H5.93134C5.68437 24.7886 5.4374 24.6034 5.4374 24.2946C5.4374 24.0477 5.62263 23.8007 5.93134 23.8007H14.9459C15.1929 23.8007 15.4398 23.9859 15.4398 24.2946C15.3781 24.5416 15.1311 24.7886 14.8841 24.7886ZM18.527 27.2583L19.2062 25.5913L20.1941 26.5791L18.527 27.2583ZM20.9967 26.0852L19.7001 24.7886L21.9229 22.5658L27.2946 17.1942L28.5912 18.4908L20.9967 26.0852Z" fill="#149DEB"/>
<path d="M18.5892 12.9958H16.8604V21.2077H18.5892V12.9958Z" fill="#149DEB"/>
<path d="M9.4502 12.9958V21.2077H15.9333V12.9958H9.4502ZM12.6609 16.6387C13.587 16.6387 14.3897 17.3796 14.3897 18.3675C14.3897 19.1702 13.834 19.7876 13.1548 20.0346V20.2198C13.1548 20.4668 12.9696 20.7138 12.6609 20.7138C12.4139 20.7138 12.1669 20.5285 12.1669 20.2198V20.0346C11.426 19.8494 10.932 19.1702 10.932 18.3675C10.932 18.1206 11.1173 17.8736 11.426 17.8736C11.673 17.8736 11.9199 18.0588 11.9199 18.3675C11.9199 18.7997 12.2904 19.1702 12.7226 19.1702C13.1548 19.1702 13.5253 18.7997 13.5253 18.3675C13.5253 17.9353 13.1548 17.5649 12.7226 17.5649C11.7964 17.5649 10.9938 16.8239 10.9938 15.836C10.9938 15.0334 11.5495 14.4159 12.2286 14.169V13.9837C12.2286 13.7368 12.4139 13.4898 12.7226 13.4898C12.9696 13.4898 13.2165 13.675 13.2165 13.9837V14.169C13.9575 14.3542 14.4514 15.0334 14.4514 15.836C14.4514 16.083 14.2662 16.33 13.9575 16.33C13.7105 16.33 13.4635 16.1448 13.4635 15.836C13.4635 15.4038 13.0931 15.0334 12.6609 15.0334C12.2286 15.0334 11.8582 15.4038 11.8582 15.836C11.9199 16.2682 12.2286 16.6387 12.6609 16.6387Z" fill="#149DEB"/>
<path d="M8.52569 12.9958H6.79688V21.2077H8.52569V12.9958Z" fill="#149DEB"/>
<path d="M12.6613 7.43872L6.73389 12.0077H18.5886L12.6613 7.43872ZM12.6613 11.5755C11.8586 11.5755 11.2412 10.9581 11.2412 10.1554C11.2412 9.35277 11.9203 8.73533 12.6613 8.73533C13.4639 8.73533 14.0814 9.35277 14.0814 10.1554C14.0814 10.9581 13.4639 11.5755 12.6613 11.5755Z" fill="#149DEB"/>
<path d="M13.2179 10.1553C13.2179 10.4023 12.9709 10.6493 12.7239 10.6493C12.4152 10.6493 12.23 10.4023 12.23 10.1553C12.23 9.84661 12.477 9.66138 12.7239 9.66138C12.9709 9.66138 13.2179 9.84661 13.2179 10.1553Z" fill="#149DEB"/>
</g>
<defs>
<clipPath id="clip0_1619_9304">
<rect width="30.8717" height="30.8717" fill="white" transform="translate(0.435547 0.524414)"/>
</clipPath>
</defs>
</svg>
