<svg width="17" height="16" viewBox="0 0 17 16" fill="none" xmlns="http://www.w3.org/2000/svg">
<g clip-path="url(#clip0_1619_6668)">
<path d="M14.3708 3.85103L11.0907 0.603066C11.0907 0.603066 10.9942 0.506592 10.8656 0.506592H3.59784C2.89037 0.506592 2.31152 1.08544 2.31152 1.79291V14.6561C2.31152 15.3636 2.89037 15.9424 3.59784 15.9424H13.1488C13.8563 15.9424 14.4351 15.3636 14.4351 14.6561V4.10829C14.4673 4.07613 14.4673 3.9475 14.3708 3.85103ZM13.3417 3.78671H11.8303C11.4766 3.78671 11.1871 3.49729 11.1871 3.14355V1.59996L13.3417 3.78671ZM13.8241 14.6561C13.8241 15.0099 13.5347 15.2993 13.1809 15.2993H3.59784C3.24411 15.2993 2.95468 15.0099 2.95468 14.6561V1.79291C2.95468 1.43917 3.24411 1.14975 3.59784 1.14975H10.5118V3.14355C10.5118 3.85103 11.0907 4.42987 11.7981 4.42987H13.7919V14.6561H13.8241Z" fill="#149CEA"/>
<path d="M4.94853 7.90274H8.06786C8.26081 7.90274 8.38944 7.77411 8.38944 7.58116V4.17241C8.38944 3.97946 8.26081 3.85083 8.06786 3.85083H4.94853C4.75559 3.85083 4.62695 3.97946 4.62695 4.17241V7.58116C4.62695 7.74195 4.78774 7.90274 4.94853 7.90274ZM5.27011 4.49399H7.74628V7.25958H5.27011V4.49399ZM9.22555 6.19837C9.22555 6.39131 9.35418 6.51995 9.54713 6.51995H12.6665C12.8594 6.51995 12.988 6.39131 12.988 6.19837C12.988 6.00542 12.8594 5.87679 12.6665 5.87679H9.54713C9.35418 5.87679 9.22555 6.00542 9.22555 6.19837ZM12.6665 7.77411H9.54713C9.35418 7.77411 9.22555 7.90274 9.22555 8.09569C9.22555 8.28864 9.35418 8.41727 9.54713 8.41727H12.6665C12.8594 8.41727 12.988 8.28864 12.988 8.09569C12.988 7.90274 12.8272 7.77411 12.6665 7.77411ZM12.6665 9.63927H4.94853C4.75559 9.63927 4.62695 9.76791 4.62695 9.96085C4.62695 10.1538 4.75559 10.2824 4.94853 10.2824H12.6665C12.8594 10.2824 12.988 10.1538 12.988 9.96085C12.988 9.76791 12.8272 9.63927 12.6665 9.63927ZM12.6665 11.5366H4.94853C4.75559 11.5366 4.62695 11.6652 4.62695 11.8582C4.62695 12.0511 4.75559 12.1798 4.94853 12.1798H12.6665C12.8594 12.1798 12.988 12.0511 12.988 11.8582C12.988 11.6652 12.8272 11.5366 12.6665 11.5366ZM12.6665 13.4018H4.94853C4.75559 13.4018 4.62695 13.5304 4.62695 13.7233C4.62695 13.9163 4.75559 14.0449 4.94853 14.0449H12.6665C12.8594 14.0449 12.988 13.9163 12.988 13.7233C12.988 13.5304 12.8272 13.4018 12.6665 13.4018Z" fill="#149CEA"/>
</g>
<defs>
<clipPath id="clip0_1619_6668">
<rect width="15.4359" height="15.4359" fill="white" transform="translate(0.767578 0.506348)"/>
</clipPath>
</defs>
</svg>
