<svg width="31" height="32" viewBox="0 0 31 32" fill="none" xmlns="http://www.w3.org/2000/svg">
<g clip-path="url(#clip0_1619_9290)">
<path d="M24.3819 11.4416C24.3819 12.2433 23.7276 12.893 22.9258 12.893H18.4333C18.1753 12.893 17.9725 12.6903 17.9725 12.4322V11.8747H14.4707C13.8164 11.8747 13.2542 11.4278 13.1068 10.7919L11.8857 4.67746C11.8397 4.47472 11.6461 4.32267 11.425 4.32267H9.53121C9.26857 4.32267 9.052 4.53923 9.052 4.80187V5.21196H10.5311V15.2706H6.65138V5.21196H8.13046V4.80187C8.13046 4.03238 8.76172 3.40112 9.53121 3.40112H11.425C12.0793 3.40112 12.6414 3.84807 12.7889 4.48394L14.0053 10.5984C14.056 10.8011 14.2449 10.9532 14.4707 10.9532H17.9725V10.4463C17.9725 10.1929 18.1753 9.98555 18.4333 9.98555H22.9258C23.7276 9.98555 24.3819 10.6398 24.3819 11.4416ZM0.40332 13.6994L5.72984 9.22067V10.4279L0.997716 14.409L0.40332 13.6994Z" fill="#149DEB"/>
<path d="M30.6282 13.6995L30.0338 14.4091L24.8363 10.0364C24.615 9.72795 24.3205 9.47937 23.9793 9.31296L15.5195 2.19404L13.5428 3.85742C13.4184 3.56714 13.2341 3.31371 13.0083 3.10176L15.5195 0.986816L30.6282 13.6995Z" fill="#149DEB"/>
<path d="M25.2936 11.6213C25.2061 12.8469 24.1786 13.8145 22.9253 13.8145H18.4327C17.7969 13.8145 17.2578 13.3814 17.1011 12.7962H14.4701C13.9448 12.7988 13.4343 12.6221 13.023 12.2954C12.6117 11.9687 12.3241 11.5115 12.2077 10.9992L11.452 7.21167V16.1921H5.72926V11.6305L2.31494 14.5011V30.476H28.7218V14.5057L25.2936 11.6213ZM9.0975 24.6565H5.93661V21.5002H9.0975V24.6565ZM9.0975 20.5787H5.93661V17.4224H9.0975V20.5787ZM13.1799 24.6565H10.019V21.5002H13.1799V24.6565ZM13.1799 20.5787H10.019V17.4224H13.1799V20.5787ZM25.5563 29.5545H16.8016V16.9616H25.5563V29.5545ZM15.5207 3.39648L13.802 4.84331L14.8341 10.0316H17.1149C17.29 9.46945 17.8153 9.06398 18.4327 9.06398H22.2571L15.5207 3.39648Z" fill="#149DEB"/>
<path d="M18.5246 24.417C19.036 24.417 19.4553 24.0023 19.4553 23.4862C19.4553 22.9748 19.036 22.5647 18.5246 22.5647C18.2802 22.5647 18.0458 22.6618 17.8729 22.8346C17.7001 23.0074 17.603 23.2418 17.603 23.4862C17.603 24.0023 18.0177 24.417 18.5246 24.417Z" fill="#149DEB"/>
</g>
<defs>
<clipPath id="clip0_1619_9290">
<rect width="30.8717" height="30.8717" fill="white" transform="translate(0.0805664 0.295898)"/>
</clipPath>
</defs>
</svg>
