<svg width="20" height="21" viewBox="0 0 20 21" fill="none" xmlns="http://www.w3.org/2000/svg">
<path d="M5 6.49951H10M5 9.99951H13M7.68375 15.9995H14.2C15.8802 15.9995 16.7202 15.9995 17.362 15.6725C17.9265 15.3849 18.3854 14.926 18.673 14.3615C19 13.7197 19 12.8797 19 11.1995V5.79951C19 4.11935 19 3.27928 18.673 2.63754C18.3854 2.07305 17.9265 1.61411 17.362 1.32649C16.7202 0.999512 15.8802 0.999512 14.2 0.999512H5.8C4.11984 0.999512 3.27976 0.999512 2.63803 1.32649C2.07354 1.61411 1.6146 2.07305 1.32698 2.63754C1 3.27928 1 4.11935 1 5.79951V18.335C1 18.8679 1 19.1343 1.10923 19.2711C1.20422 19.3901 1.34827 19.4594 1.50054 19.4592C1.67563 19.459 1.88367 19.2926 2.29976 18.9597L4.68521 17.0513C5.17252 16.6615 5.41617 16.4666 5.68749 16.328C5.9282 16.205 6.18443 16.1151 6.44921 16.0608C6.74767 15.9995 7.0597 15.9995 7.68375 15.9995Z" stroke="#575757" stroke-width="2" stroke-linecap="round" stroke-linejoin="round"/>
</svg>
