<svg width="32" height="32" viewBox="0 0 32 32" fill="none" xmlns="http://www.w3.org/2000/svg">
<g clip-path="url(#clip0_1619_9322)">
<path d="M30.7994 15.4036C30.0585 14.6627 28.8854 14.6627 28.2062 15.4036L27.3418 16.2063L22.4641 21.084V6.14208C22.4641 5.15419 21.6614 4.35153 20.6735 4.35153H19.9326V2.93143C19.9326 1.94353 19.1299 1.14087 18.142 1.14087H5.23766C5.11418 1.14087 4.99069 1.20261 4.8672 1.26436L1.28608 4.84547C1.22434 4.90722 1.22434 4.90722 1.1626 4.96896V5.0307C1.1626 5.09245 1.1626 5.09245 1.1626 5.15419V25.7765C1.1626 26.2704 1.34783 26.7026 1.71829 27.0731C2.08875 27.3818 2.52095 27.567 3.0149 27.567H3.69408V28.9254C3.69408 29.4193 3.87931 29.8515 4.24977 30.222C4.49674 30.5925 4.92895 30.7777 5.42289 30.7777H20.6118C21.5997 30.7777 22.4023 29.975 22.4023 28.9871V26.3322L29.935 18.7995L30.7377 17.9968C31.1081 17.6264 31.2934 17.1942 31.2934 16.7002C31.2934 16.2063 31.1081 15.7123 30.7994 15.4036ZM3.75582 8.05613C3.69408 8.11787 3.69408 8.17962 3.69408 8.17962V8.24136V8.3031V8.36485V26.6409H2.95316C2.70618 26.6409 2.45921 26.5174 2.33572 26.3939C2.15049 26.2087 2.08875 26.0235 2.08875 25.7765V5.64814H5.23766C5.48464 5.64814 5.73161 5.46291 5.73161 5.15419V2.06702H18.2038C18.6977 2.06702 19.0682 2.43748 19.0682 2.93143V4.28978H7.7074C7.64565 4.28978 7.58391 4.28978 7.58391 4.28978C7.52217 4.28978 7.46042 4.35153 7.46042 4.41327L3.75582 8.05613ZM7.27519 5.89511V7.93264H5.23766L7.27519 5.89511ZM5.29941 21.6397C5.29941 21.3927 5.48464 21.1457 5.79335 21.1457H6.2873V12.9956H5.73161C5.54638 12.9956 5.36115 12.8721 5.29941 12.6869C5.23766 12.5017 5.29941 12.3164 5.48464 12.1929L12.7704 6.57429C12.9556 6.4508 13.1408 6.4508 13.326 6.57429L20.6118 12.1929C20.797 12.3164 20.8587 12.5017 20.797 12.6869C20.7353 12.8721 20.55 12.9956 20.3648 12.9956H19.8708V21.2075H20.3648C20.6118 21.2075 20.8587 21.3927 20.8587 21.7014C20.8587 21.9484 20.6735 22.1954 20.3648 22.1954H5.73161C5.48464 22.0719 5.29941 21.8867 5.29941 21.6397ZM15.2401 28.6167H6.2873C6.04033 28.6167 5.79335 28.4315 5.79335 28.1227C5.79335 27.8758 5.97858 27.6288 6.2873 27.6288H15.3018C15.5488 27.6288 15.7958 27.814 15.7958 28.1227C15.734 28.3697 15.4871 28.6167 15.2401 28.6167ZM15.2401 26.7026H6.2873C6.04033 26.7026 5.79335 26.5174 5.79335 26.2087C5.79335 25.9617 5.97858 25.7147 6.2873 25.7147H15.3018C15.5488 25.7147 15.7958 25.9 15.7958 26.2087C15.734 26.4557 15.4871 26.7026 15.2401 26.7026ZM15.2401 24.7886H6.2873C6.04033 24.7886 5.79335 24.6034 5.79335 24.2946C5.79335 24.0477 5.97858 23.8007 6.2873 23.8007H15.3018C15.5488 23.8007 15.7958 23.9859 15.7958 24.2946C15.734 24.5416 15.4871 24.7886 15.2401 24.7886ZM18.883 27.2583L19.5621 25.5913L20.55 26.5791L18.883 27.2583ZM21.3527 26.0852L20.0561 24.7886L22.2788 22.5658L27.6505 17.1942L28.9471 18.4908L21.3527 26.0852Z" fill="#149DEB"/>
<path d="M18.9451 12.9958H17.2163V21.2077H18.9451V12.9958Z" fill="#149DEB"/>
<path d="M9.80615 12.9958V21.2077H16.2892V12.9958H9.80615ZM13.0168 16.6387C13.943 16.6387 14.7456 17.3796 14.7456 18.3675C14.7456 19.1702 14.1899 19.7876 13.5108 20.0346V20.2198C13.5108 20.4668 13.3255 20.7138 13.0168 20.7138C12.7698 20.7138 12.5229 20.5285 12.5229 20.2198V20.0346C11.7819 19.8494 11.288 19.1702 11.288 18.3675C11.288 18.1206 11.4732 17.8736 11.7819 17.8736C12.0289 17.8736 12.2759 18.0588 12.2759 18.3675C12.2759 18.7997 12.6463 19.1702 13.0786 19.1702C13.5108 19.1702 13.8812 18.7997 13.8812 18.3675C13.8812 17.9353 13.5108 17.5649 13.0786 17.5649C12.1524 17.5649 11.3497 16.8239 11.3497 15.836C11.3497 15.0334 11.9054 14.4159 12.5846 14.169V13.9837C12.5846 13.7368 12.7698 13.4898 13.0786 13.4898C13.3255 13.4898 13.5725 13.675 13.5725 13.9837V14.169C14.3134 14.3542 14.8074 15.0334 14.8074 15.836C14.8074 16.083 14.6221 16.33 14.3134 16.33C14.0664 16.33 13.8195 16.1448 13.8195 15.836C13.8195 15.4038 13.449 15.0334 13.0168 15.0334C12.5846 15.0334 12.2141 15.4038 12.2141 15.836C12.2759 16.2682 12.5846 16.6387 13.0168 16.6387Z" fill="#149DEB"/>
<path d="M8.88165 12.9958H7.15283V21.2077H8.88165V12.9958Z" fill="#149DEB"/>
<path d="M13.0172 7.43872L7.08984 12.0077H18.9446L13.0172 7.43872ZM13.0172 11.5755C12.2145 11.5755 11.5971 10.9581 11.5971 10.1554C11.5971 9.35277 12.2763 8.73533 13.0172 8.73533C13.8199 8.73533 14.4373 9.35277 14.4373 10.1554C14.4373 10.9581 13.8199 11.5755 13.0172 11.5755Z" fill="#149DEB"/>
<path d="M13.5738 10.1553C13.5738 10.4023 13.3269 10.6493 13.0799 10.6493C12.7712 10.6493 12.5859 10.4023 12.5859 10.1553C12.5859 9.84661 12.8329 9.66138 13.0799 9.66138C13.3269 9.66138 13.5738 9.84661 13.5738 10.1553Z" fill="#149DEB"/>
</g>
<defs>
<clipPath id="clip0_1619_9322">
<rect width="30.8717" height="30.8717" fill="white" transform="translate(0.791504 0.524414)"/>
</clipPath>
</defs>
</svg>
