<svg width="169" height="135" viewBox="0 0 169 135" fill="none" xmlns="http://www.w3.org/2000/svg">
<g opacity="0.86">
<rect width="73.2914" height="73.2914" transform="matrix(-0.638096 -0.769957 -0.769957 0.638096 168.812 56.4316)" fill="#FFB200"/>
<path d="M72.0731 52.541C72.0731 52.541 76.8273 57.0765 75.7836 58.2353C74.7399 59.3942 66.8546 58.2353 66.8546 58.2353C66.8546 58.2353 66.3922 60.3227 63.1441 60.2076C59.8959 60.0925 53.2864 60.2076 53.2864 60.2076" fill="#CCF8FE"/>
<path fill-rule="evenodd" clip-rule="evenodd" d="M107.764 53.6933L89.0622 71.513C89.0622 71.513 83.8436 98.7568 79.4942 104.186C75.1448 109.616 53.0544 126.133 53.0544 126.133L32.3549 149.094L0.000152588 132.771L15.6557 114.125C15.6557 114.125 12.1025 80.4824 14.3645 74.1204C16.0106 69.4909 35.4131 52.5499 47.7975 40.9732C52.6867 36.4062 59.3691 34.2776 65.999 35.1753L101.78 40.012C102.438 40.1012 102.975 40.5796 103.14 41.222C103.306 41.8644 103.065 42.5427 102.532 42.9378L98.6282 45.8272L66.9717 46.0574L47.5673 79.4137L66.5074 79.1087C66.5074 79.1087 86.5795 43.5364 106.396 48.4576C107.488 48.7337 108.343 49.5819 108.627 50.6713C108.912 51.7606 108.581 52.9186 107.764 53.6933Z" fill="white"/>
<path d="M33.1376 69.4936C33.1376 69.4936 52.6111 40.8455 56.4808 37.488C59.3741 34.9766 63.144 34.9766 63.144 34.9766" stroke="black" stroke-width="0.55"/>
<path d="M23.2802 67.3675C23.2802 67.3675 42.8112 47.0422 50.3435 39.7094C53.797 36.3461 56.907 35.8281 56.907 35.8281" stroke="black" stroke-width="0.55"/>
<path fill-rule="evenodd" clip-rule="evenodd" d="M16.1929 59.6585L106.857 55.6295L118.42 48.738L105.848 44.4922L15.6979 48.502C14.2162 48.5652 12.8205 49.2156 11.8191 50.3095C10.8177 51.4035 10.2928 52.851 10.3605 54.3325C10.4256 55.813 11.0772 57.2066 12.1715 58.2058C13.2658 59.205 14.7127 59.7277 16.1929 59.6585Z" fill="black"/>
<path d="M84.3405 56.815L105.679 55.8672L107.764 53.8815C108.58 53.1054 108.909 51.9476 108.624 50.8585C108.34 49.7695 107.485 48.9212 106.395 48.6438C98.6838 46.729 90.9404 50.948 84.3405 56.815Z" fill="white"/>
<path fill-rule="evenodd" clip-rule="evenodd" d="M15.7418 56.6296C14.2849 56.6296 13.1038 55.4485 13.1038 53.9916C13.1038 52.5346 14.2849 51.3535 15.7418 51.3535C17.1988 51.3535 18.3799 52.5346 18.3799 53.9916C18.3799 55.4485 17.1988 56.6296 15.7418 56.6296Z" fill="white"/>
<path opacity="0.2" fill-rule="evenodd" clip-rule="evenodd" d="M101.095 39.9131C101.095 39.9131 96.347 44.6385 93.4576 38.8809L101.095 39.9131Z" fill="black"/>
<path opacity="0.2" fill-rule="evenodd" clip-rule="evenodd" d="M106.097 55.2766C106.097 55.2766 106.864 51.7733 101.928 52.3086C96.9914 52.8438 96.3046 56.7865 98.0908 58.1199C99.216 58.9222 100.586 59.3062 101.964 59.2058" fill="black"/>
<path d="M145.363 61.6505C145.363 61.6505 141.188 29.7082 135.043 28.8966C128.897 28.0851 128.316 57.0766 125.642 57.3663C122.967 57.656 118.42 48.7385 118.42 48.7385" stroke="black" stroke-width="3.0096"/>
</g>
</svg>
