<svg width="204" height="105" viewBox="0 0 204 105" fill="none" xmlns="http://www.w3.org/2000/svg">
<path d="M96.8535 49.9526V65.1125H97.4736V49.207C97.2876 49.5177 97.1015 49.5798 96.8535 49.9526Z" fill="#A5A5A5"/>
<path d="M121.842 19.1357L110.743 25.473C110.743 25.7215 110.743 25.9701 110.743 26.1565L122.152 19.6949L121.842 19.1357Z" fill="#A5A5A5"/>
<path d="M83.0876 41.317L69.5703 49.0211V19.0123L84.2037 27.462C84.3897 27.3377 84.5137 27.1513 84.6997 27.0271L68.9502 17.9561V50.0774L83.0256 42.0004C83.0876 41.7519 83.0876 41.5655 83.0876 41.317Z" fill="#A5A5A5"/>
<path d="M96.8535 2.36035V17.7686C97.0395 17.7686 97.2876 17.7686 97.4736 17.8308V3.47869L123.826 19.5704V47.2183L121.966 48.5852L110.743 42.0615C110.743 42.3101 110.743 42.5586 110.743 42.8071L122.028 49.3308L124.508 47.5911V19.2598L96.8535 2.36035Z" fill="#A5A5A5"/>
<path d="M98.8379 32.3076C98.7759 32.494 98.7139 32.8047 98.5898 33.1153L98.8379 32.991C98.8379 32.7425 98.8379 32.494 98.8379 32.3076Z" fill="#A5A5A5"/>
<path d="M99.0238 35.2902L97.9697 34.6689C97.9077 34.8553 97.7837 35.0417 97.7217 35.2281L99.1478 36.0358C99.0858 35.7873 99.0238 35.5388 99.0238 35.2902Z" fill="#A5A5A5"/>
<path d="M96.9158 67.784L67.5869 50.8846V16.9615L96.9158 0L126.245 16.9615V50.8846L96.9158 67.784ZM71.6173 48.5237L96.9158 63.1864L122.152 48.5237V19.2604L96.9158 4.65976L71.6173 19.2604V48.5237Z" fill="url(#paint0_linear_230_18263)"/>
<path d="M98.0936 34.8551C96.6055 36.7191 94.9933 38.583 94.0013 40.8196C93.9392 41.006 93.5052 42.3729 93.5052 42.5593C93.2572 44.6717 94.1873 46.3492 96.1095 47.0948C96.2955 47.1569 97.9696 47.1569 98.8377 46.3492C98.9617 46.225 99.0858 46.1007 99.2718 45.9764C99.2718 45.9764 100.264 45.0445 100.574 42.5593C100.884 39.8877 99.8918 37.4025 98.8377 34.9794C98.6517 34.5445 98.3417 34.5445 98.0936 34.8551Z" fill="#49AA4C"/>
<path d="M79.8633 33.3015C80.7314 32.4939 81.5374 31.6862 82.4675 30.9406C86.6219 27.4613 90.8384 23.982 94.9928 20.4406C96.2329 19.3844 97.535 19.3844 98.7751 20.4406C100.201 21.6211 101.627 22.8637 103.054 24.0441C103.178 24.1684 103.364 24.2927 103.612 24.4791C103.612 23.1743 103.612 21.9939 103.612 20.8134C103.612 19.9436 103.736 19.7572 104.666 19.7572C105.782 19.7572 106.898 19.7572 108.076 19.7572C108.82 19.7572 109.006 19.9436 109.006 20.6891C109.006 23.2986 109.006 25.9081 109.006 28.4554C109.006 28.766 109.192 29.1388 109.44 29.3252C110.742 30.4436 112.044 31.4998 113.347 32.6181C113.533 32.8045 113.719 33.053 113.905 33.2394C113.905 33.3015 113.905 33.4258 113.905 33.4879C113.471 34.0471 113.037 34.5441 112.602 35.0412C112.106 35.6004 111.796 35.6625 111.238 35.1654C108.51 32.8666 105.782 30.6299 103.054 28.3311C101.131 26.7779 99.2712 25.1625 97.349 23.5471C97.039 23.2986 96.8529 23.2986 96.5429 23.5471C91.9545 27.3992 87.366 31.1891 82.7776 35.0412C82.0335 35.6625 81.7235 35.6625 81.1034 34.9169C80.6694 34.4199 80.2973 33.8607 79.9253 33.3637C79.8633 33.4258 79.8633 33.3637 79.8633 33.3015Z" fill="url(#paint1_linear_230_18263)"/>
<path d="M96.9154 25.1631C99.7677 27.524 102.558 29.8228 105.41 32.1838C106.464 33.0536 107.58 33.9234 108.635 34.8554C108.821 35.0418 109.007 35.3524 109.007 35.601C109.007 38.8317 109.007 42.0625 109.007 45.2933C109.007 46.101 108.511 46.6601 107.766 46.6601C105.162 46.6601 102.558 46.6601 99.9537 46.6601C99.8297 46.6601 98.4655 46.598 98.2795 46.598C101.008 44.2371 100.884 41.3791 99.5196 38.6453C98.6516 35.5388 99.3956 32.9294 95.1792 38.6453C93.009 41.0684 93.071 45.3554 95.5513 46.598C95.3032 46.598 93.6911 46.6601 93.5051 46.6601C91.0868 46.6601 88.6066 46.6601 86.1883 46.6601C85.1962 46.6601 84.7622 46.2252 84.7002 45.169C84.7002 42.0004 84.7002 38.8317 84.7002 35.6631C84.7002 35.4146 84.8862 35.0418 85.0722 34.8554C89.0406 31.6868 92.947 28.456 96.9154 25.1631Z" fill="url(#paint2_linear_230_18263)"/>
<path d="M98.0936 34.8551C96.6055 36.7191 94.9933 38.583 94.0013 40.8196C93.9392 41.006 93.5052 42.3729 93.5052 42.5593C93.2572 44.6717 94.1873 46.3492 96.1095 47.0948C96.1715 47.0948 96.2335 46.5978 96.0474 46.4735C94.3733 45.5415 93.6912 44.1747 94.1253 42.2486C94.5593 40.4469 95.6134 38.9557 96.6675 37.4646C97.1636 36.7812 97.7216 36.0978 98.3417 35.3522C99.3958 37.9617 100.264 40.509 99.8918 43.2427C99.7058 44.4232 99.2718 45.4173 98.2797 46.1007C98.1557 46.1628 98.2797 46.8463 98.8377 46.3492C98.9617 46.225 99.0858 46.1007 99.2718 45.9764C99.2718 45.9764 100.264 45.0445 100.574 42.5593C100.884 39.8877 99.8918 37.4025 98.8377 34.9794C98.6517 34.5445 98.3417 34.5445 98.0936 34.8551Z" fill="url(#paint3_linear_230_18263)"/>
<path d="M97.7831 37.7129C97.3491 41.1301 97.3491 44.5472 97.6591 47.9022C97.6591 48.0886 97.1631 48.1508 97.1631 47.9644C96.791 44.9821 96.791 42.062 97.4111 39.1419C97.4111 38.707 97.5971 38.2099 97.7831 37.7129Z" fill="url(#paint4_linear_230_18263)"/>
<path d="M8.68066 83.8133C8.68066 82.1979 9.0527 80.7689 9.79677 79.5263C10.5408 78.2837 11.5329 77.2896 12.8351 76.544C14.1372 75.7985 15.5013 75.4878 17.0515 75.4878C18.7877 75.4878 20.3378 75.9227 21.7019 76.7926C23.0661 77.6624 24.0582 78.8429 24.6782 80.3961H21.4539C21.0199 79.5263 20.4618 78.905 19.7177 78.4701C18.9737 78.0352 18.1056 77.8488 17.1135 77.8488C16.0594 77.8488 15.0673 78.0973 14.1992 78.5943C13.3311 79.0914 12.7111 79.7748 12.215 80.7068C11.719 81.6387 11.5329 82.6949 11.5329 83.8754C11.5329 85.0559 11.781 86.1121 12.215 87.044C12.7111 87.976 13.3931 88.6594 14.1992 89.1565C15.0673 89.6535 15.9974 89.902 17.1135 89.902C18.1056 89.902 18.9737 89.7156 19.7177 89.2807C20.4618 88.8458 21.0819 88.2245 21.4539 87.3547H24.6782C24.0582 88.9079 23.0661 90.1505 21.7019 90.9582C20.3378 91.8281 18.7877 92.2008 17.0515 92.2008C15.5013 92.2008 14.1372 91.8281 12.8351 91.1446C11.595 90.3991 10.5408 89.405 9.79677 88.1624C9.0527 86.8576 8.68066 85.4286 8.68066 83.8133ZM26.9105 85.4908C26.9105 84.1861 27.1585 83.0677 27.7165 82.0115C28.2746 81.0174 29.0187 80.2097 29.9487 79.7127C30.8788 79.1535 31.9329 78.8429 33.0491 78.8429C34.0412 78.8429 34.9712 79.0292 35.7153 79.4642C36.4594 79.8369 37.0794 80.334 37.5755 80.9553V79.0914H40.3038V92.0145H37.5755V90.0884C37.1415 90.7097 36.5214 91.2068 35.7153 91.6417C34.9092 92.0766 34.0412 92.263 33.0491 92.263C31.9329 92.263 30.9408 91.9523 30.0108 91.3932C29.0807 90.834 28.3366 90.0263 27.7785 88.9701C27.1585 87.976 26.9105 86.7955 26.9105 85.4908ZM37.5135 85.5529C37.5135 84.6831 37.3275 83.8754 36.9554 83.2541C36.5834 82.5707 36.0874 82.0736 35.5293 81.763C34.9092 81.3902 34.2892 81.2659 33.6071 81.2659C32.925 81.2659 32.305 81.4523 31.6849 81.763C31.0649 82.0736 30.6308 82.5707 30.1968 83.2541C29.8247 83.8754 29.6387 84.6831 29.6387 85.5529C29.6387 86.4227 29.8247 87.2304 30.1968 87.9139C30.5688 88.5973 31.0649 89.0943 31.6849 89.4671C32.305 89.8399 32.925 89.9642 33.6071 89.9642C34.2892 89.9642 34.9712 89.7778 35.5293 89.4671C36.1494 89.0943 36.5834 88.5973 36.9554 87.976C37.3275 87.2304 37.5135 86.4227 37.5135 85.5529ZM46.4424 80.9553C46.8144 80.2719 47.3725 79.7748 47.9925 79.402C48.6746 79.0292 49.4187 78.8429 50.3487 78.8429V81.6387H49.6667C48.6126 81.6387 47.8065 81.8872 47.2484 82.4464C46.6904 83.0056 46.4424 83.8754 46.4424 85.2423V92.0766H43.7761V79.0914H46.4424V80.9553ZM55.4333 81.0174C55.8673 80.3961 56.4874 79.8991 57.2934 79.4642C58.0995 79.0292 58.9676 78.8429 59.9597 78.8429C61.0758 78.8429 62.1299 79.0914 63.06 79.6505C63.9901 80.2097 64.7342 80.9553 65.2302 82.0115C65.7883 83.0056 66.0363 84.1861 66.0363 85.4908C66.0363 86.7955 65.7883 87.976 65.2302 88.9701C64.6722 89.9642 63.9901 90.7719 62.998 91.3932C62.0679 91.9523 61.0758 92.263 59.8977 92.263C58.9056 92.263 57.9755 92.0766 57.2314 91.7038C56.4874 91.331 55.8673 90.834 55.3712 90.2127V92.0766H52.705V74.6801H55.3712V81.0174H55.4333ZM63.308 85.4908C63.308 84.621 63.122 83.8133 62.75 83.192C62.3779 82.5085 61.8819 82.0115 61.2618 81.7008C60.6418 81.3281 60.0217 81.2038 59.3396 81.2038C58.6576 81.2038 58.0375 81.3902 57.4174 81.7008C56.7974 82.0736 56.3633 82.5707 55.9293 83.192C55.5573 83.8754 55.3712 84.621 55.3712 85.4908C55.3712 86.3606 55.5573 87.1683 55.9293 87.8517C56.3013 88.5352 56.7974 89.0322 57.4174 89.3429C58.0375 89.7156 58.6576 89.8399 59.3396 89.8399C60.0217 89.8399 60.7038 89.6535 61.2618 89.3429C61.8819 88.9701 62.3779 88.473 62.75 87.7896C63.122 87.1683 63.308 86.4227 63.308 85.4908ZM74.3451 92.263C73.105 92.263 71.9889 92.0145 70.9968 91.4553C70.0047 90.8961 69.2606 90.0884 68.6405 89.0943C68.0825 88.1002 67.7725 86.9198 67.7725 85.5529C67.7725 84.2482 68.0825 83.0677 68.6405 82.0736C69.1986 81.0795 70.0047 80.2719 70.9968 79.7127C71.9889 79.1535 73.105 78.905 74.3451 78.905C75.5852 78.905 76.7013 79.1535 77.6934 79.7127C78.6855 80.2719 79.4916 81.0174 80.0497 82.0736C80.6077 83.0677 80.9177 84.2482 80.9177 85.5529C80.9177 86.8576 80.6077 88.0381 80.0497 89.0322C79.4296 90.0263 78.6235 90.834 77.6314 91.3932C76.7013 91.9523 75.5852 92.263 74.3451 92.263ZM74.3451 89.902C75.0272 89.902 75.6472 89.7156 76.2673 89.405C76.8874 89.0943 77.3834 88.5973 77.7554 87.9139C78.1275 87.2304 78.3135 86.4849 78.3135 85.4908C78.3135 84.5588 78.1275 83.7511 77.7554 83.1298C77.3834 82.4464 76.8874 81.9494 76.3293 81.6387C75.7092 81.3281 75.0892 81.1417 74.4071 81.1417C73.725 81.1417 73.105 81.3281 72.4849 81.6387C71.9269 81.9494 71.4308 82.4464 71.1208 83.1298C70.7487 83.7511 70.6247 84.5588 70.6247 85.4908C70.6247 86.8577 70.9968 87.976 71.6788 88.7216C72.3609 89.5292 73.229 89.902 74.3451 89.902ZM90.2187 78.905C91.2108 78.905 92.1408 79.0914 92.9469 79.5263C93.753 79.9612 94.3731 80.5825 94.8691 81.3902C95.3032 82.1979 95.5512 83.192 95.5512 84.3724V92.0145H92.8849V84.8074C92.8849 83.6269 92.5749 82.7571 92.0168 82.1358C91.4588 81.5145 90.6527 81.2038 89.6606 81.2038C88.6685 81.2038 87.8624 81.5145 87.2424 82.1358C86.6843 82.7571 86.3743 83.6269 86.3743 84.8074V92.0145H83.708V79.0914H86.3743V80.5825C86.8083 80.0233 87.3664 79.6505 88.0484 79.3399C88.7305 79.0292 89.4746 78.905 90.2187 78.905ZM108.944 82.3843V84.6831H99.2716V82.4464H108.944V82.3843ZM122.586 88.7216H115.765L114.587 92.0766H111.797L117.625 75.7363H120.726L126.554 92.0766H123.702L122.586 88.7216ZM121.842 86.547L119.175 78.9671L116.509 86.547H121.842ZM128.228 85.4908C128.228 84.1861 128.476 83.0677 129.034 82.0115C129.593 81.0174 130.337 80.2097 131.267 79.7127C132.197 79.1535 133.251 78.8429 134.367 78.8429C135.235 78.8429 136.041 79.0292 136.847 79.402C137.653 79.7748 138.335 80.2719 138.831 80.831V74.6801H141.56V92.0766H138.831V90.1506C138.397 90.7719 137.777 91.2689 136.971 91.7038C136.227 92.1387 135.297 92.3251 134.305 92.3251C133.189 92.3251 132.135 92.0145 131.205 91.4553C130.275 90.8961 129.531 90.0884 128.972 89.0322C128.538 87.976 128.228 86.7955 128.228 85.4908ZM138.893 85.5529C138.893 84.6831 138.707 83.8754 138.335 83.2541C137.963 82.5707 137.467 82.0736 136.909 81.763C136.289 81.3902 135.669 81.2659 134.987 81.2659C134.305 81.2659 133.685 81.4523 133.065 81.763C132.445 82.0736 132.011 82.5707 131.577 83.2541C131.205 83.8754 131.019 84.6831 131.019 85.5529C131.019 86.4227 131.205 87.2304 131.577 87.9139C131.949 88.5973 132.445 89.0943 133.065 89.4671C133.685 89.8399 134.305 89.9642 134.987 89.9642C135.669 89.9642 136.289 89.7778 136.909 89.4671C137.529 89.0943 137.963 88.5973 138.335 87.976C138.707 87.2304 138.893 86.4227 138.893 85.5529ZM146.458 77.4139C145.962 77.4139 145.59 77.2275 145.218 76.9168C144.908 76.6062 144.722 76.1713 144.722 75.6742C144.722 75.1772 144.908 74.8044 145.218 74.4316C145.528 74.121 145.962 73.9346 146.458 73.9346C146.954 73.9346 147.326 74.121 147.636 74.4316C147.946 74.7423 148.132 75.1772 148.132 75.6742C148.132 76.1713 147.946 76.544 147.636 76.9168C147.326 77.2275 146.954 77.4139 146.458 77.4139ZM147.76 94.5618C147.76 95.8044 147.45 96.7363 146.768 97.2955C146.148 97.8547 145.218 98.1653 144.04 98.1653H142.676V95.9286H143.606C144.164 95.9286 144.536 95.8044 144.784 95.618C145.032 95.4316 145.156 95.0588 145.156 94.5618V79.0914H147.822V94.5618H147.76ZM163.014 79.0914V92.0145H160.348V90.4612C159.913 91.0204 159.355 91.3932 158.673 91.7038C157.991 92.0145 157.247 92.1387 156.503 92.1387C155.511 92.1387 154.581 91.9523 153.775 91.5174C152.969 91.0825 152.349 90.4612 151.853 89.6535C151.419 88.8458 151.171 87.8517 151.171 86.6713V79.0914H153.837V86.2985C153.837 87.4789 154.147 88.3488 154.705 88.9701C155.263 89.5914 156.069 89.902 157.061 89.902C158.053 89.902 158.859 89.5914 159.417 88.9701C160.038 88.3488 160.286 87.4789 160.286 86.2985V79.0914H163.014ZM171.261 92.263C170.269 92.263 169.338 92.0766 168.532 91.7038C167.726 91.331 167.106 90.834 166.61 90.2127C166.114 89.5914 165.866 88.8458 165.866 88.1003H168.656C168.718 88.6594 168.966 89.0943 169.462 89.4671C169.958 89.8399 170.579 90.0263 171.261 90.0263C172.005 90.0263 172.563 89.902 172.997 89.5914C173.431 89.2807 173.617 88.9079 173.617 88.473C173.617 87.976 173.369 87.6032 172.935 87.4168C172.501 87.1683 171.757 86.9198 170.765 86.6713C169.772 86.4227 169.028 86.1742 168.408 85.9257C167.788 85.6772 167.292 85.3044 166.796 84.7452C166.362 84.2482 166.114 83.5648 166.114 82.6949C166.114 82.0115 166.3 81.3902 166.734 80.831C167.168 80.2719 167.726 79.7748 168.47 79.4642C169.214 79.1535 170.144 78.9671 171.075 78.9671C172.563 78.9671 173.741 79.3399 174.609 80.0855C175.539 80.831 176.035 81.8251 176.097 83.1298H173.431C173.369 82.5707 173.121 82.0736 172.749 81.763C172.315 81.3902 171.757 81.2659 171.013 81.2659C170.331 81.2659 169.772 81.3902 169.4 81.6387C169.028 81.8872 168.842 82.26 168.842 82.6949C168.842 83.0677 168.966 83.3162 169.214 83.5647C169.462 83.8133 169.772 83.9997 170.144 84.1239C170.517 84.2482 171.013 84.4346 171.757 84.621C172.687 84.8695 173.493 85.118 174.051 85.3665C174.671 85.615 175.167 85.9878 175.601 86.4849C176.035 86.9819 176.283 87.6653 176.283 88.473C176.283 89.2186 176.097 89.8399 175.663 90.4612C175.229 91.0204 174.671 91.5174 173.927 91.8281C173.183 92.0766 172.253 92.263 171.261 92.263ZM182.298 81.2659V88.4109C182.298 88.9079 182.422 89.2186 182.608 89.4671C182.856 89.6535 183.228 89.7778 183.786 89.7778H185.46V92.0145H183.352C182.174 92.0145 181.244 91.7038 180.562 91.1446C179.941 90.5855 179.569 89.6535 179.569 88.4109V81.2659H178.019V79.0914H179.569V75.8606H182.298V79.0914H185.46V81.2659H182.298Z" fill="#139EEC"/>
<defs>
<linearGradient id="paint0_linear_230_18263" x1="69.0038" y1="3.92681" x2="124.307" y2="63.1507" gradientUnits="userSpaceOnUse">
<stop stop-color="#2E599A"/>
<stop offset="1" stop-color="#4D94FE"/>
</linearGradient>
<linearGradient id="paint1_linear_230_18263" x1="93.7396" y1="18.3569" x2="97.427" y2="35.9309" gradientUnits="userSpaceOnUse">
<stop offset="0.0111982" stop-color="#19A9DF"/>
<stop offset="1" stop-color="#0B8DFF"/>
</linearGradient>
<linearGradient id="paint2_linear_230_18263" x1="90.6745" y1="24.9272" x2="99.2186" y2="46.3461" gradientUnits="userSpaceOnUse">
<stop offset="0.0111982" stop-color="#19A9DF"/>
<stop offset="1" stop-color="#0B8DFF"/>
</linearGradient>
<linearGradient id="paint3_linear_230_18263" x1="97.0358" y1="34.628" x2="97.0358" y2="47.065" gradientUnits="userSpaceOnUse">
<stop stop-color="#025227"/>
<stop offset="1" stop-color="#095B2E"/>
</linearGradient>
<linearGradient id="paint4_linear_230_18263" x1="97.3187" y1="37.7105" x2="97.3187" y2="48.0948" gradientUnits="userSpaceOnUse">
<stop stop-color="#025227"/>
<stop offset="1" stop-color="#00652E"/>
</linearGradient>
</defs>
</svg>
