<svg width="24" height="24" viewBox="0 0 24 24" fill="none" xmlns="http://www.w3.org/2000/svg">
<path d="M13 6.99951L11.8845 4.76843C11.5634 4.12631 11.4029 3.80524 11.1634 3.57068C10.9516 3.36324 10.6963 3.20549 10.4161 3.10882C10.0992 2.99951 9.74021 2.99951 9.02229 2.99951H5.2C4.0799 2.99951 3.51984 2.99951 3.09202 3.2175C2.71569 3.40925 2.40973 3.71521 2.21799 4.09153C2 4.51935 2 5.07941 2 6.19951V6.99951M2 6.99951H17.2C18.8802 6.99951 19.7202 6.99951 20.362 7.32649C20.9265 7.61411 21.3854 8.07305 21.673 8.63754C22 9.27928 22 10.1194 22 11.7995V16.1995C22 17.8797 22 18.7197 21.673 19.3615C21.3854 19.926 20.9265 20.3849 20.362 20.6725C19.7202 20.9995 18.8802 20.9995 17.2 20.9995H6.8C5.11984 20.9995 4.27976 20.9995 3.63803 20.6725C3.07354 20.3849 2.6146 19.926 2.32698 19.3615C2 18.7197 2 17.8797 2 16.1995V6.99951Z" stroke="#575757" stroke-width="2" stroke-linecap="round" stroke-linejoin="round"/>
</svg>
