<svg width="16" height="16" viewBox="0 0 16 16" fill="none" xmlns="http://www.w3.org/2000/svg">
<path d="M15.3369 5.21875C15.4619 5.5 15.3682 5.78125 15.1494 6L13.8057 7.21875C13.8369 7.46875 13.8682 7.75 13.8682 8C13.8682 8.28125 13.8369 8.5625 13.8057 8.8125L15.1494 10.0312C15.3682 10.25 15.4619 10.5312 15.3369 10.8125C15.2119 11.1875 15.0557 11.5312 14.8682 11.875L14.7119 12.125C14.4932 12.4688 14.2744 12.8125 14.0244 13.125C13.8369 13.3438 13.5244 13.4062 13.2432 13.3125L11.5244 12.7812C11.0869 13.0938 10.6182 13.3438 10.1494 13.5625L9.74316 15.3438C9.68066 15.625 9.46191 15.8438 9.18066 15.9062C8.74316 15.9688 8.30566 16 7.83691 16C7.39941 16 6.96191 15.9688 6.52441 15.9062C6.24316 15.8438 6.02441 15.625 5.96191 15.3438L5.55566 13.5625C5.08691 13.3438 4.61816 13.0938 4.18066 12.7812L2.46191 13.3125C2.18066 13.4062 1.86816 13.3438 1.68066 13.125C1.43066 12.8125 1.21191 12.4688 0.993164 12.125L0.836914 11.875C0.649414 11.5312 0.493164 11.1875 0.368164 10.8125C0.243164 10.5312 0.336914 10.25 0.555664 10.0312L1.89941 8.8125C1.86816 8.5625 1.86816 8.28125 1.86816 8C1.86816 7.75 1.86816 7.46875 1.89941 7.21875L0.555664 6C0.336914 5.78125 0.243164 5.5 0.368164 5.21875C0.493164 4.84375 0.649414 4.5 0.836914 4.15625L0.993164 3.90625C1.21191 3.5625 1.43066 3.21875 1.68066 2.90625C1.86816 2.6875 2.18066 2.625 2.46191 2.71875L4.18066 3.25C4.61816 2.9375 5.08691 2.65625 5.55566 2.46875L5.96191 0.6875C6.02441 0.40625 6.24316 0.1875 6.52441 0.125C6.96191 0.0625 7.39941 0 7.86816 0C8.30566 0 8.74316 0.0625 9.18066 0.125C9.46191 0.1875 9.68066 0.40625 9.74316 0.6875L10.1494 2.46875C10.6182 2.65625 11.0869 2.9375 11.5244 3.25L13.2432 2.71875C13.5244 2.625 13.8369 2.6875 14.0244 2.90625C14.2744 3.21875 14.4932 3.5625 14.7119 3.90625L14.8682 4.15625C15.0557 4.5 15.2119 4.84375 15.3369 5.21875ZM7.86816 10.5C9.24316 10.5 10.3682 9.40625 10.3682 8C10.3682 6.625 9.24316 5.5 7.86816 5.5C6.46191 5.5 5.36816 6.625 5.36816 8C5.36816 9.40625 6.46191 10.5 7.86816 10.5Z" fill="#272425"/>
</svg>
