<svg width="55" height="55" viewBox="0 0 55 55" fill="none" xmlns="http://www.w3.org/2000/svg">
<path d="M52.5246 27.4996C52.5246 41.3196 41.3196 52.5246 27.4996 52.5246C13.6796 52.5246 2.47461 41.3196 2.47461 27.4996C2.47461 13.6796 13.6796 2.47461 27.4996 2.47461C41.3196 2.47461 52.5246 13.6796 52.5246 27.4996Z" fill="#ABD7EF"/>
<path d="M39.375 17.4198V43.2298C39.375 44.0198 38.735 44.6598 37.945 44.6598H17.055C16.265 44.6598 15.625 44.0198 15.625 43.2298V11.7698C15.625 10.9798 16.265 10.3398 17.055 10.3398H32.295L39.375 17.4198Z" fill="white"/>
<path d="M29.5345 16.7246H18.3945V18.1546H29.5345V16.7246Z" fill="#6C6969"/>
<path d="M29.5345 13.1992H18.3945V14.6292H29.5345V13.1992Z" fill="#6C6969"/>
<path d="M36.8299 20.25H18.1699V21.68H36.8299V20.25Z" fill="#6C6969"/>
<path d="M39.3749 17.4198H33.7249C32.9349 17.4198 32.2949 16.7798 32.2949 15.9898V10.3398L39.3749 17.4198Z" fill="#A8B6C2"/>
<path d="M33.5697 30.8102H30.4897V41.8002H24.5047V30.8102H21.4297L27.4997 24.7402L33.5697 30.8102Z" fill="#6C6969"/>
</svg>
