<svg width="24" height="24" viewBox="0 0 24 24" fill="none" xmlns="http://www.w3.org/2000/svg">
<path d="M16 3.46739C17.4817 4.20374 18.5 5.73277 18.5 7.49963C18.5 9.26649 17.4817 10.7955 16 11.5319M18 16.766C19.5115 17.45 20.8725 18.5646 22 19.9996M2 19.9996C3.94649 17.5222 6.58918 15.9996 9.5 15.9996C12.4108 15.9996 15.0535 17.5222 17 19.9996M14 7.49963C14 9.98492 11.9853 11.9996 9.5 11.9996C7.01472 11.9996 5 9.98492 5 7.49963C5 5.01435 7.01472 2.99963 9.5 2.99963C11.9853 2.99963 14 5.01435 14 7.49963Z" stroke="#575757" stroke-width="2" stroke-linecap="round" stroke-linejoin="round"/>
</svg>
