<svg width="23" height="23" viewBox="0 0 23 23" fill="none" xmlns="http://www.w3.org/2000/svg">
<g clip-path="url(#clip0_4152_50004)">
<path d="M11.5604 14.375C8.52333 14.375 6.06128 11.8006 6.06128 8.625C6.06128 5.44936 8.52333 2.875 11.5604 2.875C14.5975 2.875 17.0596 5.44936 17.0596 8.625C17.0596 11.8006 14.5975 14.375 11.5604 14.375Z" stroke="#212121" stroke-width="1.12195" stroke-linecap="round" stroke-linejoin="round"/>
<path d="M19.8975 19.4054C19.0523 17.8759 17.8372 16.6058 16.374 15.7228C14.9108 14.8398 13.2512 14.375 11.5618 14.375C9.87239 14.375 8.21276 14.8399 6.7496 15.7229C5.28644 16.6059 4.07128 17.876 3.22619 19.4056" stroke="#212121" stroke-width="1.12195" stroke-linecap="round" stroke-linejoin="round"/>
</g>
<defs>
<clipPath id="clip0_4152_50004">
<rect width="21.9966" height="23" fill="white" transform="matrix(-1 0 0 1 22.5596 0)"/>
</clipPath>
</defs>
</svg>
