<svg width="25" height="29" viewBox="0 0 25 29" fill="none" xmlns="http://www.w3.org/2000/svg">
<path d="M12.4551 21.277V27.7344H12.719V20.9595C12.6398 21.0918 12.5606 21.1183 12.4551 21.277Z" fill="#A5A5A5"/>
<path d="M23.0898 8.15088L18.3662 10.8502C18.3662 10.9561 18.3662 11.062 18.3662 11.1414L23.2217 8.38906L23.0898 8.15088Z" fill="#A5A5A5"/>
<path d="M6.5967 17.5991L0.843965 20.8806V8.09833L7.0717 11.6975C7.15087 11.6446 7.20365 11.5652 7.28281 11.5122L0.580078 7.64844V21.3305L6.57031 17.8902C6.5967 17.7843 6.5967 17.7049 6.5967 17.5991Z" fill="#A5A5A5"/>
<path d="M12.4551 1.00537V7.56855C12.5342 7.56855 12.6398 7.56855 12.719 7.59501V1.48173L23.9342 8.33601V20.1127L23.1425 20.6949L18.3662 17.9161C18.3662 18.022 18.3662 18.1278 18.3662 18.2337L23.1689 21.0125L24.2244 20.2715V8.20369L12.4551 1.00537Z" fill="#A5A5A5"/>
<path d="M13.2989 13.7617C13.2725 13.8411 13.2461 13.9734 13.1934 14.1058L13.2989 14.0528C13.2989 13.947 13.2989 13.8411 13.2989 13.7617Z" fill="#A5A5A5"/>
<path d="M13.3784 15.0317L12.9298 14.7671C12.9034 14.8465 12.8506 14.9259 12.8242 15.0053L13.4312 15.3493C13.4048 15.2434 13.3784 15.1376 13.3784 15.0317Z" fill="#A5A5A5"/>
<path d="M12.4819 28.8727L0 21.6744V7.22478L12.4819 0L24.9637 7.22478V21.6744L12.4819 28.8727ZM1.71527 20.6687L12.4819 26.9143L23.2221 20.6687V8.20397L12.4819 1.98483L1.71527 8.20397V20.6687Z" fill="url(#paint0_linear_927_745)"/>
<path d="M12.9832 14.8469C12.3499 15.6408 11.6638 16.4347 11.2415 17.3875C11.2152 17.4669 11.0304 18.0491 11.0304 18.1285C10.9249 19.0283 11.3207 19.7428 12.1388 20.0604C12.2179 20.0868 12.9304 20.0868 13.2999 19.7428C13.3526 19.6899 13.4054 19.6369 13.4846 19.584C13.4846 19.584 13.9068 19.187 14.0387 18.1285C14.1707 16.9905 13.7485 15.9319 13.2999 14.8998C13.2207 14.7146 13.0887 14.7146 12.9832 14.8469Z" fill="#49AA4C"/>
<path d="M5.22461 14.1852C5.59405 13.8411 5.9371 13.4971 6.33293 13.1795C8.10098 11.6975 9.89541 10.2155 11.6635 8.70705C12.1912 8.25716 12.7454 8.25716 13.2732 8.70705C13.8801 9.20987 14.487 9.73916 15.094 10.242C15.1468 10.2949 15.2259 10.3478 15.3315 10.4272C15.3315 9.87148 15.3315 9.36866 15.3315 8.86584C15.3315 8.49533 15.3843 8.41594 15.7801 8.41594C16.2551 8.41594 16.7301 8.41594 17.2315 8.41594C17.5481 8.41594 17.6273 8.49533 17.6273 8.81291C17.6273 9.92441 17.6273 11.0359 17.6273 12.121C17.6273 12.2533 17.7065 12.4121 17.812 12.4915C18.3662 12.9678 18.9203 13.4177 19.4745 13.8941C19.5537 13.9735 19.6328 14.0793 19.712 14.1587C19.712 14.1852 19.712 14.2381 19.712 14.2646C19.5273 14.5028 19.3426 14.7145 19.1578 14.9262C18.9467 15.1644 18.8148 15.1908 18.5773 14.9791C17.4162 13.9999 16.2551 13.0472 15.094 12.068C14.2759 11.4064 13.4843 10.7183 12.6662 10.0303C12.5343 9.92441 12.4551 9.92441 12.3232 10.0303C10.3704 11.6711 8.41764 13.2854 6.46488 14.9262C6.14821 15.1908 6.01627 15.1908 5.75238 14.8733C5.56766 14.6615 5.40933 14.4234 5.251 14.2116C5.22461 14.2381 5.22461 14.2116 5.22461 14.1852Z" fill="url(#paint1_linear_927_745)"/>
<path d="M12.4818 10.7178C13.6957 11.7234 14.8831 12.7026 16.097 13.7083C16.5456 14.0788 17.0206 14.4493 17.4692 14.8462C17.5484 14.9256 17.6276 15.0579 17.6276 15.1638C17.6276 16.5399 17.6276 17.9161 17.6276 19.2922C17.6276 19.6363 17.4165 19.8745 17.0998 19.8745C15.9915 19.8745 14.8831 19.8745 13.7748 19.8745C13.722 19.8745 13.1415 19.848 13.0623 19.848C14.2234 18.8423 14.1707 17.625 13.5901 16.4606C13.2207 15.1373 13.5373 14.0258 11.7429 16.4606C10.8193 17.4927 10.8457 19.3187 11.9012 19.848C11.7957 19.848 11.1096 19.8745 11.0304 19.8745C10.0012 19.8745 8.94569 19.8745 7.91653 19.8745C7.49431 19.8745 7.30959 19.6892 7.2832 19.2393C7.2832 17.8896 7.2832 16.5399 7.2832 15.1903C7.2832 15.0844 7.36237 14.9256 7.44153 14.8462C9.13041 13.4965 10.7929 12.1204 12.4818 10.7178Z" fill="url(#paint2_linear_927_745)"/>
<path d="M12.9832 14.8469C12.3499 15.6408 11.6638 16.4347 11.2415 17.3875C11.2152 17.4669 11.0304 18.0491 11.0304 18.1285C10.9249 19.0283 11.3207 19.7428 12.1388 20.0604C12.1651 20.0604 12.1915 19.8486 12.1124 19.7957C11.3999 19.3988 11.1096 18.8165 11.2943 17.9961C11.479 17.2287 11.9276 16.5935 12.3763 15.9584C12.5874 15.6673 12.8249 15.3762 13.0888 15.0586C13.5374 16.1701 13.9068 17.2551 13.7485 18.4196C13.6693 18.9224 13.4846 19.3458 13.0624 19.6369C13.0096 19.6634 13.0624 19.9545 13.2999 19.7428C13.3526 19.6899 13.4054 19.6369 13.4846 19.584C13.4846 19.584 13.9068 19.187 14.0387 18.1285C14.1707 16.9905 13.7485 15.9319 13.2999 14.8998C13.2207 14.7146 13.0887 14.7146 12.9832 14.8469Z" fill="url(#paint3_linear_927_745)"/>
<path d="M12.8505 16.064C12.6657 17.5195 12.6657 18.975 12.7977 20.4041C12.7977 20.4835 12.5866 20.51 12.5866 20.4306C12.4282 19.1603 12.4282 17.9165 12.6921 16.6726C12.6921 16.4874 12.7713 16.2757 12.8505 16.064Z" fill="url(#paint4_linear_927_745)"/>
<defs>
<linearGradient id="paint0_linear_927_745" x1="0.602982" y1="1.67263" x2="24.161" y2="26.8787" gradientUnits="userSpaceOnUse">
<stop stop-color="#2E599A"/>
<stop offset="1" stop-color="#4D94FE"/>
</linearGradient>
<linearGradient id="paint1_linear_927_745" x1="11.1301" y1="7.81951" x2="12.702" y2="15.3046" gradientUnits="userSpaceOnUse">
<stop offset="0.0111982" stop-color="#19A9DF"/>
<stop offset="1" stop-color="#0B8DFF"/>
</linearGradient>
<linearGradient id="paint2_linear_927_745" x1="9.82575" y1="10.6173" x2="13.4674" y2="19.7385" gradientUnits="userSpaceOnUse">
<stop offset="0.0111982" stop-color="#19A9DF"/>
<stop offset="1" stop-color="#0B8DFF"/>
</linearGradient>
<linearGradient id="paint3_linear_927_745" x1="12.533" y1="14.7501" x2="12.533" y2="20.0477" gradientUnits="userSpaceOnUse">
<stop stop-color="#025227"/>
<stop offset="1" stop-color="#095B2E"/>
</linearGradient>
<linearGradient id="paint4_linear_927_745" x1="12.6528" y1="16.063" x2="12.6528" y2="20.4861" gradientUnits="userSpaceOnUse">
<stop stop-color="#025227"/>
<stop offset="1" stop-color="#00652E"/>
</linearGradient>
</defs>
</svg>
