<svg width="125" height="34" viewBox="0 0 125 34" fill="none" xmlns="http://www.w3.org/2000/svg">
<mask id="mask0_230_18245" style="mask-type:luminance" maskUnits="userSpaceOnUse" x="0" y="0" width="125" height="34">
<path d="M124.908 0H0V33.7218H124.908V0Z" fill="white"/>
</mask>
<g mask="url(#mask0_230_18245)">
<path d="M14.4961 24.8504V32.3923H14.8032V24.4795C14.7111 24.634 14.6189 24.6649 14.4961 24.8504Z" fill="#A5A5A5"/>
<path d="M26.8735 9.51953L21.376 12.6723C21.376 12.7959 21.376 12.9195 21.376 13.0123L27.0271 9.79771L26.8735 9.51953Z" fill="#A5A5A5"/>
<path d="M7.67824 20.5544L0.982907 24.3872V9.45807L8.23106 13.6617C8.3232 13.5999 8.38462 13.5072 8.47676 13.4453L0.675781 8.93262V24.9126L7.64752 20.8944C7.67824 20.7708 7.67824 20.6781 7.67824 20.5544Z" fill="#A5A5A5"/>
<path d="M14.4961 1.1748V8.84026C14.5882 8.84026 14.7111 8.84026 14.8032 8.87117V1.73117L27.856 9.73662V23.4912L26.9347 24.1712L21.3757 20.9257C21.3757 21.0493 21.3757 21.173 21.3757 21.2966L26.9654 24.5421L28.1939 23.6766V9.58208L14.4961 1.1748Z" fill="#A5A5A5"/>
<path d="M15.4793 16.0723C15.4486 16.165 15.4179 16.3195 15.3564 16.4741L15.4793 16.4123C15.4793 16.2886 15.4793 16.165 15.4793 16.0723Z" fill="#A5A5A5"/>
<path d="M15.5717 17.5562L15.0496 17.2471C15.0189 17.3398 14.9575 17.4325 14.9268 17.5253L15.6331 17.9271C15.6024 17.8034 15.5717 17.6798 15.5717 17.5562Z" fill="#A5A5A5"/>
<path d="M14.527 33.7218L0 25.3145V8.43818L14.527 0L29.0541 8.43818V25.3145L14.527 33.7218ZM1.99631 24.14L14.527 31.4345L27.027 24.14V9.58182L14.527 2.31818L1.99631 9.58182V24.14Z" fill="url(#paint0_linear_230_18245)"/>
<path d="M15.1106 17.3396C14.3735 18.2669 13.575 19.1942 13.0836 20.3069C13.0529 20.3996 12.8379 21.0796 12.8379 21.1723C12.715 22.2233 13.1757 23.0578 14.1278 23.4287C14.2199 23.4596 15.0492 23.4596 15.4791 23.0578C15.5406 22.996 15.602 22.9342 15.6941 22.8723C15.6941 22.8723 16.1855 22.4087 16.3391 21.1723C16.4927 19.8433 16.0013 18.6069 15.4791 17.4014C15.387 17.1851 15.2334 17.1851 15.1106 17.3396Z" fill="#49AA4C"/>
<path d="M6.08105 16.5677C6.51103 16.1658 6.91029 15.764 7.37098 15.3931C9.42872 13.6622 11.5172 11.9313 13.5749 10.1695C14.1892 9.64403 14.8341 9.64403 15.4484 10.1695C16.1548 10.7568 16.8612 11.3749 17.5675 11.9622C17.629 12.024 17.7211 12.0858 17.844 12.1786C17.844 11.5295 17.844 10.9422 17.844 10.3549C17.844 9.92221 17.9054 9.82948 18.3661 9.82948C18.9189 9.82948 19.4717 9.82948 20.0553 9.82948C20.4238 9.82948 20.5159 9.92221 20.5159 10.2931C20.5159 11.5913 20.5159 12.8895 20.5159 14.1568C20.5159 14.3113 20.6081 14.4968 20.7309 14.5895C21.3759 15.1458 22.0209 15.6713 22.6658 16.2277C22.758 16.3204 22.8501 16.444 22.9422 16.5368C22.9422 16.5677 22.9422 16.6295 22.9422 16.6604C22.7272 16.9386 22.5123 17.1858 22.2973 17.4331C22.0516 17.7113 21.898 17.7422 21.6216 17.4949C20.2702 16.3513 18.9189 15.2386 17.5675 14.0949C16.6155 13.3222 15.6941 12.5186 14.742 11.7149C14.5884 11.5913 14.4963 11.5913 14.3427 11.7149C12.07 13.6313 9.79727 15.5168 7.52454 17.4331C7.15599 17.7422 7.00243 17.7422 6.69531 17.3713C6.48032 17.124 6.29604 16.8458 6.11177 16.5986C6.08105 16.6295 6.08105 16.5986 6.08105 16.5677Z" fill="url(#paint1_linear_230_18245)"/>
<path d="M14.5269 12.5186C15.9397 13.6931 17.3218 14.8367 18.7345 16.0113C19.2567 16.444 19.8095 16.8767 20.3316 17.3404C20.4237 17.4331 20.5159 17.5876 20.5159 17.7113C20.5159 19.3186 20.5159 20.9258 20.5159 22.5331C20.5159 22.9349 20.2702 23.2131 19.9016 23.2131C18.6117 23.2131 17.3218 23.2131 16.0318 23.2131C15.9704 23.2131 15.2947 23.1822 15.2026 23.1822C16.554 22.0076 16.4925 20.5858 15.8169 19.2258C15.3869 17.6804 15.7554 16.3822 13.667 19.2258C12.592 20.4313 12.6228 22.564 13.8513 23.1822C13.7284 23.1822 12.9299 23.2131 12.8377 23.2131C11.64 23.2131 10.4115 23.2131 9.21366 23.2131C8.72226 23.2131 8.50728 22.9967 8.47656 22.4713C8.47656 20.8949 8.47656 19.3186 8.47656 17.7422C8.47656 17.6186 8.5687 17.4331 8.66084 17.3404C10.6264 15.764 12.5613 14.1567 14.5269 12.5186Z" fill="url(#paint2_linear_230_18245)"/>
<path d="M15.1106 17.3396C14.3735 18.2669 13.575 19.1942 13.0836 20.3069C13.0529 20.3996 12.8379 21.0796 12.8379 21.1723C12.715 22.2233 13.1757 23.0578 14.1278 23.4287C14.1585 23.4287 14.1892 23.1814 14.0971 23.1196C13.2678 22.656 12.93 21.976 13.145 21.0178C13.36 20.1214 13.8821 19.3796 14.4042 18.6378C14.6499 18.2978 14.9263 17.9578 15.2334 17.5869C15.7556 18.8851 16.1855 20.1523 16.0013 21.5123C15.9091 22.0996 15.6941 22.5942 15.2027 22.9342C15.1413 22.9651 15.2027 23.3051 15.4791 23.0578C15.5406 22.996 15.602 22.9342 15.6941 22.8723C15.6941 22.8723 16.1855 22.4087 16.3391 21.1723C16.4927 19.8433 16.0013 18.6069 15.4791 17.4014C15.387 17.1851 15.2334 17.1851 15.1106 17.3396Z" fill="url(#paint3_linear_230_18245)"/>
<path d="M14.9573 18.7617C14.7423 20.4617 14.7423 22.1617 14.8959 23.8308C14.8959 23.9235 14.6502 23.9544 14.6502 23.8617C14.4659 22.3781 14.4659 20.9254 14.773 19.4726C14.773 19.2563 14.8652 19.009 14.9573 18.7617Z" fill="url(#paint4_linear_230_18245)"/>
<path d="M37.377 16.8765C37.377 16.0728 37.5612 15.3619 37.9298 14.7437C38.2983 14.1256 38.7897 13.631 39.4347 13.2601C40.0797 12.8892 40.7553 12.7346 41.5231 12.7346C42.3831 12.7346 43.1509 12.951 43.8266 13.3837C44.5023 13.8165 44.9937 14.4037 45.3008 15.1765H43.7037C43.4887 14.7437 43.2123 14.4346 42.8438 14.2183C42.4752 14.0019 42.0453 13.9092 41.5539 13.9092C41.0317 13.9092 40.5403 14.0328 40.1104 14.2801C39.6804 14.5274 39.3733 14.8674 39.1276 15.331C38.8819 15.7946 38.7897 16.3201 38.7897 16.9074C38.7897 17.4946 38.9126 18.0201 39.1276 18.4837C39.3733 18.9474 39.7111 19.2874 40.1104 19.5346C40.5403 19.7819 41.001 19.9056 41.5539 19.9056C42.0453 19.9056 42.4752 19.8128 42.8438 19.5965C43.2123 19.3801 43.5195 19.071 43.7037 18.6383H45.3008C44.9937 19.411 44.5023 20.0292 43.8266 20.431C43.1509 20.8637 42.3831 21.0492 41.5231 21.0492C40.7553 21.0492 40.0797 20.8637 39.4347 20.5237C38.8204 20.1528 38.2983 19.6583 37.9298 19.0401C37.5612 18.391 37.377 17.6801 37.377 16.8765ZM46.4064 17.711C46.4064 17.0619 46.5293 16.5056 46.8057 15.9801C47.0821 15.4856 47.4507 15.0837 47.9114 14.8365C48.372 14.5583 48.8942 14.4037 49.447 14.4037C49.9384 14.4037 50.3991 14.4965 50.7676 14.7128C51.1362 14.8983 51.4433 15.1456 51.689 15.4546V14.5274H53.0403V20.9565H51.689V19.9983C51.474 20.3074 51.1669 20.5546 50.7676 20.771C50.3684 20.9874 49.9384 21.0801 49.447 21.0801C48.8942 21.0801 48.4028 20.9256 47.9421 20.6474C47.4814 20.3692 47.1128 19.9674 46.8364 19.4419C46.5293 18.9474 46.4064 18.3601 46.4064 17.711ZM51.6583 17.7419C51.6583 17.3092 51.5661 16.9074 51.3819 16.5983C51.1976 16.2583 50.9519 16.011 50.6755 15.8565C50.3684 15.671 50.0612 15.6092 49.7234 15.6092C49.3856 15.6092 49.0784 15.7019 48.7713 15.8565C48.4642 16.011 48.2492 16.2583 48.0342 16.5983C47.8499 16.9074 47.7578 17.3092 47.7578 17.7419C47.7578 18.1746 47.8499 18.5765 48.0342 18.9165C48.2185 19.2565 48.4642 19.5037 48.7713 19.6892C49.0784 19.8746 49.3856 19.9365 49.7234 19.9365C50.0612 19.9365 50.3991 19.8437 50.6755 19.6892C50.9826 19.5037 51.1976 19.2565 51.3819 18.9474C51.5661 18.5765 51.6583 18.1746 51.6583 17.7419ZM56.0809 15.4546C56.2652 15.1146 56.5416 14.8674 56.8487 14.6819C57.1865 14.4965 57.5551 14.4037 58.0158 14.4037V15.7946H57.6779C57.1558 15.7946 56.7566 15.9183 56.4801 16.1965C56.2037 16.4746 56.0809 16.9074 56.0809 17.5874V20.9874H54.7602V14.5274H56.0809V15.4546ZM60.5342 15.4856C60.7492 15.1765 61.0563 14.9292 61.4556 14.7128C61.8548 14.4965 62.2848 14.4037 62.7762 14.4037C63.329 14.4037 63.8512 14.5274 64.3118 14.8056C64.7725 15.0837 65.1411 15.4546 65.3868 15.9801C65.6632 16.4746 65.786 17.0619 65.786 17.711C65.786 18.3601 65.6632 18.9474 65.3868 19.4419C65.1104 19.9365 64.7725 20.3383 64.2811 20.6474C63.8204 20.9256 63.329 21.0801 62.7455 21.0801C62.2541 21.0801 61.7934 20.9874 61.4249 20.8019C61.0563 20.6165 60.7492 20.3692 60.5035 20.0601V20.9874H59.1828V12.3328H60.5035V15.4856H60.5342ZM64.4347 17.711C64.4347 17.2783 64.3426 16.8765 64.1583 16.5674C63.974 16.2274 63.7283 15.9801 63.4212 15.8256C63.1141 15.6401 62.8069 15.5783 62.4691 15.5783C62.1313 15.5783 61.8241 15.671 61.517 15.8256C61.2099 16.011 60.9949 16.2583 60.7799 16.5674C60.5956 16.9074 60.5035 17.2783 60.5035 17.711C60.5035 18.1437 60.5956 18.5456 60.7799 18.8856C60.9642 19.2256 61.2099 19.4728 61.517 19.6274C61.8241 19.8128 62.1313 19.8746 62.4691 19.8746C62.8069 19.8746 63.1448 19.7819 63.4212 19.6274C63.7283 19.4419 63.974 19.1946 64.1583 18.8546C64.3426 18.5456 64.4347 18.1746 64.4347 17.711ZM69.9015 21.0801C69.2873 21.0801 68.7344 20.9565 68.243 20.6783C67.7516 20.4001 67.3831 19.9983 67.076 19.5037C66.7996 19.0092 66.646 18.4219 66.646 17.7419C66.646 17.0928 66.7996 16.5056 67.076 16.011C67.3524 15.5165 67.7516 15.1146 68.243 14.8365C68.7344 14.5583 69.2873 14.4346 69.9015 14.4346C70.5158 14.4346 71.0686 14.5583 71.56 14.8365C72.0514 15.1146 72.4507 15.4856 72.7271 16.011C73.0035 16.5056 73.1571 17.0928 73.1571 17.7419C73.1571 18.391 73.0035 18.9783 72.7271 19.4728C72.42 19.9674 72.0207 20.3692 71.5293 20.6474C71.0686 20.9256 70.5158 21.0801 69.9015 21.0801ZM69.9015 19.9056C70.2394 19.9056 70.5465 19.8128 70.8536 19.6583C71.1607 19.5037 71.4064 19.2565 71.5907 18.9165C71.775 18.5765 71.8671 18.2056 71.8671 17.711C71.8671 17.2474 71.775 16.8456 71.5907 16.5365C71.4064 16.1965 71.1607 15.9492 70.8843 15.7946C70.5772 15.6401 70.2701 15.5474 69.9322 15.5474C69.5944 15.5474 69.2873 15.6401 68.9802 15.7946C68.7037 15.9492 68.458 16.1965 68.3045 16.5365C68.1202 16.8456 68.0588 17.2474 68.0588 17.711C68.0588 18.391 68.243 18.9474 68.5809 19.3183C68.9187 19.7201 69.3487 19.9056 69.9015 19.9056ZM77.7639 14.4346C78.2553 14.4346 78.716 14.5274 79.1153 14.7437C79.5145 14.9601 79.8217 15.2692 80.0674 15.671C80.2824 16.0728 80.4052 16.5674 80.4052 17.1546V20.9565H79.0846V17.371C79.0846 16.7837 78.931 16.351 78.6546 16.0419C78.3782 15.7328 77.9789 15.5783 77.4875 15.5783C76.9961 15.5783 76.5969 15.7328 76.2897 16.0419C76.0133 16.351 75.8598 16.7837 75.8598 17.371V20.9565H74.5391V14.5274H75.8598V15.2692C76.0747 14.991 76.3512 14.8056 76.689 14.651C77.0268 14.4965 77.3954 14.4346 77.7639 14.4346ZM87.0391 16.1656V17.3092H82.248V16.1965H87.0391V16.1656ZM93.7959 19.3183H90.4175L89.834 20.9874H88.4519L91.3389 12.8583H92.8745L95.7615 20.9874H94.3487L93.7959 19.3183ZM93.4273 18.2365L92.1067 14.4656L90.786 18.2365H93.4273ZM96.5907 17.711C96.5907 17.0619 96.7136 16.5056 96.99 15.9801C97.2664 15.4856 97.6349 15.0837 98.0956 14.8365C98.5563 14.5583 99.0784 14.4037 99.6313 14.4037C100.061 14.4037 100.46 14.4965 100.86 14.6819C101.259 14.8674 101.597 15.1146 101.843 15.3928V12.3328H103.194V20.9874H101.843V20.0292C101.628 20.3383 101.32 20.5856 100.921 20.8019C100.553 21.0183 100.092 21.111 99.6005 21.111C99.0477 21.111 98.5256 20.9565 98.0649 20.6783C97.6042 20.4001 97.2357 19.9983 96.9593 19.4728C96.7443 18.9474 96.5907 18.3601 96.5907 17.711ZM101.873 17.7419C101.873 17.3092 101.781 16.9074 101.597 16.5983C101.413 16.2583 101.167 16.011 100.89 15.8565C100.583 15.671 100.276 15.6092 99.9384 15.6092C99.6005 15.6092 99.2934 15.7019 98.9863 15.8565C98.6792 16.011 98.4642 16.2583 98.2492 16.5983C98.0649 16.9074 97.9728 17.3092 97.9728 17.7419C97.9728 18.1746 98.0649 18.5765 98.2492 18.9165C98.4335 19.2565 98.6792 19.5037 98.9863 19.6892C99.2934 19.8746 99.6005 19.9365 99.9384 19.9365C100.276 19.9365 100.583 19.8437 100.89 19.6892C101.198 19.5037 101.413 19.2565 101.597 18.9474C101.781 18.5765 101.873 18.1746 101.873 17.7419ZM105.62 13.6928C105.374 13.6928 105.19 13.6001 105.006 13.4456C104.852 13.291 104.76 13.0746 104.76 12.8274C104.76 12.5801 104.852 12.3946 105.006 12.2092C105.16 12.0546 105.374 11.9619 105.62 11.9619C105.866 11.9619 106.05 12.0546 106.204 12.2092C106.357 12.3637 106.449 12.5801 106.449 12.8274C106.449 13.0746 106.357 13.2601 106.204 13.4456C106.05 13.6001 105.866 13.6928 105.62 13.6928ZM106.265 22.2237C106.265 22.8419 106.112 23.3056 105.774 23.5837C105.467 23.8619 105.006 24.0165 104.422 24.0165H103.747V22.9037H104.207C104.484 22.9037 104.668 22.8419 104.791 22.7492C104.914 22.6565 104.975 22.471 104.975 22.2237V14.5274H106.296V22.2237H106.265ZM113.82 14.5274V20.9565H112.5V20.1837C112.285 20.4619 112.008 20.6474 111.671 20.8019C111.333 20.9565 110.964 21.0183 110.596 21.0183C110.104 21.0183 109.644 20.9256 109.244 20.7092C108.845 20.4928 108.538 20.1837 108.292 19.7819C108.077 19.3801 107.954 18.8856 107.954 18.2983V14.5274H109.275V18.1128C109.275 18.7001 109.429 19.1328 109.705 19.4419C109.981 19.751 110.381 19.9056 110.872 19.9056C111.363 19.9056 111.763 19.751 112.039 19.4419C112.346 19.1328 112.469 18.7001 112.469 18.1128V14.5274H113.82ZM117.905 21.0801C117.414 21.0801 116.953 20.9874 116.554 20.8019C116.155 20.6165 115.847 20.3692 115.602 20.0601C115.356 19.751 115.233 19.3801 115.233 19.0092H116.615C116.646 19.2874 116.769 19.5037 117.015 19.6892C117.26 19.8746 117.567 19.9674 117.905 19.9674C118.274 19.9674 118.55 19.9056 118.765 19.751C118.98 19.5965 119.072 19.411 119.072 19.1946C119.072 18.9474 118.949 18.7619 118.734 18.6692C118.519 18.5456 118.151 18.4219 117.66 18.2983C117.168 18.1746 116.8 18.051 116.492 17.9274C116.185 17.8037 115.94 17.6183 115.694 17.3401C115.479 17.0928 115.356 16.7528 115.356 16.3201C115.356 15.9801 115.448 15.671 115.663 15.3928C115.878 15.1146 116.155 14.8674 116.523 14.7128C116.892 14.5583 117.352 14.4656 117.813 14.4656C118.55 14.4656 119.134 14.651 119.564 15.0219C120.024 15.3928 120.27 15.8874 120.301 16.5365H118.98C118.949 16.2583 118.827 16.011 118.642 15.8565C118.427 15.671 118.151 15.6092 117.782 15.6092C117.445 15.6092 117.168 15.671 116.984 15.7946C116.8 15.9183 116.707 16.1037 116.707 16.3201C116.707 16.5056 116.769 16.6292 116.892 16.7528C117.015 16.8765 117.168 16.9692 117.352 17.031C117.537 17.0928 117.782 17.1856 118.151 17.2783C118.612 17.4019 119.011 17.5256 119.287 17.6492C119.594 17.7728 119.84 17.9583 120.055 18.2056C120.27 18.4528 120.393 18.7928 120.393 19.1946C120.393 19.5656 120.301 19.8746 120.086 20.1837C119.871 20.4619 119.594 20.7092 119.226 20.8637C118.857 20.9874 118.397 21.0801 117.905 21.0801ZM123.372 15.6092V19.1637C123.372 19.411 123.433 19.5656 123.526 19.6892C123.648 19.7819 123.833 19.8437 124.109 19.8437H124.938V20.9565H123.894C123.311 20.9565 122.85 20.8019 122.512 20.5237C122.205 20.2456 122.021 19.7819 122.021 19.1637V15.6092H121.253V14.5274H122.021V12.9201H123.372V14.5274H124.938V15.6092H123.372Z" fill="#139EEC"/>
</g>
<defs>
<linearGradient id="paint0_linear_230_18245" x1="0.70172" y1="1.95355" x2="28.2226" y2="31.2965" gradientUnits="userSpaceOnUse">
<stop stop-color="#2E599A"/>
<stop offset="1" stop-color="#4D94FE"/>
</linearGradient>
<linearGradient id="paint1_linear_230_18245" x1="12.9542" y1="9.13288" x2="14.796" y2="17.8725" gradientUnits="userSpaceOnUse">
<stop offset="0.0111982" stop-color="#19A9DF"/>
<stop offset="1" stop-color="#0B8DFF"/>
</linearGradient>
<linearGradient id="paint2_linear_230_18245" x1="11.4358" y1="12.4012" x2="15.6999" y2="23.044" gradientUnits="userSpaceOnUse">
<stop offset="0.0111982" stop-color="#19A9DF"/>
<stop offset="1" stop-color="#0B8DFF"/>
</linearGradient>
<linearGradient id="paint3_linear_230_18245" x1="14.5868" y1="17.2266" x2="14.5868" y2="23.4139" gradientUnits="userSpaceOnUse">
<stop stop-color="#025227"/>
<stop offset="1" stop-color="#095B2E"/>
</linearGradient>
<linearGradient id="paint4_linear_230_18245" x1="14.7274" y1="18.7605" x2="14.7274" y2="23.9266" gradientUnits="userSpaceOnUse">
<stop stop-color="#025227"/>
<stop offset="1" stop-color="#00652E"/>
</linearGradient>
</defs>
</svg>
