<svg width="32" height="32" viewBox="0 0 32 32" fill="none" xmlns="http://www.w3.org/2000/svg">
<path d="M12.1884 29H19.9997C26.5092 29 29.1129 26.4 29.1129 19.9V12.1C29.1129 5.6 26.5092 3 19.9997 3H12.1884C5.67897 3 3.0752 5.6 3.0752 12.1V19.9C3.0752 26.4 5.67897 29 12.1884 29Z" stroke="#4F4F4F" stroke-width="1.95283" stroke-linecap="round" stroke-linejoin="round"/>
<path d="M12.1887 13.3997C13.6268 13.3997 14.7925 12.2356 14.7925 10.7997C14.7925 9.36377 13.6268 8.19971 12.1887 8.19971C10.7507 8.19971 9.58496 9.36377 9.58496 10.7997C9.58496 12.2356 10.7507 13.3997 12.1887 13.3997Z" stroke="#4F4F4F" stroke-width="1.95283" stroke-linecap="round" stroke-linejoin="round"/>
<path d="M3.94727 25.0348L10.3656 20.7318C11.3941 20.0428 12.8782 20.1208 13.8025 20.9138L14.2322 21.2908C15.2476 22.1618 16.888 22.1618 17.9035 21.2908L23.3193 16.6498C24.3348 15.7788 25.9752 15.7788 26.9907 16.6498L29.1127 18.4698" stroke="#4F4F4F" stroke-width="1.95283" stroke-linecap="round" stroke-linejoin="round"/>
</svg>
