<svg width="38" height="43" viewBox="0 0 38 43" fill="none" xmlns="http://www.w3.org/2000/svg">
<path d="M18.4785 31.6489V41.2291H18.87V31.1777C18.7526 31.374 18.6351 31.4133 18.4785 31.6489Z" fill="#A5A5A5"/>
<path d="M34.256 12.1748L27.248 16.1796C27.248 16.3367 27.248 16.4937 27.248 16.6115L34.4517 12.5282L34.256 12.1748Z" fill="#A5A5A5"/>
<path d="M9.78713 26.192L1.25234 31.0606V12.0967L10.4918 17.4364C10.6093 17.3579 10.6876 17.2401 10.805 17.1616L0.86084 11.4292V31.728L9.74798 26.6239C9.78713 26.4668 9.78713 26.349 9.78713 26.192Z" fill="#A5A5A5"/>
<path d="M18.4785 1.57373V11.3109C18.596 11.3109 18.7526 11.3109 18.87 11.3501V2.28046L35.5089 12.4495V29.9214L34.3344 30.7852L27.2482 26.6626C27.2482 26.8197 27.2482 26.9767 27.2482 27.1338L34.3736 31.2563L35.9396 30.157V12.2532L18.4785 1.57373Z" fill="#A5A5A5"/>
<path d="M19.7303 20.499C19.6912 20.6168 19.652 20.8131 19.5737 21.0094L19.7303 20.9309C19.7303 20.7739 19.7303 20.6168 19.7303 20.499Z" fill="#A5A5A5"/>
<path d="M19.848 22.3833L19.1825 21.9907C19.1433 22.1085 19.065 22.2263 19.0259 22.3441L19.9263 22.8545C19.8872 22.6975 19.848 22.5404 19.848 22.3833Z" fill="#A5A5A5"/>
<path d="M18.5181 42.9177L0 32.2382V10.8008L18.5181 0.0820312L37.0363 10.8008V32.2382L18.5181 42.9177ZM2.54478 30.7462L18.5181 40.0122L34.4524 30.7462V12.2535L18.5181 3.02673L2.54478 12.2535V30.7462Z" fill="url(#paint0_linear_4152_26175)"/>
<path d="M19.2618 22.1089C18.3222 23.2867 17.3043 24.4646 16.6779 25.8781C16.6388 25.9959 16.3647 26.8597 16.3647 26.9774C16.2081 28.3124 16.7954 29.3725 18.009 29.8436C18.1265 29.8829 19.1835 29.8829 19.7316 29.3725C19.8099 29.2939 19.8882 29.2154 20.0057 29.1369C20.0057 29.1369 20.6321 28.548 20.8279 26.9774C21.0236 25.2891 20.3972 23.7186 19.7316 22.1874C19.6142 21.9126 19.4184 21.9126 19.2618 22.1089Z" fill="#49AA4C"/>
<path d="M7.75146 21.127C8.29957 20.6166 8.80852 20.1062 9.39578 19.635C12.0189 17.4363 14.6811 15.2376 17.3042 12.9996C18.0872 12.3322 18.9093 12.3322 19.6923 12.9996C20.5928 13.7456 21.4933 14.5309 22.3937 15.2769C22.472 15.3554 22.5895 15.4339 22.7461 15.5517C22.7461 14.7272 22.7461 13.9812 22.7461 13.2352C22.7461 12.6855 22.8244 12.5677 23.4116 12.5677C24.1163 12.5677 24.821 12.5677 25.5649 12.5677C26.0347 12.5677 26.1522 12.6855 26.1522 13.1567C26.1522 14.8057 26.1522 16.4547 26.1522 18.0645C26.1522 18.2608 26.2696 18.4964 26.4262 18.6142C27.2484 19.3209 28.0705 19.9884 28.8927 20.6951C29.0101 20.8129 29.1276 20.97 29.245 21.0877C29.245 21.127 29.245 21.2055 29.245 21.2448C28.971 21.5982 28.6969 21.9123 28.4229 22.2264C28.1097 22.5797 27.9139 22.619 27.5616 22.3049C25.8389 20.8522 24.1163 19.4387 22.3937 17.986C21.18 17.0044 20.0055 15.9836 18.7919 14.9628C18.5961 14.8057 18.4787 14.8057 18.2829 14.9628C15.3858 17.397 12.4887 19.7921 9.59153 22.2264C9.12173 22.619 8.92598 22.619 8.53447 22.1478C8.26042 21.8337 8.02551 21.4804 7.79061 21.1663C7.75146 21.2055 7.75146 21.1663 7.75146 21.127Z" fill="url(#paint1_linear_4152_26175)"/>
<path d="M18.5178 15.9829C20.3187 17.4749 22.0805 18.9276 23.8814 20.4196C24.547 20.9693 25.2517 21.519 25.9172 22.1079C26.0347 22.2257 26.1521 22.422 26.1521 22.579C26.1521 24.6207 26.1521 26.6624 26.1521 28.704C26.1521 29.2144 25.8389 29.5678 25.3691 29.5678C23.7248 29.5678 22.0805 29.5678 20.4362 29.5678C20.3579 29.5678 19.4966 29.5285 19.3791 29.5285C21.1017 28.0366 21.0234 26.2305 20.1621 24.5029C19.614 22.5398 20.0838 20.8907 17.4216 24.5029C16.0513 26.0342 16.0905 28.7433 17.6565 29.5285C17.4999 29.5285 16.482 29.5678 16.3645 29.5678C14.8377 29.5678 13.2716 29.5678 11.7448 29.5678C11.1184 29.5678 10.8443 29.293 10.8052 28.6255C10.8052 26.6231 10.8052 24.6207 10.8052 22.6183C10.8052 22.4613 10.9226 22.2257 11.0401 22.1079C13.5457 20.1055 16.0122 18.0638 18.5178 15.9829Z" fill="url(#paint2_linear_4152_26175)"/>
<path d="M19.2618 22.1089C18.3222 23.2867 17.3043 24.4646 16.6779 25.8781C16.6388 25.9959 16.3647 26.8597 16.3647 26.9774C16.2081 28.3124 16.7954 29.3725 18.009 29.8436C18.0482 29.8436 18.0873 29.5295 17.9699 29.451C16.9128 28.8621 16.4822 27.9983 16.7562 26.7811C17.0303 25.6425 17.6958 24.7002 18.3614 23.7579C18.6746 23.326 19.0269 22.8941 19.4184 22.423C20.084 24.072 20.6321 25.6818 20.3972 27.4093C20.2797 28.1553 20.0057 28.7835 19.3793 29.2154C19.301 29.2547 19.3793 29.6866 19.7316 29.3725C19.8099 29.2939 19.8882 29.2154 20.0057 29.1369C20.0057 29.1369 20.6321 28.548 20.8279 26.9774C21.0236 25.2891 20.3972 23.7186 19.7316 22.1874C19.6142 21.9126 19.4184 21.9126 19.2618 22.1089Z" fill="url(#paint3_linear_4152_26175)"/>
<path d="M19.065 23.9146C18.7909 26.074 18.7909 28.2334 18.9867 30.3536C18.9867 30.4714 18.6735 30.5107 18.6735 30.3929C18.4386 28.5083 18.4386 26.6629 18.8301 24.8176C18.8301 24.5428 18.9475 24.2287 19.065 23.9146Z" fill="url(#paint4_linear_4152_26175)"/>
<defs>
<linearGradient id="paint0_linear_4152_26175" x1="0.894587" y1="2.56355" x2="35.8453" y2="39.9595" gradientUnits="userSpaceOnUse">
<stop stop-color="#2E599A"/>
<stop offset="1" stop-color="#4D94FE"/>
</linearGradient>
<linearGradient id="paint1_linear_4152_26175" x1="16.5129" y1="11.6829" x2="18.845" y2="22.7878" gradientUnits="userSpaceOnUse">
<stop offset="0.0111982" stop-color="#19A9DF"/>
<stop offset="1" stop-color="#0B8DFF"/>
</linearGradient>
<linearGradient id="paint2_linear_4152_26175" x1="14.5773" y1="15.8339" x2="19.9801" y2="29.3661" gradientUnits="userSpaceOnUse">
<stop offset="0.0111982" stop-color="#19A9DF"/>
<stop offset="1" stop-color="#0B8DFF"/>
</linearGradient>
<linearGradient id="paint3_linear_4152_26175" x1="18.5939" y1="21.9653" x2="18.5939" y2="29.8248" gradientUnits="userSpaceOnUse">
<stop stop-color="#025227"/>
<stop offset="1" stop-color="#095B2E"/>
</linearGradient>
<linearGradient id="paint4_linear_4152_26175" x1="18.7718" y1="23.9131" x2="18.7718" y2="30.4753" gradientUnits="userSpaceOnUse">
<stop stop-color="#025227"/>
<stop offset="1" stop-color="#00652E"/>
</linearGradient>
</defs>
</svg>
