<svg width="11" height="11" viewBox="0 0 11 11" fill="none" xmlns="http://www.w3.org/2000/svg">
<path fill-rule="evenodd" clip-rule="evenodd" d="M7.26265 0.707031H2.90185C1.38374 0.707031 0.431641 1.78261 0.431641 3.30476V7.41052C0.431641 8.93266 1.37971 10.0082 2.90185 10.0082H7.26013C8.78479 10.0082 9.73235 8.93266 9.73235 7.41052V3.30476C9.73437 1.78261 8.7863 0.707031 7.26265 0.707031Z" stroke="#DF6E49" stroke-width="0.756032" stroke-linecap="round" stroke-linejoin="round"/>
<path fill-rule="evenodd" clip-rule="evenodd" d="M4.43995 3.74878C4.43995 4.26289 4.02363 4.67921 3.50953 4.67921C2.99593 4.67921 2.5791 4.26289 2.5791 3.74878C2.5791 3.23468 2.99593 2.81836 3.50953 2.81836C4.02312 2.81886 4.43945 3.23519 4.43995 3.74878Z" stroke="#DF6E49" stroke-width="0.756032" stroke-linecap="round" stroke-linejoin="round"/>
<path d="M9.73425 6.85619C9.26904 6.37737 8.3744 5.41016 7.40164 5.41016C6.42837 5.41016 5.8674 7.54368 4.93143 7.54368C3.99546 7.54368 3.14518 6.57898 2.39519 7.19742C1.64521 7.81535 0.935547 9.07893 0.935547 9.07893" stroke="#DF6E49" stroke-width="0.756032" stroke-linecap="round" stroke-linejoin="round"/>
</svg>
