<svg width="12" height="9" viewBox="0 0 12 9" fill="none" xmlns="http://www.w3.org/2000/svg">
<path fill-rule="evenodd" clip-rule="evenodd" d="M8.25978 6.4463C8.30056 7.3697 7.55531 8.15055 6.59537 8.18979C6.52466 8.19277 3.07765 8.18581 3.07765 8.18581C2.12235 8.25833 1.28628 7.57187 1.21093 6.65194C1.20525 6.5834 1.2068 2.88483 1.2068 2.88483C1.16448 1.96043 1.90869 1.1776 2.86915 1.13687C2.94088 1.13339 6.38325 1.13985 6.38325 1.13985C7.3432 1.06832 8.18185 1.75976 8.25617 2.68415C8.26133 2.75071 8.25978 6.4463 8.25978 6.4463Z" stroke="#36978D" stroke-width="0.756032" stroke-linecap="round" stroke-linejoin="round"/>
<path d="M8.26123 3.64448L9.92097 2.28614C10.3323 1.94946 10.9492 2.2428 10.9487 2.77353L10.9426 6.47759C10.9421 7.00832 10.3247 7.29914 9.91442 6.96245L8.26123 5.60412" stroke="#36978D" stroke-width="0.756032" stroke-linecap="round" stroke-linejoin="round"/>
</svg>
