<svg width="231" height="42" viewBox="0 0 231 42" fill="none" xmlns="http://www.w3.org/2000/svg">
<path d="M49.909 9.94158C49.571 9.72915 49.291 9.54568 49.1365 9.1015C48.2191 6.504 46.1913 5.26802 43.5938 4.9204C42.0682 4.71762 40.5039 4.7659 39.0072 5.26802C38.4182 5.4708 37.945 5.38389 37.3946 5.07489C35.0578 3.78097 32.5762 3.59751 30.0173 4.3024C29.8146 4.36034 28.7234 4.83349 28.6462 4.89143C27.4971 5.75082 24.8417 5.46114 22.8042 5.88601C18.3624 6.813 14.78 8.96631 13.2253 13.3792C12.617 15.098 11.8059 16.3919 10.6085 17.7148C7.96274 20.6792 7.32544 24.2133 8.75454 27.9696C9.54635 30.0746 11.1589 31.3299 13.4281 31.6196C13.8819 31.6775 14.1233 31.8224 14.2875 32.2859C15.1179 34.6709 17.5416 36.4766 20.5061 36.2835C21.2013 36.2352 25.5852 37.983 27.3329 37.9443C29.9497 37.8768 32.0065 36.8049 33.4356 34.613C33.7832 34.0819 34.1019 33.8405 34.7778 33.8598C37.3656 33.9274 39.5479 32.9135 41.4502 31.214C41.7978 30.905 42.0682 30.4898 42.6089 30.4995C45.7375 31.0692 48.8178 31.1175 51.734 29.6015C54.4956 28.1627 56.002 25.7873 56.253 22.7649C56.7262 17.2609 54.5729 12.9543 49.909 9.94158ZM45.8148 6.87093C48.2964 8.2421 48.9144 11.3224 47.128 13.1281C45.9306 14.3351 44.3374 14.6538 42.8407 15.1849C42.4351 15.3297 42.1551 15.1173 42.2516 14.5669C42.4544 13.3985 42.4544 12.2301 42.1454 11.0713C41.6819 9.31393 40.7067 7.8462 39.3838 6.38813C41.7012 5.93429 43.8063 5.76048 45.8148 6.87093ZM21.0178 35.0185C18.5941 35.4917 16.1415 34.024 15.398 31.6389C14.9827 30.3064 15.06 28.9835 15.3786 27.6509C15.4752 27.2454 15.398 26.8784 14.9538 26.7626C14.4999 26.6467 14.2778 26.9364 14.1813 27.3419C13.9882 28.1337 13.824 28.9352 13.8626 29.7366C13.8916 30.4029 13.6116 30.4802 13.0901 30.3257C11.4486 29.8525 10.3478 28.7903 9.77809 27.1971C8.15586 22.678 10.734 16.0925 17.2616 15.8222C17.7444 15.8028 18.3045 15.8318 18.2465 15.1366C18.1982 14.5282 17.6671 14.5862 17.2326 14.5958C16.1511 14.6151 15.1179 14.8759 14.0847 15.1752C13.9109 14.7214 14.104 14.3448 14.2296 13.9778C15.6104 9.68087 20.7378 6.69712 25.3245 6.91921C25.9811 6.94818 25.6914 7.19924 25.5369 7.52755C24.8996 8.92769 24.8223 8.89872 24.2623 10.4147V10.4244C23.345 10.4437 22.6111 11.1969 22.6111 12.1142C22.6111 13.0509 23.3643 13.804 24.3009 13.804C25.2279 13.804 25.9907 13.0509 25.9907 12.1142C25.9907 11.5928 25.7493 11.1293 25.3824 10.8203C25.4017 10.7527 25.421 10.6851 25.4403 10.6272C26.3673 7.86551 28.82 5.78945 30.6064 5.45148C35.4344 4.55346 39.9245 7.00612 41.035 11.6507C41.7399 14.6151 40.7936 16.1408 38.1575 16.3726C35.8207 16.5753 34.1984 15.4649 33.6094 13.244C33.5129 12.877 33.339 12.5874 32.9431 12.6067C32.47 12.626 32.3831 12.9833 32.3831 13.3985C32.3734 14.5958 33.0204 15.4745 33.7736 16.2953C32.8363 17.6343 31.4727 18.2213 30.8478 19.9743C30.6353 19.8777 30.3939 19.8198 30.1429 19.8198C29.2159 19.8198 28.453 20.573 28.453 21.5096C28.453 22.4366 29.2159 23.1994 30.1429 23.1994C31.0795 23.1994 31.8327 22.4463 31.8327 21.5096C31.8327 21.2972 31.7941 21.0848 31.7168 20.9013C31.8037 20.7951 31.8617 20.6599 31.9099 20.5054C32.2961 19.2721 33.8306 16.8735 35.4344 17.232C36.7573 17.5313 38.0609 17.8017 39.6542 17.3092C38.1961 19.3273 36.4676 20.544 34.7971 21.8283C32.3155 23.2767 29.998 24.9665 27.6709 26.8012C27.613 26.5501 27.584 26.4246 27.555 26.3087C27.1591 24.4451 26.5508 22.7359 24.5037 22.031C24.3492 21.9731 24.214 21.7607 24.1271 21.5869C23.2484 19.8295 23.3063 18.101 24.3106 16.4015C24.4844 16.1118 24.6968 15.996 25.0348 15.9863C27.2653 15.8801 28.9455 14.7986 30.2105 13.0026C31.0699 12.0563 31.5044 10.8975 31.8037 9.69052C31.9003 9.30428 31.9679 8.84078 31.4175 8.69594C30.8767 8.5511 30.6836 8.96631 30.616 9.38153C30.4519 10.4244 28.8683 12.8384 28.5593 13.1474C26.6087 15.0207 24.3685 15.3104 21.9931 14.0068C21.3075 13.6302 20.6992 13.1571 20.1198 12.6356C19.7915 12.3363 19.4728 11.9211 19.019 12.3653C18.5169 12.8577 18.9707 13.2054 19.3087 13.5337C20.4191 14.5862 21.7131 15.3587 23.2098 15.8511C22.698 16.7974 22.4083 17.7534 22.3117 18.7673C22.2055 19.8198 22.5435 20.8047 22.8042 21.809C21.5393 22.031 20.3322 22.2338 19.1252 22.4656C17.0685 22.8615 17.474 22.8904 14.4613 22.8229C14.3551 22.8229 14.2392 22.8035 14.133 22.7746C13.9399 22.06 13.2833 21.5289 12.5011 21.5289C11.5741 21.5289 10.8113 22.2821 10.8113 23.2188C10.8113 24.1554 11.5741 24.9086 12.5011 24.9086C13.1384 24.9086 13.6985 24.5513 13.9882 24.0299C14.0558 24.0395 14.1234 24.0395 14.1813 24.0299C20.535 23.4698 19.5211 23.1415 20.4288 25.5459C20.9213 26.8495 20.6412 28.0661 19.8012 29.1573C19.4535 29.6208 18.9997 29.9684 18.5169 30.2967C18.1596 30.5478 18.0244 30.8761 18.2948 31.243C18.5459 31.5713 18.8742 31.4844 19.2025 31.3106C21.0661 30.3546 22.2055 27.873 21.771 25.8162C21.5875 24.9279 21.0661 24.194 20.6605 23.4022C21.1434 23.3057 21.5393 23.2188 21.9352 23.1415C24.6389 22.6201 26.9853 24.9375 26.5218 27.6606C26.4832 27.8827 26.348 28.0178 26.2128 28.153C24.3492 29.9394 22.7849 31.9382 21.8386 34.3716C21.7034 34.8061 21.4041 34.9413 21.0178 35.0185ZM25.0444 12.1335C25.0444 12.5487 24.7065 12.8867 24.2913 12.8867C23.876 12.8867 23.5381 12.5487 23.5381 12.1335C23.5381 11.7183 23.876 11.3803 24.2913 11.3803C24.7065 11.3803 25.0444 11.7183 25.0444 12.1335ZM30.896 21.5289C30.896 21.9441 30.5581 22.2821 30.1429 22.2821C29.7277 22.2821 29.3897 21.9441 29.3897 21.5289C29.3897 21.1137 29.7277 20.7758 30.1429 20.7758C30.5581 20.7758 30.896 21.1137 30.896 21.5289ZM13.2736 23.2381C13.2736 23.6533 12.9356 23.9912 12.5204 23.9912C12.1052 23.9912 11.7673 23.6533 11.7673 23.2381C11.7673 22.8229 12.1052 22.4849 12.5204 22.4849C12.9356 22.4849 13.2736 22.8229 13.2736 23.2381ZM23.3546 35.4627C22.9201 35.1054 23.0166 34.8061 23.1711 34.4392C24.0692 32.421 25.392 30.7119 27.0239 29.1476C28.3275 31.3782 30.1332 32.9135 32.5666 33.6474C30.7898 36.8822 26.1549 37.7512 23.3546 35.4627ZM53.3176 26.9267C51.2512 29.3214 46.1238 30.6153 43.1883 29.2056C44.5498 27.1971 44.9747 24.9569 44.8105 22.5814C44.7816 22.1566 44.714 21.7027 44.1829 21.7124C43.6808 21.7221 43.5359 22.118 43.5745 22.5718C43.5842 22.707 43.5938 22.8422 43.5938 22.9774C43.5938 25.3721 41.8944 29.0317 41.8944 29.0317C41.7592 29.2056 41.624 29.3697 41.4888 29.5435C40.108 30.9437 38.563 32.0445 36.5835 32.4983C33.2908 33.2418 29.8532 31.7548 28.2406 28.8C28.144 28.6262 28.0089 28.4234 28.0282 28.2593C28.1247 27.6123 29.7566 26.8881 30.336 27.1971C33.776 29.0317 36.6388 28.4804 39.2389 26.048C39.3065 25.9804 39.3645 25.9128 39.4224 25.8356C39.6542 25.9514 39.9052 26.019 40.1852 26.019C41.1122 26.019 41.8751 25.2659 41.8751 24.3292C41.8751 23.4022 41.1122 22.6394 40.1852 22.6394C39.2486 22.6394 38.4954 23.4022 38.4954 24.3292C38.4954 24.5513 38.534 24.7637 38.6113 24.9569C38.534 25.0148 38.4471 25.0824 38.3699 25.1596C36.188 27.3026 33.4298 27.8123 30.6933 25.9611C32.1996 24.9472 33.5998 24.0009 35.0096 23.0449C37.607 21.4806 39.8762 19.5784 41.3729 16.8747C41.4985 16.6429 41.595 16.3919 41.9233 16.3436C42.9662 16.1891 44.0091 16.0153 45.1099 15.8415C44.8588 16.865 44.7912 17.821 44.9264 18.8059C45.3899 22.031 48.8371 23.8174 51.7243 22.3207C51.7533 22.3111 51.7726 22.2918 51.8016 22.2821C52.0816 22.4945 52.4389 22.6201 52.8154 22.6201C53.7521 22.6201 54.5053 21.8669 54.5053 20.9303C54.5053 19.9936 53.7521 19.2404 52.8154 19.2404C51.8885 19.2404 51.1256 19.9936 51.1256 20.9303C51.1256 21.0365 51.1353 21.1523 51.1546 21.2489C51.0387 21.2972 50.9228 21.3455 50.807 21.3841C48.9047 22.031 47.3791 21.4324 46.4907 19.675C45.6409 18.0044 46.0465 15.7642 47.4853 14.3834C48.1805 13.7171 48.7695 13.0026 49.0785 12.0852C49.4551 10.9651 49.4937 10.9458 50.3821 11.67C53.3369 14.0744 54.9784 17.1547 55.1329 20.9785C55.2584 23.1898 54.7467 25.2755 53.3176 26.9267ZM39.4514 24.3389C39.4514 23.9237 39.7893 23.5857 40.2045 23.5857C40.6198 23.5857 40.9577 23.9237 40.9577 24.3389C40.9577 24.7541 40.6198 25.092 40.2045 25.092C39.7797 25.092 39.4514 24.7541 39.4514 24.3389ZM52.0912 20.9399C52.0912 20.5247 52.4292 20.1867 52.8444 20.1867C53.2596 20.1867 53.5976 20.5247 53.5976 20.9399C53.5976 21.3551 53.2596 21.6931 52.8444 21.6931C52.4292 21.6931 52.0912 21.3551 52.0912 20.9399Z" fill="black" stroke="black" stroke-width="0.320833" stroke-miterlimit="10"/>
<path d="M77.1534 28.7415H67.4544V11.6158H77.1534V13.982H70.2657V18.6324H76.72V20.9869H70.2657V26.3635H77.1534V28.7415ZM89.289 25.0399C89.289 25.8911 89.0821 26.6095 88.6682 27.1952C88.2543 27.7809 87.6491 28.226 86.8525 28.5306C86.0638 28.8274 85.0954 28.9757 83.9475 28.9757C83.0416 28.9757 82.2607 28.9094 81.6047 28.7766C80.9565 28.6516 80.3435 28.4564 79.7656 28.1909V25.813C80.3826 26.1019 81.0737 26.3518 81.839 26.5627C82.6121 26.7735 83.3423 26.8789 84.0295 26.8789C84.9354 26.8789 85.5874 26.7384 85.9857 26.4573C86.384 26.1683 86.5831 25.7857 86.5831 25.3093C86.5831 25.0282 86.5011 24.7783 86.3371 24.5596C86.1809 24.3331 85.8842 24.1028 85.4469 23.8685C85.0173 23.6264 84.3848 23.3375 83.5492 23.0017C82.7292 22.6737 82.0381 22.3457 81.4759 22.0177C80.9136 21.6897 80.488 21.2953 80.199 20.8346C79.9101 20.366 79.7656 19.7686 79.7656 19.0424C79.7656 17.8944 80.2186 17.0237 81.1244 16.4302C82.0381 15.8289 83.2447 15.5282 84.744 15.5282C85.5406 15.5282 86.2903 15.6102 86.9931 15.7742C87.7037 15.9304 88.3988 16.1608 89.0782 16.4653L88.2113 18.5387C87.6256 18.281 87.036 18.0701 86.4425 17.9061C85.8568 17.7343 85.2594 17.6484 84.6503 17.6484C83.9397 17.6484 83.3969 17.7578 83.0221 17.9764C82.6551 18.1951 82.4715 18.5074 82.4715 18.9135C82.4715 19.2181 82.5613 19.4758 82.741 19.6866C82.9206 19.8975 83.229 20.1083 83.6663 20.3192C84.1115 20.53 84.7284 20.7916 85.5171 21.104C86.2903 21.4008 86.9579 21.7131 87.5202 22.0411C88.0903 22.3613 88.5276 22.7557 88.8322 23.2242C89.1367 23.6928 89.289 24.298 89.289 25.0399ZM97.4887 28.9757C96.2627 28.9757 95.2006 28.7376 94.3025 28.2612C93.4045 27.7848 92.7134 27.0547 92.2292 26.0707C91.745 25.0867 91.5029 23.8372 91.5029 22.3223C91.5029 20.7448 91.7684 19.4563 92.2995 18.4567C92.8305 17.4571 93.5646 16.7191 94.5017 16.2428C95.4466 15.7664 96.5282 15.5282 97.7464 15.5282C98.5195 15.5282 99.2185 15.6063 99.8432 15.7625C100.476 15.9109 101.011 16.0944 101.448 16.313L100.628 18.5152C100.152 18.32 99.6636 18.156 99.1638 18.0233C98.664 17.8905 98.1837 17.8241 97.723 17.8241C96.9655 17.8241 96.3329 17.992 95.8253 18.3278C95.3256 18.6636 94.9507 19.1634 94.7008 19.8272C94.4587 20.491 94.3377 21.3149 94.3377 22.2988C94.3377 23.2516 94.4626 24.0559 94.7125 24.7119C94.9624 25.3601 95.3334 25.852 95.8253 26.1878C96.3173 26.5158 96.9225 26.6798 97.641 26.6798C98.3516 26.6798 98.9881 26.5939 99.5504 26.4221C100.113 26.2503 100.644 26.0277 101.143 25.7544V28.144C100.651 28.4252 100.124 28.6321 99.5621 28.7649C98.9998 28.9054 98.3087 28.9757 97.4887 28.9757ZM110.761 15.5282C110.979 15.5282 111.217 15.5399 111.475 15.5634C111.733 15.5868 111.955 15.618 112.143 15.6571L111.885 18.2341C111.721 18.1873 111.518 18.1521 111.276 18.1287C111.042 18.1053 110.831 18.0935 110.643 18.0935C110.151 18.0935 109.683 18.1755 109.238 18.3395C108.793 18.4957 108.398 18.7378 108.055 19.0658C107.711 19.386 107.442 19.7882 107.246 20.2723C107.051 20.7565 106.954 21.3188 106.954 21.9591V28.7415H104.189V15.7742H106.344L106.719 18.0584H106.848C107.106 17.5977 107.426 17.176 107.809 16.7933C108.191 16.4107 108.629 16.1061 109.121 15.8796C109.62 15.6453 110.167 15.5282 110.761 15.5282ZM126.024 22.2285C126.024 23.3062 125.883 24.2629 125.602 25.0984C125.321 25.934 124.911 26.6408 124.372 27.2187C123.833 27.7887 123.185 28.226 122.428 28.5306C121.67 28.8274 120.815 28.9757 119.862 28.9757C118.972 28.9757 118.156 28.8274 117.414 28.5306C116.672 28.226 116.028 27.7887 115.481 27.2187C114.942 26.6408 114.525 25.934 114.228 25.0984C113.931 24.2629 113.783 23.3062 113.783 22.2285C113.783 20.7995 114.029 19.589 114.521 18.5972C115.02 17.5977 115.731 16.8363 116.653 16.313C117.574 15.7898 118.671 15.5282 119.944 15.5282C121.139 15.5282 122.193 15.7898 123.107 16.313C124.021 16.8363 124.735 17.5977 125.251 18.5972C125.766 19.5968 126.024 20.8073 126.024 22.2285ZM116.617 22.2285C116.617 23.1735 116.731 23.9817 116.957 24.6533C117.191 25.3249 117.551 25.8403 118.035 26.1995C118.519 26.551 119.144 26.7267 119.909 26.7267C120.674 26.7267 121.299 26.551 121.783 26.1995C122.267 25.8403 122.623 25.3249 122.849 24.6533C123.076 23.9817 123.189 23.1735 123.189 22.2285C123.189 21.2836 123.076 20.4832 122.849 19.8272C122.623 19.1634 122.267 18.6597 121.783 18.3161C121.299 17.9647 120.67 17.789 119.897 17.789C118.757 17.789 117.926 18.1716 117.402 18.9369C116.879 19.7023 116.617 20.7995 116.617 22.2285ZM139.787 28.7297L138.148 22.6971C138.069 22.4003 137.976 22.0411 137.866 21.6194C137.757 21.1977 137.648 20.7643 137.538 20.3192C137.429 19.8662 137.328 19.4485 137.234 19.0658C137.148 18.6831 137.082 18.3864 137.035 18.1755H136.941C136.902 18.3864 136.84 18.6831 136.754 19.0658C136.668 19.4485 136.57 19.8662 136.461 20.3192C136.351 20.7721 136.242 21.2133 136.133 21.6429C136.031 22.0724 135.938 22.4394 135.852 22.744L134.13 28.7297H131.108L127.476 15.7625H130.264L131.951 22.2051C132.06 22.6424 132.166 23.1149 132.267 23.6225C132.377 24.1301 132.47 24.6143 132.548 25.075C132.626 25.5358 132.685 25.9145 132.724 26.2113H132.818C132.849 26.0004 132.892 25.7349 132.947 25.4147C133.001 25.0867 133.064 24.747 133.134 24.3956C133.204 24.0364 133.275 23.7006 133.345 23.3882C133.415 23.068 133.482 22.8103 133.544 22.6151L135.535 15.7625H138.546L140.455 22.6151C140.541 22.9119 140.635 23.2867 140.736 23.7396C140.838 24.1848 140.928 24.6338 141.006 25.0867C141.092 25.5319 141.146 25.9028 141.17 26.1995H141.263C141.295 25.934 141.349 25.5748 141.427 25.1219C141.513 24.6611 141.611 24.173 141.72 23.6576C141.83 23.1344 141.943 22.6502 142.06 22.2051L143.782 15.7625H146.523L142.868 28.7297H139.787ZM147.624 23.4702V21.1392H153.668V23.4702H147.624ZM162.7 28.7415H159.877V14.0054H154.863V11.6158H167.702V14.0054H162.7V28.7415ZM175.21 15.5282C176.366 15.5282 177.358 15.7664 178.186 16.2428C179.013 16.7191 179.65 17.3946 180.095 18.2693C180.54 19.1439 180.763 20.1903 180.763 21.4086V22.8845H172.106C172.137 24.1418 172.473 25.1102 173.113 25.7896C173.762 26.469 174.667 26.8087 175.831 26.8087C176.659 26.8087 177.401 26.7306 178.057 26.5744C178.72 26.4104 179.404 26.1722 180.107 25.8598V28.0972C179.458 28.4018 178.799 28.6243 178.127 28.7649C177.455 28.9054 176.651 28.9757 175.714 28.9757C174.441 28.9757 173.32 28.7297 172.352 28.2378C171.392 27.738 170.638 26.9961 170.091 26.0121C169.552 25.0282 169.283 23.806 169.283 22.3457C169.283 20.8932 169.529 19.6593 170.021 18.6441C170.513 17.6289 171.204 16.8558 172.094 16.3248C172.985 15.7937 174.023 15.5282 175.21 15.5282ZM175.21 17.6016C174.343 17.6016 173.641 17.8827 173.102 18.445C172.571 19.0072 172.258 19.8311 172.165 20.9166H178.068C178.061 20.2684 177.951 19.6944 177.74 19.1947C177.537 18.6949 177.225 18.3044 176.803 18.0233C176.389 17.7421 175.858 17.6016 175.21 17.6016ZM189.091 28.9757C187.865 28.9757 186.803 28.7376 185.905 28.2612C185.007 27.7848 184.316 27.0547 183.832 26.0707C183.347 25.0867 183.105 23.8372 183.105 22.3223C183.105 20.7448 183.371 19.4563 183.902 18.4567C184.433 17.4571 185.167 16.7191 186.104 16.2428C187.049 15.7664 188.131 15.5282 189.349 15.5282C190.122 15.5282 190.821 15.6063 191.446 15.7625C192.078 15.9109 192.613 16.0944 193.05 16.313L192.23 18.5152C191.754 18.32 191.266 18.156 190.766 18.0233C190.266 17.8905 189.786 17.8241 189.325 17.8241C188.568 17.8241 187.935 17.992 187.428 18.3278C186.928 18.6636 186.553 19.1634 186.303 19.8272C186.061 20.491 185.94 21.3149 185.94 22.2988C185.94 23.2516 186.065 24.0559 186.315 24.7119C186.565 25.3601 186.936 25.852 187.428 26.1878C187.92 26.5158 188.525 26.6798 189.243 26.6798C189.954 26.6798 190.591 26.5939 191.153 26.4221C191.715 26.2503 192.246 26.0277 192.746 25.7544V28.144C192.254 28.4252 191.727 28.6321 191.165 28.7649C190.602 28.9054 189.911 28.9757 189.091 28.9757ZM198.544 10.5147V15.0948C198.544 15.5712 198.529 16.0358 198.497 16.4887C198.474 16.9417 198.447 17.2931 198.415 17.543H198.568C198.841 17.0901 199.177 16.7191 199.575 16.4302C199.973 16.1334 200.418 15.9109 200.91 15.7625C201.41 15.6141 201.941 15.5399 202.504 15.5399C203.495 15.5399 204.339 15.7078 205.034 16.0436C205.729 16.3716 206.26 16.8831 206.627 17.5781C207.002 18.2732 207.189 19.1751 207.189 20.284V28.7415H204.436V20.7995C204.436 19.7921 204.229 19.0385 203.816 18.5387C203.402 18.0311 202.761 17.7773 201.894 17.7773C201.059 17.7773 200.395 17.953 199.903 18.3044C199.419 18.648 199.071 19.1595 198.861 19.8389C198.65 20.5105 198.544 21.3305 198.544 22.2988V28.7415H195.792V10.5147H198.544Z" fill="black"/>
</svg>
