<svg width="236" height="64" viewBox="0 0 236 64" fill="none" xmlns="http://www.w3.org/2000/svg">
<path d="M27.369 46.7778V60.9743H27.9489V46.0796C27.7749 46.3705 27.601 46.4287 27.369 46.7778Z" fill="#F8F9FA"/>
<path d="M50.7372 17.9199L40.3578 23.8545C40.3578 24.0872 40.3578 24.3199 40.3578 24.4945L51.0271 18.4436L50.7372 17.9199Z" fill="#F8F9FA"/>
<path d="M14.4963 38.6908L1.85549 45.9054V17.8035L15.54 25.7163C15.714 25.5999 15.8299 25.4254 16.0039 25.309L1.27563 16.8145V46.8945L14.4383 39.3308C14.4963 39.0981 14.4963 38.9235 14.4963 38.6908Z" fill="#F8F9FA"/>
<path d="M27.369 2.21094V16.64C27.543 16.64 27.7749 16.64 27.9489 16.6982V3.25821L52.5926 18.3273V44.2182L50.853 45.4982L40.3577 39.3891C40.3577 39.6218 40.3577 39.8546 40.3577 40.0873L50.911 46.1964L53.2304 44.5673V18.0364L27.369 2.21094Z" fill="#F8F9FA"/>
<path d="M29.2246 30.2544C29.1666 30.4289 29.1086 30.7198 28.9927 31.0108L29.2246 30.8944C29.2246 30.6617 29.2246 30.4289 29.2246 30.2544Z" fill="#A5A5A5"/>
<path d="M29.3985 33.0472L28.4127 32.4653C28.3547 32.6399 28.2388 32.8144 28.1808 32.989L29.5144 33.7453C29.4565 33.5126 29.3985 33.2799 29.3985 33.0472Z" fill="#A5A5A5"/>
<path d="M27.427 63.4764L0 47.6509V15.8836L27.427 0L54.8541 15.8836V47.6509L27.427 63.4764ZM3.76904 45.44L27.427 59.1709L51.027 45.44V18.0364L27.427 4.36364L3.76904 18.0364V45.44Z" fill="#2E599A"/>
<path d="M28.5288 32.64C27.1371 34.3855 25.6295 36.1309 24.7018 38.2255C24.6438 38.4 24.2379 39.68 24.2379 39.8546C24.0059 41.8328 24.8757 43.4037 26.6733 44.1019C26.8472 44.16 28.4128 44.16 29.2246 43.4037C29.3406 43.2873 29.4565 43.1709 29.6305 43.0546C29.6305 43.0546 30.5583 42.1819 30.8482 39.8546C31.1381 37.3528 30.2104 35.0255 29.2246 32.7564C29.0507 32.3491 28.7607 32.3491 28.5288 32.64Z" fill="#49AA4C"/>
<path d="M11.4811 31.1854C12.2929 30.429 13.0467 29.6726 13.9165 28.9744C17.8015 25.7163 21.7445 22.4581 25.6295 19.1417C26.7892 18.1526 28.0069 18.1526 29.1666 19.1417C30.5002 20.2472 31.8339 21.4108 33.1676 22.5163C33.2835 22.6326 33.4575 22.749 33.6894 22.9235C33.6894 21.7017 33.6894 20.5963 33.6894 19.4908C33.6894 18.6763 33.8054 18.5017 34.6752 18.5017C35.7189 18.5017 36.7627 18.5017 37.8644 18.5017C38.5602 18.5017 38.7342 18.6763 38.7342 19.3744C38.7342 21.8181 38.7342 24.2617 38.7342 26.6472C38.7342 26.9381 38.9081 27.2872 39.1401 27.4617C40.3577 28.509 41.5754 29.4981 42.7931 30.5454C42.9671 30.7199 43.141 30.9526 43.315 31.1272C43.315 31.1854 43.315 31.3017 43.315 31.3599C42.9091 31.8835 42.5032 32.349 42.0973 32.8144C41.6334 33.3381 41.3435 33.3963 40.8216 32.9308C38.2703 30.7781 35.7189 28.6835 33.1676 26.5308C31.37 25.0763 29.6305 23.5635 27.8329 22.0508C27.543 21.8181 27.369 21.8181 27.0791 22.0508C22.7882 25.6581 18.4973 29.2072 14.2064 32.8144C13.5106 33.3963 13.2206 33.3963 12.6408 32.6981C12.2349 32.2326 11.887 31.709 11.5391 31.2435C11.4811 31.3017 11.4811 31.2435 11.4811 31.1854Z" fill="#F8F9FA"/>
<path d="M27.427 23.5635C30.0943 25.7744 32.7037 27.9271 35.371 30.138C36.3567 30.9526 37.4005 31.7671 38.3862 32.6398C38.5602 32.8144 38.7341 33.1053 38.7341 33.338C38.7341 36.3635 38.7341 39.3889 38.7341 42.4144C38.7341 43.1707 38.2702 43.6944 37.5744 43.6944C35.139 43.6944 32.7037 43.6944 30.2683 43.6944C30.1523 43.6944 28.8766 43.6362 28.7027 43.6362C31.254 41.4253 31.1381 38.7489 29.8624 36.1889C29.0506 33.2798 29.7464 30.8362 25.8034 36.1889C23.7739 38.458 23.8319 42.4726 26.1513 43.6362C25.9194 43.6362 24.4118 43.6944 24.2378 43.6944C21.9764 43.6944 19.657 43.6944 17.3956 43.6944C16.4678 43.6944 16.0619 43.2871 16.0039 42.298C16.0039 39.3307 16.0039 36.3635 16.0039 33.3962C16.0039 33.1635 16.1779 32.8144 16.3518 32.6398C20.0629 29.6726 23.7159 26.6471 27.427 23.5635Z" fill="#F8F9FA"/>
<path d="M28.5288 32.64C27.1371 34.3855 25.6295 36.1309 24.7018 38.2255C24.6438 38.4 24.2379 39.68 24.2379 39.8546C24.0059 41.8328 24.8757 43.4037 26.6733 44.1019C26.7312 44.1019 26.7892 43.6364 26.6153 43.52C25.0497 42.6473 24.4118 41.3673 24.8177 39.5637C25.2236 37.8764 26.2094 36.48 27.1951 35.0837C27.659 34.4437 28.1809 33.8037 28.7607 33.1055C29.7465 35.5491 30.5583 37.9346 30.2104 40.4946C30.0364 41.6 29.6305 42.5309 28.7027 43.1709C28.5868 43.2291 28.7027 43.8691 29.2246 43.4037C29.3406 43.2873 29.4565 43.1709 29.6305 43.0546C29.6305 43.0546 30.5583 42.1819 30.8482 39.8546C31.1381 37.3528 30.2104 35.0255 29.2246 32.7564C29.0507 32.3491 28.7607 32.3491 28.5288 32.64Z" fill="url(#paint0_linear_4776_1388)"/>
<path d="M28.2388 35.3164C27.8329 38.5164 27.8329 41.7164 28.1228 44.8582C28.1228 45.0328 27.6589 45.091 27.6589 44.9164C27.311 42.1237 27.311 39.3891 27.8909 36.6546C27.8909 36.2473 28.0648 35.7819 28.2388 35.3164Z" fill="url(#paint1_linear_4776_1388)"/>
<path d="M70.5681 31.7675C70.5681 30.2548 70.916 28.9166 71.6119 27.753C72.3077 26.5893 73.2354 25.6584 74.4531 24.9602C75.6708 24.2621 76.9465 23.9711 78.3961 23.9711C80.0197 23.9711 81.4693 24.3784 82.745 25.193C84.0207 26.0075 84.9485 27.113 85.5283 28.5675H82.5131C82.1072 27.753 81.5853 27.1711 80.8895 26.7639C80.1937 26.3566 79.3819 26.1821 78.4541 26.1821C77.4684 26.1821 76.5406 26.4148 75.7288 26.8802C74.917 27.3457 74.3372 27.9857 73.8733 28.8584C73.4094 29.7311 73.2354 30.7202 73.2354 31.8257C73.2354 32.9311 73.4674 33.9202 73.8733 34.793C74.3372 35.6657 74.975 36.3057 75.7288 36.7711C76.5406 37.2366 77.4104 37.4693 78.4541 37.4693C79.3819 37.4693 80.1937 37.2948 80.8895 36.8875C81.5853 36.4802 82.1652 35.8984 82.5131 35.0839H85.5283C84.9485 36.5384 84.0207 37.7021 82.745 38.4584C81.4693 39.273 80.0197 39.6221 78.3961 39.6221C76.9465 39.6221 75.6708 39.273 74.4531 38.633C73.2934 37.9348 72.3077 37.0039 71.6119 35.8402C70.916 34.6184 70.5681 33.2802 70.5681 31.7675ZM87.6158 33.3384C87.6158 32.1166 87.8477 31.0693 88.3696 30.0802C88.8915 29.1493 89.5873 28.393 90.4571 27.9275C91.3268 27.4039 92.3126 27.113 93.3563 27.113C94.2841 27.113 95.1539 27.2875 95.8497 27.6948C96.5455 28.0439 97.1254 28.5093 97.5892 29.0911V27.3457H100.141V39.4475H97.5892V37.6439C97.1834 38.2257 96.6035 38.6911 95.8497 39.0984C95.0959 39.5057 94.2841 39.6802 93.3563 39.6802C92.3126 39.6802 91.3848 39.3893 90.515 38.8657C89.6453 38.3421 88.9494 37.5857 88.4276 36.5966C87.8477 35.6657 87.6158 34.5602 87.6158 33.3384ZM97.5313 33.3966C97.5313 32.5821 97.3573 31.8257 97.0094 31.2439C96.6615 30.6039 96.1976 30.1384 95.6757 29.8475C95.0959 29.4984 94.516 29.3821 93.8782 29.3821C93.2403 29.3821 92.6605 29.5566 92.0807 29.8475C91.5008 30.1384 91.0949 30.6039 90.689 31.2439C90.3411 31.8257 90.1671 32.5821 90.1671 33.3966C90.1671 34.2111 90.3411 34.9675 90.689 35.6075C91.0369 36.2475 91.5008 36.713 92.0807 37.0621C92.6605 37.4111 93.2403 37.5275 93.8782 37.5275C94.516 37.5275 95.1539 37.353 95.6757 37.0621C96.2556 36.713 96.6615 36.2475 97.0094 35.6657C97.3573 34.9675 97.5313 34.2111 97.5313 33.3966ZM105.881 29.0911C106.229 28.4511 106.751 27.9857 107.331 27.6366C107.969 27.2875 108.664 27.113 109.534 27.113V29.7311H108.896C107.911 29.7311 107.157 29.9639 106.635 30.4875C106.113 31.0111 105.881 31.8257 105.881 33.1057V39.5057H103.388V27.3457H105.881V29.0911ZM114.289 29.1493C114.695 28.5675 115.275 28.1021 116.029 27.6948C116.782 27.2875 117.594 27.113 118.522 27.113C119.566 27.113 120.551 27.3457 121.421 27.8693C122.291 28.393 122.987 29.0911 123.451 30.0802C123.973 31.0111 124.204 32.1166 124.204 33.3384C124.204 34.5602 123.973 35.6657 123.451 36.5966C122.929 37.5275 122.291 38.2839 121.363 38.8657C120.493 39.3893 119.566 39.6802 118.464 39.6802C117.536 39.6802 116.666 39.5057 115.971 39.1566C115.275 38.8075 114.695 38.3421 114.231 37.7602V39.5057H111.738V23.2148H114.231V29.1493H114.289ZM121.653 33.3384C121.653 32.5239 121.479 31.7675 121.131 31.1857C120.783 30.5457 120.319 30.0802 119.74 29.7893C119.16 29.4402 118.58 29.3239 117.942 29.3239C117.304 29.3239 116.724 29.4984 116.145 29.7893C115.565 30.1384 115.159 30.6039 114.753 31.1857C114.405 31.8257 114.231 32.5239 114.231 33.3384C114.231 34.153 114.405 34.9093 114.753 35.5493C115.101 36.1893 115.565 36.6548 116.145 36.9457C116.724 37.2948 117.304 37.4111 117.942 37.4111C118.58 37.4111 119.218 37.2366 119.74 36.9457C120.319 36.5966 120.783 36.1311 121.131 35.4911C121.479 34.9093 121.653 34.2111 121.653 33.3384ZM131.975 39.6802C130.815 39.6802 129.771 39.4475 128.843 38.9239C127.916 38.4002 127.22 37.6439 126.64 36.713C126.118 35.7821 125.828 34.6766 125.828 33.3966C125.828 32.1748 126.118 31.0693 126.64 30.1384C127.162 29.2075 127.916 28.4511 128.843 27.9275C129.771 27.4039 130.815 27.1711 131.975 27.1711C133.134 27.1711 134.178 27.4039 135.106 27.9275C136.033 28.4511 136.787 29.1493 137.309 30.1384C137.831 31.0693 138.121 32.1748 138.121 33.3966C138.121 34.6184 137.831 35.7239 137.309 36.6548C136.729 37.5857 135.975 38.3421 135.048 38.8657C134.178 39.3893 133.134 39.6802 131.975 39.6802ZM131.975 37.4693C132.612 37.4693 133.192 37.2948 133.772 37.0039C134.352 36.713 134.816 36.2475 135.164 35.6075C135.512 34.9675 135.686 34.2693 135.686 33.3384C135.686 32.4657 135.512 31.7093 135.164 31.1275C134.816 30.4875 134.352 30.0221 133.83 29.7311C133.25 29.4402 132.67 29.2657 132.032 29.2657C131.395 29.2657 130.815 29.4402 130.235 29.7311C129.713 30.0221 129.249 30.4875 128.959 31.1275C128.611 31.7093 128.495 32.4657 128.495 33.3384C128.495 34.6184 128.843 35.6657 129.481 36.3639C130.119 37.1202 130.931 37.4693 131.975 37.4693ZM146.819 27.1711C147.746 27.1711 148.616 27.3457 149.37 27.753C150.124 28.1602 150.704 28.7421 151.168 29.4984C151.574 30.2548 151.805 31.1857 151.805 32.2911V39.4475H149.312V32.6984C149.312 31.593 149.022 30.7784 148.5 30.1966C147.978 29.6148 147.225 29.3239 146.297 29.3239C145.369 29.3239 144.615 29.6148 144.035 30.1966C143.514 30.7784 143.224 31.593 143.224 32.6984V39.4475H140.73V27.3457H143.224V28.7421C143.63 28.2184 144.151 27.8693 144.789 27.5784C145.427 27.2875 146.123 27.1711 146.819 27.1711ZM164.33 30.4293V32.5821H155.285V30.4875H164.33V30.4293ZM177.087 36.3639H170.709L169.607 39.5057H166.998L172.448 24.2039H175.347L180.798 39.5057H178.131L177.087 36.3639ZM176.391 34.3275L173.898 27.2293L171.404 34.3275H176.391ZM182.364 33.3384C182.364 32.1166 182.596 31.0693 183.117 30.0802C183.639 29.1493 184.335 28.393 185.205 27.9275C186.075 27.4039 187.06 27.113 188.104 27.113C188.916 27.113 189.67 27.2875 190.424 27.6366C191.177 27.9857 191.815 28.4511 192.279 28.9748V23.2148H194.831V39.5057H192.279V37.7021C191.873 38.2839 191.293 38.7493 190.54 39.1566C189.844 39.5639 188.974 39.7384 188.046 39.7384C187.003 39.7384 186.017 39.4475 185.147 38.9239C184.277 38.4002 183.581 37.6439 183.06 36.6548C182.654 35.6657 182.364 34.5602 182.364 33.3384ZM192.337 33.3966C192.337 32.5821 192.163 31.8257 191.815 31.2439C191.467 30.6039 191.003 30.1384 190.482 29.8475C189.902 29.4984 189.322 29.3821 188.684 29.3821C188.046 29.3821 187.466 29.5566 186.887 29.8475C186.307 30.1384 185.901 30.6039 185.495 31.2439C185.147 31.8257 184.973 32.5821 184.973 33.3966C184.973 34.2111 185.147 34.9675 185.495 35.6075C185.843 36.2475 186.307 36.713 186.887 37.0621C187.466 37.4111 188.046 37.5275 188.684 37.5275C189.322 37.5275 189.902 37.353 190.482 37.0621C191.061 36.713 191.467 36.2475 191.815 35.6657C192.163 34.9675 192.337 34.2111 192.337 33.3966ZM199.411 25.7748C198.947 25.7748 198.6 25.6002 198.252 25.3093C197.962 25.0184 197.788 24.6111 197.788 24.1457C197.788 23.6802 197.962 23.3311 198.252 22.9821C198.542 22.6911 198.947 22.5166 199.411 22.5166C199.875 22.5166 200.223 22.6911 200.513 22.9821C200.803 23.273 200.977 23.6802 200.977 24.1457C200.977 24.6111 200.803 24.9602 200.513 25.3093C200.223 25.6002 199.875 25.7748 199.411 25.7748ZM200.629 41.833C200.629 42.9966 200.339 43.8693 199.701 44.393C199.121 44.9166 198.252 45.2075 197.15 45.2075H195.874V43.113H196.744C197.266 43.113 197.614 42.9966 197.846 42.8221C198.078 42.6475 198.194 42.2984 198.194 41.833V27.3457H200.687V41.833H200.629ZM214.893 27.3457V39.4475H212.4V37.993C211.994 38.5166 211.472 38.8657 210.834 39.1566C210.197 39.4475 209.501 39.5639 208.805 39.5639C207.877 39.5639 207.007 39.3893 206.254 38.9821C205.5 38.5748 204.92 37.993 204.456 37.2366C204.05 36.4802 203.818 35.5493 203.818 34.4439V27.3457H206.312V34.0948C206.312 35.2002 206.602 36.0148 207.123 36.5966C207.645 37.1784 208.399 37.4693 209.327 37.4693C210.255 37.4693 211.008 37.1784 211.53 36.5966C212.11 36.0148 212.342 35.2002 212.342 34.0948V27.3457H214.893ZM222.605 39.6802C221.678 39.6802 220.808 39.5057 220.054 39.1566C219.3 38.8075 218.72 38.3421 218.257 37.7602C217.793 37.1784 217.561 36.4802 217.561 35.7821H220.17C220.228 36.3057 220.46 36.713 220.924 37.0621C221.388 37.4111 221.968 37.5857 222.605 37.5857C223.301 37.5857 223.823 37.4693 224.229 37.1784C224.635 36.8875 224.809 36.5384 224.809 36.1311C224.809 35.6657 224.577 35.3166 224.171 35.1421C223.765 34.9093 223.069 34.6766 222.142 34.4439C221.214 34.2111 220.518 33.9784 219.938 33.7457C219.358 33.513 218.894 33.1639 218.431 32.6402C218.025 32.1748 217.793 31.5348 217.793 30.7202C217.793 30.0802 217.967 29.4984 218.373 28.9748C218.778 28.4511 219.3 27.9857 219.996 27.6948C220.692 27.4039 221.562 27.2293 222.432 27.2293C223.823 27.2293 224.925 27.5784 225.737 28.2766C226.606 28.9748 227.07 29.9057 227.128 31.1275H224.635C224.577 30.6039 224.345 30.1384 223.997 29.8475C223.591 29.4984 223.069 29.3821 222.374 29.3821C221.736 29.3821 221.214 29.4984 220.866 29.7311C220.518 29.9639 220.344 30.313 220.344 30.7202C220.344 31.0693 220.46 31.3021 220.692 31.5348C220.924 31.7675 221.214 31.9421 221.562 32.0584C221.91 32.1748 222.374 32.3493 223.069 32.5239C223.939 32.7566 224.693 32.9893 225.215 33.2221C225.795 33.4548 226.259 33.8039 226.664 34.2693C227.07 34.7348 227.302 35.3748 227.302 36.1311C227.302 36.8293 227.128 37.4111 226.722 37.993C226.317 38.5166 225.795 38.9821 225.099 39.273C224.403 39.5057 223.533 39.6802 222.605 39.6802ZM232.927 29.3821V36.073C232.927 36.5384 233.043 36.8293 233.217 37.0621C233.449 37.2366 233.797 37.353 234.318 37.353H235.884V39.4475H233.913C232.811 39.4475 231.941 39.1566 231.303 38.633C230.723 38.1093 230.375 37.2366 230.375 36.073V29.3821H228.926V27.3457H230.375V24.3202H232.927V27.3457H235.884V29.3821H232.927Z" fill="#F8F9FA"/>
<defs>
<linearGradient id="paint0_linear_4776_1388" x1="27.5398" y1="32.4273" x2="27.5398" y2="44.074" gradientUnits="userSpaceOnUse">
<stop stop-color="#025227"/>
<stop offset="1" stop-color="#095B2E"/>
</linearGradient>
<linearGradient id="paint1_linear_4776_1388" x1="27.8047" y1="35.3142" x2="27.8047" y2="45.0385" gradientUnits="userSpaceOnUse">
<stop stop-color="#025227"/>
<stop offset="1" stop-color="#00652E"/>
</linearGradient>
</defs>
</svg>
