<svg width="134" height="52" viewBox="0 0 134 52" fill="none" xmlns="http://www.w3.org/2000/svg">
<path d="M9.60805 25.3083C7.91251 25.3083 6.43106 24.9229 5.16368 24.1522C3.89631 23.3815 2.91153 22.3111 2.20934 20.941C1.50714 19.5537 1.15605 17.9438 1.15605 16.1113C1.15605 14.2616 1.51571 12.6346 2.23503 11.2302C2.97147 9.80866 4.00764 8.704 5.34351 7.91617C6.69652 7.11122 8.29786 6.70874 10.1475 6.70874C12.2541 6.70874 14.001 7.21398 15.3883 8.22445C16.7756 9.23492 17.6747 10.6307 18.0857 12.4119H14.4121C14.138 11.5727 13.6414 10.9219 12.9221 10.4595C12.2027 9.97993 11.2779 9.74016 10.1475 9.74016C8.34924 9.74016 6.96198 10.3139 5.98576 11.4614C5.00954 12.5917 4.52144 14.1503 4.52144 16.137C4.52144 18.1237 5.00098 19.665 5.96007 20.7612C6.93629 21.8401 8.25504 22.3796 9.91633 22.3796C11.5434 22.3796 12.7679 21.9429 13.59 21.0694C14.4292 20.1788 14.9344 19.0142 15.1057 17.5756H10.5586V15.1094H18.4197V25H15.3883L15.1314 22.6365C14.5491 23.4929 13.8212 24.1522 12.9477 24.6147C12.0743 25.0771 10.9611 25.3083 9.60805 25.3083ZM23.312 10.2796C22.7126 10.2796 22.2159 10.0998 21.822 9.74016C21.4452 9.3805 21.2568 8.92664 21.2568 8.37859C21.2568 7.83054 21.4452 7.38524 21.822 7.04271C22.2159 6.68305 22.7126 6.50322 23.312 6.50322C23.9115 6.50322 24.3996 6.68305 24.7764 7.04271C25.1703 7.38524 25.3672 7.83054 25.3672 8.37859C25.3672 8.92664 25.1703 9.3805 24.7764 9.74016C24.3996 10.0998 23.9115 10.2796 23.312 10.2796ZM21.6679 25V12.2578H24.9562V25H21.6679ZM34.2457 25.3083C33.0469 25.3083 31.9765 25.0171 31.0345 24.4348C30.0925 23.8525 29.3475 23.0561 28.7995 22.0457C28.2514 21.0352 27.9774 19.8877 27.9774 18.6032C27.9774 17.3187 28.2514 16.1798 28.7995 15.1864C29.3475 14.176 30.0925 13.3881 31.0345 12.823C31.9765 12.2406 33.0469 11.9495 34.2457 11.9495C35.2048 11.9495 36.044 12.1293 36.7634 12.489C37.4827 12.8486 38.065 13.3539 38.5103 14.0047V6.50322H41.7986V25H38.8699L38.5103 23.176C38.0992 23.7412 37.5512 24.2379 36.8661 24.666C36.1982 25.0942 35.3247 25.3083 34.2457 25.3083ZM34.9394 22.431C36.0012 22.431 36.8661 22.0799 37.5341 21.3777C38.2191 20.6584 38.5616 19.7421 38.5616 18.6289C38.5616 17.5157 38.2191 16.6079 37.5341 15.9058C36.8661 15.1864 36.0012 14.8268 34.9394 14.8268C33.8946 14.8268 33.0297 15.1779 32.3447 15.8801C31.6596 16.5823 31.3171 17.49 31.3171 18.6032C31.3171 19.7164 31.6596 20.6327 32.3447 21.352C33.0297 22.0713 33.8946 22.431 34.9394 22.431ZM46.9197 10.2796C46.3203 10.2796 45.8236 10.0998 45.4297 9.74016C45.0529 9.3805 44.8645 8.92664 44.8645 8.37859C44.8645 7.83054 45.0529 7.38524 45.4297 7.04271C45.8236 6.68305 46.3203 6.50322 46.9197 6.50322C47.5192 6.50322 48.0073 6.68305 48.384 7.04271C48.778 7.38524 48.9749 7.83054 48.9749 8.37859C48.9749 8.92664 48.778 9.3805 48.384 9.74016C48.0073 10.0998 47.5192 10.2796 46.9197 10.2796ZM45.2756 25V12.2578H48.5639V25H45.2756ZM56.3891 25.3083C55.293 25.3083 54.3938 25.137 53.6916 24.7945C52.9894 24.4348 52.4671 23.9638 52.1245 23.3815C51.782 22.7992 51.6108 22.157 51.6108 21.4548C51.6108 20.273 52.0732 19.314 52.998 18.5775C53.9228 17.8411 55.3101 17.4728 57.1598 17.4728H60.3967V17.1646C60.3967 16.2911 60.1484 15.6489 59.6517 15.2378C59.155 14.8268 58.5385 14.6213 57.802 14.6213C57.1341 14.6213 56.5518 14.784 56.0551 15.1094C55.5584 15.4176 55.2502 15.8801 55.1303 16.4966H51.919C52.0047 15.5718 52.3129 14.7668 52.8439 14.0818C53.3919 13.3967 54.0941 12.8743 54.9504 12.5147C55.8068 12.1379 56.7659 11.9495 57.8277 11.9495C59.6431 11.9495 61.0732 12.4034 62.1179 13.3111C63.1627 14.2188 63.685 15.5033 63.685 17.1646V25H60.8848L60.5766 22.9448C60.1998 23.6299 59.6688 24.195 58.9838 24.6403C58.3158 25.0856 57.4509 25.3083 56.3891 25.3083ZM57.1341 22.7393C58.0761 22.7393 58.8039 22.431 59.3177 21.8144C59.8487 21.1979 60.1826 20.4357 60.3197 19.528H57.5194C56.646 19.528 56.0209 19.6907 55.6441 20.0161C55.2673 20.3244 55.0789 20.7098 55.0789 21.1722C55.0789 21.6689 55.2673 22.0542 55.6441 22.3282C56.0209 22.6023 56.5175 22.7393 57.1341 22.7393ZM81.4478 25.3083C79.6495 25.3083 78.0739 24.9144 76.7209 24.1265C75.385 23.3387 74.3317 22.2512 73.561 20.8639C72.8074 19.4595 72.4307 17.8411 72.4307 16.0085C72.4307 14.176 72.8074 12.5661 73.561 11.1788C74.3317 9.77441 75.385 8.67831 76.7209 7.89048C78.0739 7.10265 79.6495 6.70874 81.4478 6.70874C83.229 6.70874 84.7961 7.10265 86.1491 7.89048C87.5021 8.67831 88.5554 9.77441 89.309 11.1788C90.0625 12.5661 90.4393 14.176 90.4393 16.0085C90.4393 17.8411 90.0625 19.4595 89.309 20.8639C88.5554 22.2512 87.5021 23.3387 86.1491 24.1265C84.7961 24.9144 83.229 25.3083 81.4478 25.3083ZM81.4478 22.3539C83.1605 22.3539 84.5221 21.7888 85.5325 20.6584C86.5601 19.528 87.0739 17.9781 87.0739 16.0085C87.0739 14.0389 86.5601 12.489 85.5325 11.3586C84.5221 10.2283 83.1605 9.66309 81.4478 9.66309C79.7352 9.66309 78.365 10.2283 77.3374 11.3586C76.3098 12.489 75.796 14.0389 75.796 16.0085C75.796 17.9781 76.3098 19.528 77.3374 20.6584C78.365 21.7888 79.7352 22.3539 81.4478 22.3539ZM97.6586 25.3083C96.5625 25.3083 95.6634 25.137 94.9612 24.7945C94.259 24.4348 93.7366 23.9638 93.3941 23.3815C93.0515 22.7992 92.8803 22.157 92.8803 21.4548C92.8803 20.273 93.3427 19.314 94.2675 18.5775C95.1924 17.8411 96.5796 17.4728 98.4293 17.4728H101.666V17.1646C101.666 16.2911 101.418 15.6489 100.921 15.2378C100.425 14.8268 99.808 14.6213 99.0716 14.6213C98.4036 14.6213 97.8213 14.784 97.3246 15.1094C96.828 15.4176 96.5197 15.8801 96.3998 16.4966H93.1886C93.2742 15.5718 93.5825 14.7668 94.1134 14.0818C94.6614 13.3967 95.3636 12.8743 96.22 12.5147C97.0763 12.1379 98.0354 11.9495 99.0973 11.9495C100.913 11.9495 102.343 12.4034 103.387 13.3111C104.432 14.2188 104.955 15.5033 104.955 17.1646V25H102.154L101.846 22.9448C101.469 23.6299 100.938 24.195 100.253 24.6403C99.5854 25.0856 98.7205 25.3083 97.6586 25.3083ZM98.4036 22.7393C99.3456 22.7393 100.073 22.431 100.587 21.8144C101.118 21.1979 101.452 20.4357 101.589 19.528H98.789C97.9155 19.528 97.2904 19.6907 96.9136 20.0161C96.5368 20.3244 96.3484 20.7098 96.3484 21.1722C96.3484 21.6689 96.5368 22.0542 96.9136 22.3282C97.2904 22.6023 97.7871 22.7393 98.4036 22.7393ZM108.093 25V6.50322H111.381V17.4215L115.902 12.2578H119.807L114.592 18.0637L120.655 25H116.545L111.381 18.6032V25H108.093ZM127.333 25.3083C126.203 25.3083 125.209 25.1284 124.353 24.7688C123.497 24.392 122.812 23.8782 122.298 23.2274C121.784 22.5766 121.476 21.823 121.373 20.9667H124.687C124.79 21.4633 125.064 21.8915 125.509 22.2512C125.971 22.5937 126.562 22.765 127.282 22.765C128.001 22.765 128.523 22.6194 128.849 22.3282C129.191 22.0371 129.362 21.7031 129.362 21.3263C129.362 20.7783 129.123 20.4101 128.643 20.2217C128.164 20.0161 127.496 19.8192 126.639 19.6308C126.091 19.5109 125.535 19.3653 124.969 19.1941C124.404 19.0228 123.882 18.8087 123.402 18.5518C122.94 18.2778 122.563 17.9353 122.272 17.5242C121.981 17.0961 121.835 16.5737 121.835 15.9571C121.835 14.8268 122.281 13.8762 123.171 13.1055C124.079 12.3348 125.346 11.9495 126.973 11.9495C128.48 11.9495 129.679 12.3006 130.57 13.0028C131.478 13.705 132.017 14.6726 132.188 15.9058H129.08C128.891 14.9638 128.181 14.4928 126.948 14.4928C126.331 14.4928 125.851 14.6127 125.509 14.8525C125.184 15.0922 125.021 15.392 125.021 15.7516C125.021 16.1284 125.269 16.4281 125.766 16.6508C126.263 16.8734 126.922 17.0789 127.744 17.2673C128.635 17.4728 129.448 17.704 130.185 17.9609C130.938 18.2007 131.538 18.5689 131.983 19.0656C132.428 19.5452 132.651 20.2388 132.651 21.1465C132.668 21.9343 132.462 22.6451 132.034 23.2788C131.606 23.9125 130.989 24.4091 130.185 24.7688C129.38 25.1284 128.429 25.3083 127.333 25.3083Z" fill="black"/>
<path d="M26.5744 47V36.8365H27.7941V46.0272H32.5273V47H26.5744ZM39.1393 47V36.8365H40.3589V47H39.1393ZM47.4505 47V36.8365H48.8734L52.5322 43.9219L56.1621 36.8365H57.5995V47H56.3798V39.0144L52.9823 45.5481H52.0676L48.6701 39.0289V47H47.4505ZM64.6802 47V36.8365H65.8999V47H64.6802ZM75.3726 47V37.8383H72.338V36.8365H79.6267V37.8383H76.5922V47H75.3726ZM86.0525 47V36.8365H92.3394V37.8383H87.2722V41.381H91.9038V42.3683H87.2722V45.9982H92.3394V47H86.0525ZM99.1846 47V36.8365H102.306C104.097 36.8365 105.413 37.2914 106.255 38.2013C107.107 39.1112 107.533 40.3598 107.533 41.9473C107.533 43.5057 107.107 44.7398 106.255 45.6497C105.413 46.5499 104.097 47 102.306 47H99.1846ZM100.404 45.9836H102.277C103.264 45.9836 104.049 45.8239 104.629 45.5045C105.22 45.1754 105.641 44.7108 105.892 44.1107C106.144 43.5008 106.27 42.7797 106.27 41.9473C106.27 41.0955 106.144 40.3647 105.892 39.7549C105.641 39.1451 105.22 38.6756 104.629 38.3465C104.049 38.0174 103.264 37.8528 102.277 37.8528H100.404V45.9836Z" fill="black"/>
</svg>
