<svg width="61" height="59" viewBox="0 0 61 59" fill="none" xmlns="http://www.w3.org/2000/svg">
<circle cx="32.5" cy="28.5" r="28.5" fill="#4688E9" fill-opacity="0.3"/>
<circle cx="28.5" cy="30.5" r="28.5" fill="#D9D9D9"/>
<path d="M23.5 26H26.25M23.5 30H26.25M23.5 34H26.25M29.75 26H32.5M29.75 30H32.5M29.75 34H32.5M36 40V25.2C36 24.0799 36 23.5198 35.782 23.092C35.5903 22.7157 35.2843 22.4097 34.908 22.218C34.4802 22 33.9201 22 32.8 22H23.2C22.0799 22 21.5198 22 21.092 22.218C20.7157 22.4097 20.4097 22.7157 20.218 23.092C20 23.5198 20 24.0799 20 25.2V40M38 40H18" stroke="#4688E9" stroke-width="2" stroke-linecap="round" stroke-linejoin="round"/>
</svg>
