
<svg width="191" height="39" viewBox="0 0 191 39" fill="none" xmlns="http://www.w3.org/2000/svg">
<g clip-path="url(#clip0_4686_9713)">
<path d="M29.2288 18.2562C30.239 19.2695 29.9528 19.8522 28.9426 20.8655L20.7346 29.0478C19.7244 30.0611 19.1098 30.2469 18.0996 29.2336L11.5921 22.7063C9.68953 20.7979 8.09002 19.7677 9.9926 17.8594L18.8741 9.34766C19.2108 9.02678 19.7412 9.01833 20.0864 9.33077L29.2288 18.2562ZM19.3539 0.0590973C18.7394 0.0590973 18.1248 0.295533 17.6534 0.768405L0.799619 17.7665C-0.143251 18.7122 -0.168506 20.1646 0.765945 21.1103L17.8302 37.9311C18.3016 38.404 18.933 38.6573 19.5476 38.6573C20.1621 38.6573 20.7683 38.3955 21.2397 37.9311L37.984 21.0935C38.9269 20.1477 38.9269 18.6193 37.984 17.6736L27.9408 7.8446L21.0545 0.759961C20.583 0.295533 19.9685 0.0590973 19.3539 0.0590973Z" fill="white"/>
<path d="M20.8691 33.4641C23.1421 31.1504 25.3814 28.786 27.5366 26.3541C28.7236 25.0199 29.7085 23.5338 30.2894 21.8196C30.4409 21.3805 30.5335 20.9245 30.5588 20.4601C30.6009 19.5059 30.3062 18.7122 29.5991 18.0113C26.6947 15.1403 23.824 12.2271 20.9449 9.33072C20.8102 9.19561 20.2377 8.58763 19.7411 8.76496C19.7326 8.76496 19.7158 8.77341 19.7074 8.78185C19.5138 8.85785 19.4043 8.55386 19.5979 8.47786C19.901 8.3512 20.1957 8.23298 20.5492 8.24142C21.3995 8.2752 22.1908 8.53697 22.9485 8.85785C24.7921 9.6516 26.358 10.876 27.7891 12.2524C29.717 14.1101 31.5774 16.0438 33.48 17.9353C34.2713 18.7206 34.566 19.7001 34.5239 20.7641C34.4734 22.132 33.9851 23.3902 33.3453 24.5808C32.6971 25.7884 30.8534 28.2709 30.7945 28.3385C29.3465 30.1118 27.7723 31.7753 26.1644 33.3965C24.708 34.8658 23.26 36.3266 21.7952 37.7875C21.3069 38.2772 20.7597 38.6826 20.0357 38.767C19.1686 38.8683 18.4109 38.6235 17.8048 38.0239C15.2456 35.4738 12.5264 33.0841 9.98404 30.5255C9.95878 30.5002 9.94195 30.458 9.92511 30.4157C10.0514 30.3398 10.1356 30.4157 10.2198 30.4917C10.8511 31.0744 17.0724 36.6053 20.8691 33.4641Z" fill="#1276BC"/>
<path d="M38.0516 21.1356C35.8375 23.4493 33.5982 25.7377 31.3673 28.0345C31.3 28.102 31.0727 28.3722 31.0053 28.3385C30.9296 28.2962 31.1064 28.0429 31.1148 27.9923C31.9566 26.9114 32.7059 25.763 33.3541 24.5639C33.9939 23.3733 34.4822 22.1151 34.5327 20.7556C34.5748 19.6917 34.2801 18.7121 33.4888 17.9268C31.5862 16.0353 29.7257 14.1016 27.7979 12.2439C26.3668 10.8675 24.8009 9.64313 22.9573 8.84938C22.1996 8.52006 21.4083 8.26673 20.558 8.23296C20.0866 8.21607 18.9501 8.46939 17.6115 9.79513C14.8503 12.5226 12.1395 15.2923 9.40352 18.0366C9.10887 18.3237 8.8479 18.6277 8.7553 19.1428C8.528 18.349 8.65427 17.6735 8.85632 17.0149C9.32775 15.4358 10.2454 14.1185 11.2472 12.835C12.1479 11.6782 13.2171 10.6733 14.2441 9.64313C15.4901 8.38495 16.7697 7.16055 17.9819 5.8686C18.9922 4.79619 20.2128 4.52598 21.5851 4.73708C23.5634 5.04107 25.2387 6.02059 26.8466 7.13522C28.4293 8.23296 29.8857 9.49114 31.2495 10.8506C33.5056 13.0883 35.7449 15.3345 37.9927 17.5806C39.0113 18.6108 39.045 20.097 38.0516 21.1356Z" fill="#293C91"/>
<path d="M12.4592 31.8766C11.7521 31.3784 11.0365 30.9055 10.3967 30.306C10.3125 30.23 9.67273 29.6895 9.5212 29.5629C9.04134 29.166 2.95478 23.4324 0.791234 21.2454C-0.252658 20.1983 -0.269495 18.6868 0.749141 17.6566C2.71907 15.6554 4.71424 13.671 6.70101 11.6866C6.7431 11.6444 6.78519 11.6191 6.8357 11.5853C6.86096 11.6022 6.88621 11.6275 6.91989 11.6444C6.02753 12.9955 5.18568 14.3634 4.71424 15.934C4.37751 17.0571 4.24281 18.1886 4.57113 19.337C4.73108 19.9028 5.01731 20.3925 5.43823 20.8063C7.26504 22.6302 9.07502 24.4795 10.9187 26.295C12.4929 27.8318 14.1935 29.1998 16.256 30.0442C17.1736 30.4242 18.1249 30.6437 19.1267 30.4326C19.6318 30.3313 20.0864 30.1202 20.4484 29.7486C23.4033 26.7848 26.3497 23.8124 29.3046 20.8485C29.6245 20.5276 29.9444 20.2152 30.0454 19.6241C30.3064 20.6712 30.096 21.5325 29.7676 22.3769C29.1278 24.032 28.0924 25.4252 26.9138 26.7172C20.5157 33.4894 19.3371 35.9213 12.4592 31.8766Z" fill="#293C91"/>
<path d="M25.4488 19.4721C25.4488 20.4601 25.4404 21.4396 25.4572 22.4276C25.4572 22.664 25.4067 22.8076 25.1878 22.9342C23.4368 23.9391 21.6941 24.9439 19.9515 25.9657C19.7579 26.0839 19.6148 26.0755 19.4212 25.9572C17.6785 24.9355 15.9359 23.9306 14.1849 22.9258C13.9828 22.8076 13.9239 22.6809 13.9239 22.4614C13.9323 20.4348 13.9323 18.4082 13.9239 16.3816C13.9239 16.1705 13.9912 16.0523 14.1764 15.9509C15.9359 14.9376 17.6954 13.9243 19.4548 12.8941C19.64 12.7844 19.7747 12.7928 19.9515 12.9026C21.7026 13.9243 23.462 14.9461 25.2215 15.9594C25.4067 16.0691 25.4656 16.1874 25.4656 16.39C25.4404 17.4202 25.4488 18.442 25.4488 19.4721ZM24.1102 16.7953C22.7296 15.9931 21.3574 15.2078 19.9936 14.4057C19.8337 14.3128 19.7158 14.3465 19.5727 14.431C18.2762 15.1825 16.9798 15.9425 15.6834 16.6856C15.5066 16.7869 15.4224 16.8967 15.4224 17.1078C15.4224 18.6277 15.414 20.1477 15.3971 21.6676C15.3971 21.8703 15.4729 21.9716 15.6413 22.056C16.9377 22.7231 18.2257 23.3987 19.5138 24.0742C19.6232 24.1333 19.7242 24.1924 19.8673 24.1164C21.2648 23.424 22.6623 22.74 24.1102 22.0307C23.7903 21.8618 23.5041 21.7352 23.2431 21.5747C22.9653 21.4058 22.7296 21.3974 22.4266 21.541C21.6352 21.9294 20.8186 22.2671 20.0189 22.6302C19.8252 22.7147 19.6737 22.74 19.4717 22.6387C18.5709 22.1827 17.6617 21.7521 16.7525 21.3214C16.542 21.2201 16.4747 21.0934 16.4747 20.8654C16.4831 19.793 16.4915 18.7291 16.4747 17.6566C16.4747 17.4118 16.5589 17.2767 16.7609 17.1584C17.6785 16.6433 18.5877 16.1114 19.4885 15.5709C19.699 15.4443 19.8505 15.4612 20.0525 15.5878C20.8018 16.0438 21.61 16.4322 22.3171 16.9558C22.9653 17.4371 23.4873 17.3695 24.0429 16.8798C24.0597 16.8629 24.0682 16.846 24.1102 16.7953Z" fill="#293C91"/>
<path d="M27.301 7.04234C25.6931 5.90238 24.0347 4.91442 22.1153 4.48377C21.3576 4.31488 20.5915 4.27266 19.817 4.42466C19.0593 4.56821 18.428 4.91442 17.8808 5.45484C16.3318 7.02545 14.7996 8.61295 13.2169 10.1498C10.6577 12.6408 8.17425 15.1994 5.64029 17.7073C5.26988 18.0704 4.99207 18.4757 4.85737 19.0837C4.64691 18.2139 4.69742 17.4455 4.87421 16.6771C5.29513 14.8447 6.22116 13.2657 7.29031 11.7542C8.35104 10.2427 9.55488 8.84939 10.8513 7.54055C13.0317 5.33663 15.2205 3.1327 17.4177 0.928782C18.3859 -0.0422941 19.5308 -0.261842 20.6168 0.320804C20.8441 0.439022 21.0377 0.599461 21.2145 0.776788C23.1676 2.73583 25.1206 4.69487 27.0737 6.66236C27.1748 6.7468 27.3095 6.82279 27.301 7.04234Z" fill="#1276BC"/>
<path d="M8.67098 16.3985C8.44368 17.0402 8.27531 17.6904 8.27531 18.3744C8.27531 19.2357 8.55312 19.9788 9.1845 20.6037C12.072 23.4747 14.9427 26.371 17.8134 29.2505C18.0744 29.5122 18.327 29.7993 18.7226 29.9682C18.79 30.002 18.7732 30.1033 18.6974 30.1118C17.6114 30.2047 16.7022 29.9007 15.8183 29.4785C14.1935 28.7016 12.7708 27.6207 11.4912 26.3795C9.52124 24.4457 7.57658 22.4783 5.62349 20.5192C5.04261 19.9366 5.01736 18.8726 5.64874 18.2224C6.96203 16.8545 8.30898 15.5287 9.64752 14.1861C9.67278 14.1608 9.93375 13.8906 9.90849 13.9581C9.59701 14.9208 8.94879 15.6047 8.67098 16.3985Z" fill="#1276BC"/>
<path d="M6.82739 11.6022C6.85265 11.5768 6.88632 11.543 6.91158 11.5177C6.92841 11.5346 6.95367 11.5599 6.97051 11.5768C6.94525 11.6022 6.92841 11.6359 6.90316 11.6613C6.88632 11.6444 6.86107 11.619 6.82739 11.6022Z" fill="#293C91"/>
<path d="M6.9198 11.5177C6.94506 11.4924 6.98715 11.4502 6.99557 11.4586C7.06291 11.5008 7.0124 11.5431 6.98715 11.5768C6.95347 11.5515 6.93664 11.5346 6.9198 11.5177Z" fill="#293C91"/>
<path d="M24.1104 16.7953C24.0683 16.846 24.0599 16.8629 24.0515 16.8713C23.4959 17.3695 22.9739 17.4286 22.3257 16.9473C21.6185 16.4238 20.8104 16.0438 20.0611 15.5794C19.8591 15.4527 19.7075 15.4443 19.4971 15.5625C18.5963 16.1029 17.6871 16.6264 16.7695 17.15C16.559 17.2682 16.4748 17.4033 16.4833 17.6482C16.5001 18.7206 16.4917 19.7846 16.4833 20.857C16.4833 21.085 16.5506 21.2116 16.7611 21.3129C17.6703 21.7436 18.5795 22.1827 19.4802 22.6302C19.6823 22.7316 19.8338 22.7147 20.0274 22.6218C20.8272 22.2587 21.6438 21.9209 22.4351 21.5325C22.7382 21.3889 22.9739 21.3889 23.2517 21.5663C23.5127 21.7267 23.7905 21.8534 24.1188 22.0223C22.6708 22.7316 21.2734 23.4155 19.8759 24.108C19.7328 24.1755 19.6318 24.1164 19.5223 24.0657C18.2343 23.3902 16.9379 22.7147 15.6498 22.0476C15.4815 21.9631 15.4057 21.8534 15.4057 21.6592C15.4225 20.1392 15.431 18.6193 15.431 17.0993C15.431 16.8882 15.5067 16.7784 15.6919 16.6771C16.9968 15.934 18.2932 15.1825 19.5813 14.4225C19.7244 14.3381 19.8422 14.3043 20.0022 14.3972C21.3576 15.2078 22.7298 15.9931 24.1104 16.7953Z" fill="#FEFEFE"/>
</g>
<path d="M57.0414 28.7171C55.1387 28.7171 53.4921 28.3054 52.1016 27.4821C50.7295 26.6405 49.6683 25.4788 48.9182 23.9968C48.1681 22.4966 47.793 20.7677 47.793 18.8101C47.793 16.8342 48.1681 15.1052 48.9182 13.6233C49.6683 12.1231 50.7295 10.9522 52.1016 10.1106C53.4921 9.26897 55.1387 8.84818 57.0414 8.84818C59.2917 8.84818 61.1304 9.39704 62.5575 10.4948C63.9845 11.5925 64.8902 13.1293 65.2744 15.1052H62.0361C61.7799 13.9892 61.2311 13.1019 60.3895 12.4432C59.5479 11.7846 58.4227 11.4553 57.014 11.4553C55.0929 11.4553 53.5744 12.1139 52.4584 13.4312C51.3424 14.7302 50.7843 16.5231 50.7843 18.8101C50.7843 21.0787 51.3424 22.8625 52.4584 24.1615C53.5744 25.4605 55.0929 26.11 57.014 26.11C58.4227 26.11 59.5479 25.7989 60.3895 25.1769C61.2311 24.5549 61.7799 23.7041 62.0361 22.6247H65.2744C64.8902 24.5274 63.9845 26.0185 62.5575 27.0979C61.1304 28.1774 59.2917 28.7171 57.0414 28.7171ZM72.9726 28.7171C71.82 28.7171 70.8686 28.525 70.1185 28.1408C69.3684 27.7566 68.8104 27.2534 68.4445 26.6314C68.0786 25.991 67.8956 25.2958 67.8956 24.5457C67.8956 23.2284 68.4079 22.1856 69.4324 21.4172C70.457 20.6488 71.9206 20.2646 73.8234 20.2646H77.391V20.0176C77.391 18.9564 77.0983 18.1606 76.5128 17.63C75.9456 17.0994 75.2047 16.8342 74.2899 16.8342C73.4849 16.8342 72.7805 17.0354 72.1768 17.4379C71.5913 17.8221 71.2346 18.3984 71.1065 19.1668H68.1975C68.289 18.1789 68.6183 17.3373 69.1855 16.6421C69.7709 15.9285 70.5027 15.3888 71.3809 15.0229C72.2774 14.6387 73.2562 14.4466 74.3173 14.4466C76.2201 14.4466 77.6929 14.9497 78.7357 15.956C79.7785 16.9439 80.3 18.2978 80.3 20.0176V28.3878H77.7752L77.5282 26.0551C77.144 26.8052 76.586 27.4364 75.8542 27.9487C75.1223 28.4609 74.1618 28.7171 72.9726 28.7171ZM73.5489 26.357C74.3356 26.357 74.9943 26.174 75.5248 25.8081C76.0737 25.4239 76.4945 24.9208 76.7872 24.2987C77.0983 23.6767 77.2904 22.9906 77.3635 22.2405H74.1252C72.9726 22.2405 72.1493 22.4417 71.6553 22.8442C71.1797 23.2467 70.9418 23.7499 70.9418 24.3536C70.9418 24.9756 71.1705 25.4696 71.6279 25.8355C72.1036 26.1832 72.7439 26.357 73.5489 26.357ZM83.6918 28.3878V14.7759H86.2989L86.5459 17.3556C87.0216 16.4591 87.6802 15.7547 88.5218 15.2424C89.3817 14.7119 90.4154 14.4466 91.6229 14.4466V17.4928H90.827C90.022 17.4928 89.2993 17.63 88.659 17.9044C88.037 18.1606 87.5338 18.6088 87.1496 19.2492C86.7837 19.8712 86.6008 20.7402 86.6008 21.8563V28.3878H83.6918ZM101.774 28.7171C100.713 28.7171 99.7703 28.5067 98.947 28.0859C98.142 27.6651 97.5017 27.0705 97.026 26.3021L96.7241 28.3878H94.117V8.62863H97.026V16.889C97.4651 16.2487 98.0688 15.6815 98.8372 15.1876C99.6056 14.6936 100.594 14.4466 101.801 14.4466C103.118 14.4466 104.28 14.7576 105.286 15.3797C106.293 16.0017 107.079 16.8525 107.646 17.9319C108.232 19.0113 108.525 20.2371 108.525 21.6093C108.525 22.9814 108.232 24.2072 107.646 25.2867C107.079 26.3478 106.293 27.1894 105.286 27.8114C104.28 28.4152 103.109 28.7171 101.774 28.7171ZM101.28 26.1923C102.524 26.1923 103.548 25.7715 104.353 24.9299C105.158 24.07 105.561 22.954 105.561 21.5818C105.561 20.6854 105.378 19.8895 105.012 19.1943C104.646 18.499 104.143 17.9593 103.503 17.5751C102.862 17.1726 102.121 16.9714 101.28 16.9714C100.036 16.9714 99.011 17.4013 98.206 18.2612C97.4193 19.1211 97.026 20.228 97.026 21.5818C97.026 22.954 97.4193 24.07 98.206 24.9299C99.011 25.7715 100.036 26.1923 101.28 26.1923ZM118.038 28.7171C116.739 28.7171 115.568 28.4243 114.525 27.8389C113.501 27.2351 112.686 26.4027 112.083 25.3416C111.479 24.2621 111.177 23.0089 111.177 21.5818C111.177 20.1548 111.479 18.9107 112.083 17.8496C112.705 16.7701 113.537 15.9377 114.58 15.3522C115.623 14.7485 116.785 14.4466 118.065 14.4466C119.364 14.4466 120.526 14.7485 121.551 15.3522C122.593 15.9377 123.417 16.7701 124.02 17.8496C124.643 18.9107 124.954 20.1548 124.954 21.5818C124.954 23.0089 124.643 24.2621 124.02 25.3416C123.417 26.4027 122.593 27.2351 121.551 27.8389C120.508 28.4243 119.337 28.7171 118.038 28.7171ZM118.038 26.2197C118.733 26.2197 119.373 26.0459 119.959 25.6983C120.563 25.3507 121.047 24.8384 121.413 24.1615C121.779 23.4663 121.962 22.6064 121.962 21.5818C121.962 20.5573 121.779 19.7065 121.413 19.0296C121.066 18.3344 120.59 17.813 119.986 17.4653C119.401 17.1177 118.761 16.9439 118.065 16.9439C117.37 16.9439 116.721 17.1177 116.117 17.4653C115.531 17.813 115.056 18.3344 114.69 19.0296C114.324 19.7065 114.141 20.5573 114.141 21.5818C114.141 22.6064 114.324 23.4663 114.69 24.1615C115.056 24.8384 115.531 25.3507 116.117 25.6983C116.702 26.0459 117.343 26.2197 118.038 26.2197ZM128.099 28.3878V14.7759H130.679L130.899 17.1635C131.319 16.3219 131.932 15.6632 132.737 15.1876C133.561 14.6936 134.503 14.4466 135.564 14.4466C137.211 14.4466 138.5 14.9589 139.433 15.9834C140.385 17.008 140.861 18.5356 140.861 20.5664V28.3878H137.979V20.8683C137.979 18.2338 136.9 16.9165 134.741 16.9165C133.661 16.9165 132.765 17.3007 132.051 18.0691C131.356 18.8375 131.008 19.9352 131.008 21.3623V28.3878H128.099ZM145.933 12.1962C145.384 12.1962 144.927 12.0316 144.561 11.7023C144.213 11.3547 144.04 10.9247 144.04 10.4124C144.04 9.90017 144.213 9.47937 144.561 9.15005C144.927 8.80244 145.384 8.62863 145.933 8.62863C146.482 8.62863 146.93 8.80244 147.278 9.15005C147.644 9.47937 147.827 9.90017 147.827 10.4124C147.827 10.9247 147.644 11.3547 147.278 11.7023C146.93 12.0316 146.482 12.1962 145.933 12.1962ZM144.479 28.3878V14.7759H147.388V28.3878H144.479ZM158.885 28.7171C157.823 28.7171 156.881 28.5067 156.058 28.0859C155.253 27.6651 154.613 27.0705 154.137 26.3021L153.835 28.3878H151.228V8.62863H154.137V16.889C154.576 16.2487 155.18 15.6815 155.948 15.1876C156.717 14.6936 157.704 14.4466 158.912 14.4466C160.229 14.4466 161.391 14.7576 162.397 15.3797C163.404 16.0017 164.19 16.8525 164.757 17.9319C165.343 19.0113 165.636 20.2371 165.636 21.6093C165.636 22.9814 165.343 24.2072 164.757 25.2867C164.19 26.3478 163.404 27.1894 162.397 27.8114C161.391 28.4152 160.22 28.7171 158.885 28.7171ZM158.391 26.1923C159.635 26.1923 160.659 25.7715 161.464 24.9299C162.269 24.07 162.672 22.954 162.672 21.5818C162.672 20.6854 162.489 19.8895 162.123 19.1943C161.757 18.499 161.254 17.9593 160.613 17.5751C159.973 17.1726 159.232 16.9714 158.391 16.9714C157.146 16.9714 156.122 17.4013 155.317 18.2612C154.53 19.1211 154.137 20.228 154.137 21.5818C154.137 22.954 154.53 24.07 155.317 24.9299C156.122 25.7715 157.146 26.1923 158.391 26.1923ZM168.782 28.3878V8.62863H171.691V28.3878H168.782ZM181.742 28.7171C180.406 28.7171 179.217 28.4243 178.174 27.8389C177.149 27.2351 176.344 26.4027 175.759 25.3416C175.173 24.2804 174.881 23.0455 174.881 21.6367C174.881 20.2097 175.164 18.9564 175.731 17.877C176.317 16.7976 177.122 15.956 178.146 15.3522C179.189 14.7485 180.397 14.4466 181.769 14.4466C183.105 14.4466 184.266 14.7485 185.254 15.3522C186.242 15.9377 187.011 16.7244 187.559 17.7123C188.108 18.7003 188.383 19.7889 188.383 20.9781C188.383 21.161 188.374 21.3623 188.355 21.5818C188.355 21.7831 188.346 22.0118 188.328 22.2679H177.735C177.826 23.5852 178.256 24.5914 179.025 25.2867C179.811 25.9636 180.717 26.3021 181.742 26.3021C182.565 26.3021 183.251 26.1191 183.8 25.7532C184.367 25.369 184.788 24.8567 185.062 24.2164H187.971C187.605 25.4971 186.873 26.5674 185.776 27.4272C184.696 28.2871 183.352 28.7171 181.742 28.7171ZM181.742 16.8342C180.772 16.8342 179.912 17.1269 179.162 17.7123C178.412 18.2795 177.954 19.1394 177.79 20.292H185.474C185.419 19.2309 185.044 18.3893 184.349 17.7672C183.653 17.1452 182.784 16.8342 181.742 16.8342Z" fill="url(#paint0_linear_4686_9713)"/>
<defs>
<linearGradient id="paint0_linear_4686_9713" x1="53.8918" y1="0.50249" x2="66.1406" y2="61.219" gradientUnits="userSpaceOnUse">
<stop stop-color="#2B5FAD"/>
<stop offset="1" stop-color="#0B2D60"/>
</linearGradient>
<clipPath id="clip0_4686_9713">
<rect width="38.7755" height="38.7755" fill="white"/>
</clipPath>
</defs>
</svg>
