<svg width="93" height="20" viewBox="0 0 93 20" fill="none" xmlns="http://www.w3.org/2000/svg">
<path d="M0.921026 20V0.224729H4.53708V20H0.921026ZM8.28511 20V5.98781H11.4774L11.7599 8.36084C12.1931 7.53216 12.8146 6.87299 13.6244 6.38331C14.4531 5.89364 15.423 5.6488 16.5342 5.6488C18.2669 5.6488 19.6135 6.19498 20.574 7.28733C21.5345 8.37967 22.0148 9.98053 22.0148 12.0899V20H18.3987V12.4289C18.3987 11.2235 18.1539 10.3007 17.6642 9.66036C17.1746 9.02002 16.4118 8.69985 15.376 8.69985C14.3589 8.69985 13.5208 9.05768 12.8617 9.77336C12.2213 10.489 11.9012 11.4872 11.9012 12.7679V20H8.28511ZM29.1202 20L23.9786 5.98781H27.7642L31.3237 16.5817L34.8833 5.98781H38.6688L33.499 20H29.1202ZM41.0344 20V0.224729H53.9448V3.13452H44.6504V8.55859H53.0973V11.3836H44.6504V17.0902H53.9448V20H41.0344ZM57.2819 20V5.98781H60.4742L60.7849 7.88058C61.2369 7.20257 61.8302 6.66582 62.5647 6.27031C63.318 5.85597 64.1844 5.6488 65.1637 5.6488C67.3296 5.6488 68.8645 6.4869 69.7685 8.16309C70.277 7.39091 70.9551 6.77882 71.8026 6.32681C72.6689 5.87481 73.6106 5.6488 74.6276 5.6488C76.4545 5.6488 77.8576 6.19498 78.8369 7.28733C79.8163 8.37967 80.3059 9.98053 80.3059 12.0899V20H76.6899V12.4289C76.6899 11.2235 76.4545 10.3007 75.9836 9.66036C75.5316 9.02002 74.8254 8.69985 73.8648 8.69985C72.8855 8.69985 72.0945 9.05768 71.4918 9.77336C70.908 10.489 70.6161 11.4872 70.6161 12.7679V20H67V12.4289C67 11.2235 66.7646 10.3007 66.2937 9.66036C65.8229 9.02002 65.0978 8.69985 64.1185 8.69985C63.158 8.69985 62.3764 9.05768 61.7737 9.77336C61.1898 10.489 60.8979 11.4872 60.8979 12.7679V20H57.2819ZM89.9824 20C88.5133 20 87.3362 19.6422 86.4511 18.9265C85.5659 18.2108 85.1233 16.9395 85.1233 15.1127V9.0106H82.722V5.98781H85.1233L85.547 2.23051H88.7393V5.98781H92.5249V9.0106H88.7393V15.1409C88.7393 15.8189 88.8806 16.2898 89.1631 16.5535C89.4644 16.7983 89.9729 16.9207 90.6886 16.9207H92.4401V20H89.9824Z" fill="black"/>
</svg>
